<svg aria-hidden="true" style="width:0;height:0;position:absolute;overflow:hidden" xmlns="http://www.w3.org/2000/svg"><defs><symbol id="rectangle" viewBox="0 0 113 32"><path stroke-width=".64" stroke="#000" d="M1.92.32h-.711L23.15 25.1a19.522 19.522 0 0 0 14.615 6.58h37.111A19.52 19.52 0 0 0 89.49 25.1L111.431.32H1.92z"/></symbol><symbol id="swab" viewBox="0 0 32 32"><path fill="#fcfcf0" style="fill:var(--color1,#fcfcf0);stroke:var(--color16,#8abadd)" stroke="#8abadd" stroke-width="2.56" d="M16 1.841c7.82 0 14.159 6.339 14.159 14.159S23.82 30.159 16 30.159 1.841 23.82 1.841 16 8.18 1.841 16 1.841z"/><path fill="#fcfcf0" style="fill:var(--color1,#fcfcf0);stroke:var(--color3,#2d2a26)" stroke="#2d2a26" stroke-width=".427" d="M16 2.459c7.478 0 13.541 6.063 13.541 13.541 0 7.478-6.063 13.541-13.541 13.541-7.479 0-13.541-6.063-13.541-13.541C2.459 8.521 8.522 2.459 16 2.459z"/><path fill="#2d2a26" style="fill:var(--color3,#2d2a26)" d="M17.099 5.899c.043-.259.229-.349.59-.289s.509.206.466.466-.234.353-.591.292c-.358-.06-.508-.2-.465-.47zM20.84 7.394c-.145.207-.045.42.584.872.522.374.721.428.829.274s.022-.27-.583-.749c-.815-.642-1.056-1.016-.747-1.454s.832-.255 1.556.264c.724.519 1.042 1.023.703 1.506l-.497-.36c.152-.214-.024-.419-.541-.79-.489-.35-.638-.386-.74-.241s-.01.262.53.699c.733.588 1.176.968.829 1.462-.367.521-.931.277-1.646-.236-.793-.569-1.17-1.044-.774-1.607l.497.359zM26.966 12.453l-2.524.364-.417-.74 1.206-1.499-1.899.27-.415-.737 1.598-2.005.325.577-1.272 1.546 1.987-.281.37.656-1.255 1.593 1.968-.32.329.576zM25.354 15.427l-.172-1.422-.535-.193-.081-.672 2.502.935.1.825-2.206 1.519-.081-.676.473-.316zm.424-.283.896-.599-1.014-.368.118.967zM24.895 19.633c-.389-.095-.615-.395-.487-.923l.517-2.124 2.303.57-.498 2.045c-.128.528-.434.624-.773.54a.698.698 0 0 1-.403-.293.668.668 0 0 1-.659.185zm.178-.591c.243.061.279-.085.318-.245l.333-1.382-.487-.121-.337 1.38c-.038.161-.074.307.169.367h.004zm1.109-1.513-.304 1.236c-.039.159-.075.305.166.364s.272-.09.311-.249l.3-1.232-.473-.12zM23.99 21.837c.201.167.185.376-.049.66s-.432.34-.634.173-.185-.381.046-.663c.231-.282.432-.34.637-.17zM20.836 24.357c-.104-.23-.337-.25-1.04.075-.582.27-.728.416-.65.587s.218.155.933-.135c.959-.39 1.4-.414 1.622.074s-.197.855-1.004 1.228c-.807.373-1.4.399-1.644-.139l.555-.256c.109.239.373.189.949-.078.546-.252.651-.36.577-.526s-.219-.139-.865.114c-.871.347-1.418.544-1.669-.006-.267-.581.227-.952 1.025-1.321.884-.409 1.48-.5 1.765.128l-.555.256zM13.408 27.148l.973-2.378.843.014.67 1.808.729-1.79.841.014.897 2.408-.658-.01-.67-1.889-.772 1.868-.749-.012-.713-1.896-.727 1.872-.662-.01zM11.685 24.275l1.305.561.431-.369.617.265-2.05 1.718-.758-.326-.201-2.682.624.27.032.561zm.031.511.066 1.08.823-.702-.889-.378zM8.31 21.76c.278-.291.648-.338 1.036.039l1.561 1.519-1.646 1.723-1.502-1.461c-.388-.377-.317-.693-.075-.947a.691.691 0 0 1 .454-.204.69.69 0 0 1 .172-.669zm1.159 2.176-.905-.88c-.117-.113-.224-.218-.396-.039s-.062.282.058.399l.905.88.338-.36zm-.74-1.727c-.174.18-.067.286.051.4l1.015.99.348-.36-1.015-.99c-.117-.119-.225-.223-.398-.041zM6.872 19.872c-.244.09-.415-.027-.542-.373s-.076-.548.168-.64c.244-.092.419.029.546.372s.076.548-.172.642zM6.296 15.852c.249.024.383-.169.456-.945.061-.643.008-.844-.178-.862s-.242.114-.357.884c-.144 1.033-.345 1.43-.875 1.379s-.634-.6-.55-1.492.357-1.422.941-1.366l-.053.613c-.259-.025-.349.23-.408.867-.056.602-.013.75.163.768s.229-.122.335-.81c.138-.935.243-1.511.841-1.455.63.06.702.675.624 1.557-.089.977-.312 1.543-.993 1.477l.053-.615zM7.595 7.969l1.566 2.033-.429.733-1.894-.31 1.18 1.53-.427.73-2.518-.405.338-.575 1.961.347-1.229-1.601.381-.65 1.986.31-1.248-1.565.332-.578zM10.948 7.902l-1.134.861.101.561-.535.407-.446-2.654.658-.499 2.407 1.17-.535.409-.516-.255zm-.453-.229-.963-.484.191 1.07.772-.586zM14.793 6.212c.111.388-.034.736-.552.885l-2.084.601-.653-2.301 2.006-.58c.518-.149.752.07.849.409a.707.707 0 0 1-.052.499.672.672 0 0 1 .485.487zm-2.447-.078 1.208-.349c.156-.046.3-.09.231-.327s-.21-.195-.37-.149l-1.208.349.139.476zm1.853.215c-.07-.244-.213-.202-.369-.157l-1.355.391.138.487 1.359-.389c.152-.045.296-.086.227-.333z"/><path fill="#307fe2" style="fill:var(--color17,#307fe2)" d="M17.226 13.634 13.3 20.433c-.067.117-.226.166-.427.151s-.447-.093-.687-.232c-.481-.278-.762-.692-.627-.925l3.926-6.799 1.742 1.006z"/><path fill="#2d2a26" style="fill:var(--color3,#2d2a26)" d="m17.981 12.742-2.103-1.214c-.312-.18-.445-.537-.296-.795l.466-.806c.149-.258.524-.322.836-.142l2.103 1.214c.312.18.445.537.296.795l-.466.806c-.149.258-.525.322-.837.141zm-1.309-2.589c-.068-.04-.15-.027-.182.028l-.466.806c-.032.055-.002.132.066.172l2.103 1.214c.069.04.15.027.182-.028l.466-.806c.032-.055.002-.132-.067-.172l-2.103-1.214z"/><path fill="#2d2a26" style="fill:var(--color3,#2d2a26)" d="M12.868 20.73a1.295 1.295 0 0 1-1.28-1.93l4.269-7.395c.053-.092.191-.111.307-.044s.169.196.116.288l-4.244 7.352a.804.804 0 0 0 .787 1.202.803.803 0 0 0 .606-.397l4.245-7.352c.053-.092.191-.111.307-.044s.169.196.116.288l-4.269 7.395a1.294 1.294 0 0 1-.96.637z"/><path fill="#2d2a26" style="fill:var(--color3,#2d2a26)" d="m16.978 13.65-1.402-.81a.19.19 0 0 1 .189-.327l1.403.81a.19.19 0 0 1-.189.327zM16.381 20.185l-.326-.189 2.903-5.005a.19.19 0 0 1 .327.189l-2.903 5.005z"/><path fill="#2d2a26" style="fill:var(--color3,#2d2a26)" d="m19.028 15.249-.003-.002c-.094-.055-.243-.205-.182-.587.036-.224.137-.485.285-.736.291-.493.76-.931 1.105-.732l.003.002c.094.056.242.205.182.587a2.202 2.202 0 0 1-.285.736c-.291.493-.76.931-1.104.732zm1.009-1.734c-.051-.001-.325.162-.585.602s-.27.759-.23.811c.051.001.325-.162.585-.602.259-.44.27-.759.23-.811zM15.114 21.987l-.003-.002c-.094-.055-.242-.205-.181-.587a2.22 2.22 0 0 1 .284-.736c.291-.493.76-.931 1.104-.732l.003.002c.345.204.189.829-.103 1.323a2.195 2.195 0 0 1-.506.605c-.301.236-.503.182-.599.127zm1.009-1.735c-.051-.001-.325.162-.584.602s-.269.759-.23.811c.051.001.325-.162.584-.602s.27-.759.23-.811zM15.324 15.377l-.417-.241a.19.19 0 0 1 .189-.327l.417.241a.19.19 0 0 1-.189.327zM13.726 18.145l-.417-.241a.19.19 0 0 1 .189-.327l.417.241a.19.19 0 0 1-.189.327z"/><path fill="#2d2a26" style="fill:var(--color3,#2d2a26)" d="M13.398 18.23a.19.19 0 0 1-.069-.258l.238-.411a.19.19 0 0 1 .327.189l-.238.411a.19.19 0 0 1-.258.069z"/></symbol><symbol id="blood" viewBox="0 0 32 32"><path fill="#fcfcf0" style="fill:var(--color1,#fcfcf0);stroke:var(--color11,#f87c56)" stroke="#f87c56" stroke-width="2.56" d="M16 1.841c7.82 0 14.159 6.339 14.159 14.159S23.82 30.159 16 30.159 1.841 23.82 1.841 16 8.18 1.841 16 1.841z"/><path fill="#fcfcf0" style="fill:var(--color1,#fcfcf0);stroke:var(--color3,#2d2a26)" stroke="#2d2a26" stroke-width=".427" d="M16 2.459c7.478 0 13.541 6.063 13.541 13.541 0 7.479-6.063 13.541-13.541 13.541-7.479 0-13.541-6.063-13.541-13.541C2.459 8.521 8.522 2.459 16 2.459z"/><path fill="#2d2a26" style="fill:var(--color3,#2d2a26)" d="M16.95 5.854c.038-.262.224-.356.584-.301s.512.199.474.46c-.038.261-.227.361-.585.304s-.511-.198-.473-.463zM22.309 8.483c-.212.344-.564.469-1.021.181L19.451 7.5l1.255-2.039 1.769 1.12c.456.289.452.614.267.914a.697.697 0 0 1-.402.296.694.694 0 0 1-.031.691zm-.501-.353c.133-.215.006-.295-.132-.383l-1.194-.756-.267.431 1.196.757c.138.09.265.167.397-.049zm-1.079-1.542 1.069.675c.138.09.267.167.395-.045s0-.29-.138-.38l-1.069-.674-.256.424zM23.926 10.692l-.393.336-1.581-1.88 1.803-1.561.395.471-1.413 1.223 1.19 1.411zM24.634 10.488c.721-.314 1.292-.07 1.704.904s.19 1.561-.528 1.875c-.718.314-1.3.07-1.711-.904s-.19-1.559.535-1.875zm.935 2.209c.441-.192.55-.509.299-1.102s-.549-.732-.994-.538c-.444.194-.556.514-.306 1.104s.556.73 1.001.536zM25.909 13.691c.783-.053 1.241.37 1.311 1.425s-.333 1.536-1.113 1.589c-.78.053-1.247-.373-1.318-1.425s.333-1.537 1.12-1.589zm.158 2.398c.479-.032.686-.295.644-.939s-.279-.876-.761-.843c-.483.033-.693.298-.65.939s.282.876.768.843zM25.298 19.978c-.777-.214-1.002-.841-.842-1.441l.451-1.683 2.286.633-.453 1.681c-.159.6-.665 1.03-1.442.811zm.159-.596c.555.154.731-.126.852-.576l.231-.862-1.299-.361-.232.861c-.12.455-.107.785.448.94v-.002zM24.109 21.721c.204.164.192.374-.036.664s-.426.35-.63.181c-.204-.169-.192-.379.034-.666s.425-.348.631-.179zM19.189 25.12c-.189-.361-.12-.729.356-.987l1.909-1.037 1.118 2.12-1.838.994c-.474.258-.75.09-.915-.22a.726.726 0 0 1-.053-.502.661.661 0 0 1-.578-.369zm.551-.265c.119.224.249.154.393.075l1.241-.673-.237-.452-1.241.674c-.143.081-.275.153-.157.376zm1.854-.181-1.107.601c-.143.078-.275.149-.159.371s.247.146.393.067l1.107-.601-.234-.437zM16.497 25.438l-.089-.51 2.397-.446.427 2.364-.599.111-.335-1.853-1.801.334zM16.319 26.161c-.089.791-.585 1.175-1.621 1.048s-1.425-.613-1.336-1.401c.089-.788.589-1.175 1.621-1.055s1.425.609 1.336 1.407zm-2.353-.28c-.056.484.16.738.792.813s.899-.117.956-.605c.056-.488-.162-.745-.791-.82s-.905.12-.961.608l.004.004zM12.944 25.683c-.346.716-.936.904-1.87.442s-1.146-1.059-.802-1.772.942-.912 1.875-.452c.932.46 1.144 1.064.797 1.782zm-2.128-1.058c-.211.438-.089.75.48 1.035s.891.192 1.1-.248c.209-.441.089-.758-.476-1.04s-.891-.187-1.103.254zM7.881 21.998c.572-.576 1.22-.459 1.651-.017l1.211 1.238-1.682 1.693-1.21-1.239c-.432-.441-.541-1.1.03-1.675zm.429.439c-.409.411-.259.706.065 1.036l.623.633.956-.962-.623-.633c-.324-.332-.614-.485-1.021-.074zM6.984 20.09c-.242.098-.415-.018-.55-.361s-.089-.548.156-.645c.245-.097.419.02.552.361s.086.547-.159.645zM6.543 14.066c.399.014.683.259.666.805l-.069 2.197-2.367-.077.066-2.114c.017-.542.297-.705.645-.694a.69.69 0 0 1 .454.203.663.663 0 0 1 .606-.32zm-.822 2.336.04-1.273c.005-.164.01-.315-.237-.324s-.248.143-.254.311l-.04 1.273.491.013zm.772-1.717c-.25-.008-.255.143-.26.307l-.045 1.428.501.016.045-1.428c.005-.166.01-.317-.24-.323zM7.617 11.537l.482.173-.814 2.33-2.233-.802.203-.583 1.751.633.611-1.751zM7.089 11.02c-.629-.476-.706-1.101-.083-1.948s1.238-.947 1.865-.473.713 1.108.089 1.952-1.24.948-1.871.469zm1.417-1.926c-.385-.292-.712-.229-1.09.288s-.35.848.037 1.142c.387.294.712.23 1.095-.284s.346-.853-.043-1.147zM9.181 8.297c-.439-.661-.309-1.275.555-1.867s1.477-.481 1.915.181c.437.661.31 1.283-.551 1.873s-1.478.477-1.918-.187zm1.965-1.344c-.267-.405-.596-.452-1.124-.09s-.606.684-.336 1.092c.271.408.603.457 1.127.098s.607-.693.332-1.1zM14.854 5.683c.206.791-.217 1.301-.81 1.46l-1.663.445-.604-2.324 1.662-.445c.591-.159 1.209.074 1.414.864zm-.589.158c-.147-.565-.473-.58-.918-.461l-.851.228.344 1.322.851-.229c.445-.119.721-.296.574-.86z"/><path fill="#d1e7f8" style="fill:var(--color12,#d1e7f8)" d="m19.999 12.231-2.735-1.579a.351.351 0 0 0-.351.607l2.735 1.579a.351.351 0 0 0 .351-.607z"/><path fill="#d80027" style="fill:var(--color13,#d80027)" d="m17.61 16.018-2.325 4.026a1.404 1.404 0 0 1-2.431-1.403l2.412-4.178.161.107c.229.178.221.316.562.513.137.083.29.137.449.158s.312.074.449.158c.34.196.333.335.562.513.051.039.105.075.161.107z"/><path fill="#bddbff" style="fill:var(--color14,#bddbff)" d="m19.496 12.752-1.886 3.267-.161-.107c-.229-.178-.221-.316-.562-.513-.137-.083-.29-.137-.449-.158s-.312-.075-.449-.158c-.34-.196-.333-.335-.562-.513a1.45 1.45 0 0 0-.161-.107l1.798-3.115 2.431 1.403z"/><path fill="#e0e0e2" style="fill:var(--color15,#e0e0e2)" d="M15.267 14.463c.056.032.11.068.161.107l-.161-.107z"/><path fill="#e0e0e2" style="fill:var(--color15,#e0e0e2)" d="m15.428 14.569-.161-.107c.056.032.11.068.161.107zM17.61 16.018a1.45 1.45 0 0 1-.161-.107l.161.107z"/><path fill="#2d2a26" style="fill:var(--color3,#2d2a26)" d="m20.087 12.08-2.735-1.579a.526.526 0 1 0-.527.911l-4.123 7.141a1.583 1.583 0 0 0 .578 2.157 1.583 1.583 0 0 0 2.157-.578l4.123-7.141a.526.526 0 1 0 .527-.911zm-4.953 7.877a1.227 1.227 0 0 1-2.25-.297c-.084-.315-.04-.65.123-.932l2.319-4.016c.062.051.118.108.167.172.111.144.25.263.409.35.155.094.328.155.508.179.277.042.528.187.704.406.075.097.163.183.261.255l-2.241 3.882zm2.418-4.188a1.046 1.046 0 0 1-.167-.172 1.467 1.467 0 0 0-.917-.529 1.119 1.119 0 0 1-.704-.406 1.313 1.313 0 0 0-.261-.255l1.627-2.818 2.127 1.228-1.705 2.953zm2.184-3.082-2.735-1.579a.177.177 0 0 1-.065-.24c.023-.04.062-.07.107-.082s.093-.006.133.018l2.735 1.579c.04.023.07.062.082.107s.006.093-.018.133c-.023.04-.062.07-.107.082s-.093.006-.133-.018z"/><path fill="#2d2a26" style="fill:var(--color3,#2d2a26)" d="m17.082 12.371.608.351a.176.176 0 0 0 .24-.064.176.176 0 0 0-.064-.24l-.608-.351a.176.176 0 0 0-.24.064.176.176 0 0 0 .064.24zM16.819 12.827l.608.351a.176.176 0 0 0 .24-.064c.023-.04.03-.088.017-.133s-.041-.083-.082-.107l-.608-.351a.176.176 0 0 0-.24.064.176.176 0 0 0 .064.24zM16.556 13.282l.608.351a.176.176 0 0 0 .24-.064.176.176 0 0 0-.064-.24l-.608-.351a.176.176 0 0 0-.24.064.176.176 0 0 0 .064.24z"/></symbol><symbol id="urine" viewBox="0 0 32 32"><path fill="#fcfcf0" style="fill:var(--color1,#fcfcf0);stroke:var(--color2,#f68d2e)" stroke="#f68d2e" stroke-width="2.56" d="M16 1.841c7.82 0 14.159 6.339 14.159 14.159S23.82 30.159 16 30.159 1.841 23.82 1.841 16 8.18 1.841 16 1.841z"/><path fill="#fcfcf0" style="fill:var(--color1,#fcfcf0);stroke:var(--color3,#2d2a26)" stroke="#2d2a26" stroke-width=".427" d="M16 2.459c7.479 0 13.541 6.063 13.541 13.541 0 7.479-6.063 13.541-13.541 13.541-7.479 0-13.541-6.063-13.541-13.541C2.459 8.521 8.522 2.459 16 2.459z"/><path fill="#2d2a26" style="fill:var(--color3,#2d2a26)" d="M18.275 7.478c-1.003-.267-1.33-.766-1.119-1.563l.304-1.14.586.157-.304 1.139c-.089.32-.095.712.664.913s.944-.142 1.029-.459l.304-1.139.585.157-.3 1.133c-.215.801-.75 1.067-1.75.801zM22.253 8.738l-.056.825-.576-.418.058-.736-.798-.572-.367.514-.493-.356 1.375-1.923 1.508 1.084c.435.314.532.806.229 1.235-.225.314-.549.431-.879.347zm-1.076-1.315.876.631c.148.106.379.271.584-.017s-.021-.456-.169-.563l-.876-.631-.415.58zM22.829 10.391l-.399-.458 1.774-1.558.399.458-1.773 1.558zM26.656 12.305l-2.11 1.063-.371-.74.858-2.238-1.581.801-.272-.544 2.108-1.067.369.737-.859 2.243 1.583-.801.275.546zM26.537 14.125l-.475.054.213 1.881-.435.049-.213-1.881-.475.054.213 1.881-.479.055-.281-2.485 2.343-.267.282 2.485-.479.055-.213-1.881zM25.53 18.643c.246.084.303.281.187.627s-.283.468-.532.384c-.249-.084-.306-.286-.19-.629s.286-.467.535-.383zM22.138 22.239c.741-.729 1.335-.759 1.91-.17l.823.842-.433.425-.823-.842c-.231-.236-.56-.445-1.121.109s-.359.89-.13 1.122l.823.842-.433.426-.823-.842c-.577-.586-.532-1.186.207-1.912zM19.035 25.036l-.681-.466.653-.29.603.423.895-.396-.255-.578.555-.246.953 2.164-1.695.752c-.49.218-.964.054-1.177-.428-.076-.152-.103-.324-.076-.492s.106-.323.225-.443zm1.675-.261-.987.437c-.166.074-.425.189-.282.513s.403.213.569.14l.989-.438-.289-.652zM17.322 24.692l.596-.11.43 2.327-.596.11-.43-2.327zM13.736 27.025l.158-2.361.824.055 1.485 1.878.118-1.773.606.041-.158 2.361-.824-.053-1.489-1.881-.118 1.774-.602-.04zM12.232 25.998l.194-.439-1.723-.771.177-.401 1.723.771.195-.439-1.723-.771.196-.445 2.279 1.023-.961 2.161-2.277-1.019.196-.445 1.724.775zM8.868 22.83c-.196.17-.396.118-.633-.158s-.258-.481-.061-.651c.197-.17.401-.119.636.156s.258.481.059.654zM7.501 18.072c.248 1.011-.028 1.538-.826 1.736l-1.142.282-.145-.591 1.141-.282c.321-.079.666-.258.478-1.023s-.579-.762-.896-.684l-1.141.282-.145-.591 1.142-.282c.795-.197 1.289.145 1.535 1.153zM6.679 13.972l.747-.351-.082.712-.67.306-.114.974.626.073-.07.605-2.344-.279.215-1.847c.062-.534.443-.86.965-.801a.8.8 0 0 1 .727.608zm-.62 1.581.125-1.075c.021-.178.054-.463-.297-.504s-.388.241-.409.422l-.126 1.075.707.083zM7.846 12.661l-.207.572-2.217-.809.207-.572 2.217.809zM7.67 8.378l1.945 1.34-.467.683-2.369.324 1.459 1.005-.344.502-1.945-1.34.466-.681 2.374-.325-1.461-1.007.343-.502zM9.314 7.604l.278.391 1.537-1.099.255.356-1.537 1.099.278.391 1.537-1.098.279.393L9.91 9.489 8.542 7.567l2.031-1.452.279.394-1.537 1.095zM13.743 6.306c-.045-.256.099-.402.458-.466s.545.023.591.279c.045.256-.103.406-.458.47s-.544-.023-.591-.283z"/><path fill="#e3f2ff" style="fill:var(--color4,#e3f2ff)" d="M17.206 20.36h-2.949a.8.8 0 0 1-.795-.702l-.154-1.257.001-1.422-.35-1.422-.211-1.721h5.969l-.715 5.821a.8.8 0 0 1-.795.702z"/><path fill="#cfe9ff" style="fill:var(--color5,#cfe9ff)" d="m18.014 13.836-.715 5.821a.8.8 0 0 1-.795.702h.702a.8.8 0 0 0 .795-.702l.715-5.821h-.702z"/><path fill="#ffbe30" style="fill:var(--color6,#ffbe30)" d="M13.461 19.658a.8.8 0 0 0 .795.702h2.949a.8.8 0 0 0 .795-.702l.314-2.56h-2.987L13.309 18.4l.152 1.257z"/><path fill="#ffaf00" style="fill:var(--color7,#ffaf00)" d="m17.613 17.098-.314 2.56a.8.8 0 0 1-.795.702h.702a.8.8 0 0 0 .795-.702l.314-2.56h-.702z"/><path fill="#fff" style="fill:var(--color8,#fff)" d="M15.095 18.4H13.31l-.348-2.843h2.133a.48.48 0 0 1 .481.479v1.885a.48.48 0 0 1-.481.479z"/><path fill="#ff4c30" style="fill:var(--color9,#ff4c30)" d="M18.751 14.156h-6.04a.32.32 0 0 1-.32-.32v-1.098a.32.32 0 0 1 .32-.32h6.04a.32.32 0 0 1 .32.32v1.098a.32.32 0 0 1-.32.32z"/><path fill="#ffbe30" style="fill:var(--color6,#ffbe30)" d="M19.173 11.64s-.998 1.183-.998 2.079a.997.997 0 0 0 1.996 0c0-.829-.998-2.079-.998-2.079z"/><path fill="#ffaf00" style="fill:var(--color7,#ffaf00)" d="M19.173 11.64s-.163.193-.357.483c.289.44.654 1.095.654 1.596a.995.995 0 0 1-.647.932.997.997 0 0 0 1.349-.933c0-.829-.998-2.079-.998-2.079z"/><path style="fill:var(--color10,#000)" d="M13.038 13.801a.132.132 0 0 0 .132-.132v-.765a.132.132 0 1 0-.264 0v.765c0 .073.059.132.132.132zM13.711 13.801a.132.132 0 0 0 .132-.132v-.765a.132.132 0 1 0-.264 0v.765c0 .073.059.132.132.132zM14.384 13.801a.132.132 0 0 0 .132-.132v-.765a.132.132 0 1 0-.264 0v.765c0 .073.059.132.132.132zM15.058 13.801a.132.132 0 0 0 .132-.132v-.765a.132.132 0 1 0-.264 0v.765c0 .073.059.132.132.132zM15.731 13.801a.132.132 0 0 0 .132-.132v-.765a.132.132 0 1 0-.264 0v.765c0 .073.059.132.132.132zM16.404 13.801a.132.132 0 0 0 .132-.132v-.765a.132.132 0 1 0-.264 0v.765c0 .073.059.132.132.132zM17.078 13.801a.132.132 0 0 0 .132-.132v-.765a.132.132 0 1 0-.264 0v.765c0 .073.059.132.132.132zM17.751 13.801a.132.132 0 0 0 .132-.132v-.765a.132.132 0 1 0-.264 0v.765c0 .073.059.132.132.132z"/><path style="fill:var(--color10,#000)" d="M19.596 12.006c-.086-.151-.309-.034-.233.123.216.409.676 1.33.676 1.589-.047 1.147-1.681 1.142-1.733 0 0-.67.615-1.54.864-1.864.052.07.119.164.193.275a.132.132 0 1 0 .219-.147 6.66 6.66 0 0 0-.307-.425.133.133 0 0 0-.203-.003c-.021.025-.27.323-.519.731h-5.842a.453.453 0 0 0-.452.452v1.098c0 .235.18.428.41.45l.662 5.388a.932.932 0 0 0 .926.817h.397a.132.132 0 1 0 0-.264h-.397a.669.669 0 0 1-.664-.586l-.136-1.11h1.639a.612.612 0 0 0 .612-.611v-.691h2.459l-.296 2.412a.67.67 0 0 1-.664.586h-2.714a.132.132 0 1 0 0 .264h2.714a.933.933 0 0 0 .926-.817l.604-4.916c.723.318 1.58-.247 1.567-1.039 0-.303-.47-1.265-.706-1.712zm-7.073 1.83v-1.098c0-.104.084-.188.188-.188h5.692c-.242.47-.45.979-.318 1.475h-5.374a.188.188 0 0 1-.188-.188zm2.921 4.085a.35.35 0 0 1-.349.348h-1.671l-.091-.742h1.149a.132.132 0 1 0 0-.264h-1.181l-.071-.581h1.253a.132.132 0 1 0 0-.264h-1.285l-.09-.731h1.988a.35.35 0 0 1 .349.348v1.885zm2.755-.955h-2.492v-.93a.612.612 0 0 0-.612-.611h-2.021l-.14-1.138h5.263c.075.127.173.238.29.327l-.289 2.352z"/><path style="fill:var(--color10,#000)" d="M18.893 13.733c-.005-.174-.258-.174-.263 0 0 .29.237.527.528.527.174-.005.174-.258 0-.263a.265.265 0 0 1-.265-.264z"/></symbol><symbol id="frame" viewBox="0 0 27 32"><path fill="#362e4d" style="fill:var(--color1,#362e4d)" d="M0 24.703s.281.322 1.309.305.607-1.651.607-1.651-.86-.071-.944 0C.888 23.428 0 24.703 0 24.703z"/><path fill="#8abadd" style="fill:var(--color2,#8abadd)" d="M18.474 11.23s1.752.836 2.882 3.526c1.046 2.487 2.51 6.891 2.51 6.891l-6.354 1.21.963-11.627z"/><path fill="#a66161" style="fill:var(--color3,#a66161)" d="M26.273 27.876s.199.904.235 1.48c.021.334-.215.833-.632.689-.364-.125-.615-.587-.721-.922-.122-.385-.214-.933-.214-.933l1.332-.313zM10.377 9.343l-3.044.863 2.493 4.549s2.301.224 2.656.224 1.164.09 1.344-.381 1.44-4.124 1.44-4.124l-2.473-.314-2.416-.818z"/><path fill="#362e4d" style="fill:var(--color1,#362e4d)" d="M11.606 4.96c0-1.494 1.282-2.585 2.848-2.585 1.327 0 2.849.971 2.849 2.465s-1.27 2.706-2.837 2.706c-1.566 0-2.86-1.091-2.86-2.586z"/><path fill="#a66161" style="fill:var(--color3,#a66161)" d="m14.11 9.437-.446 1.447-.142.463-2.041 1.276-1.815-2.101 2.24-3.706 2.204 2.622z"/><path fill="#362e4d" style="fill:var(--color1,#362e4d)" d="m13.95 9.954-.286.929c-.128-.024-.288-.096-.474-.259-.889-.778-.914-2.092-.914-2.092l1.674 1.422z"/><path fill="#a66161" style="fill:var(--color3,#a66161)" d="M11.703 6.052a2.935 2.935 0 0 0 .517 1.761c.387.558.969.951 1.664 1.054.95.141 1.872-.294 2.463-1.065.011-.014.233-.442.375-.715l.067-.13c.023-.044.039-.077.046-.088l.001-.004.001-.001.008-.023.016-.054c.07-.224.14-.423.263-.843.469-1.612-.875-2.603-2.312-2.818-1.32-.196-2.583.719-2.981 2.095l-.004.013a3.144 3.144 0 0 0-.124.817z"/><path fill="#a66161" style="fill:var(--color3,#a66161)" d="M12.08 8.251c.103.846.601 1.638 1.669 1.973.986.311 1.7-.407 2.137-1.137.299-.503.69-1.519.863-1.982.022-.057.041-.105.054-.143.017-.05.03-.083.032-.094l.001-.004-.055.035-.085.021-2.403.55-2.096-1.617-.004.034c-.001.008-.002.015-.001.023a4.72 4.72 0 0 0-.034.321c-.031.32-.099.796-.108 1.3a5.09 5.09 0 0 0 .031.72z"/><path fill="#362e4d" style="fill:var(--color1,#362e4d)" d="M14.543 6.593c-.121.029-.222.192-.242.329-.009.059.004.126.044.162.059.052.144.017.202-.038a.485.485 0 0 0 .113-.173c.022-.052.03-.109.022-.164-.009-.055-.044-.106-.091-.117a.098.098 0 0 0-.048.001zM16.125 7.235c-.116.028-.213.185-.233.315-.008.057.004.121.043.156.056.05.139.016.194-.036a.454.454 0 0 0 .108-.166c.021-.05.028-.104.021-.157-.009-.053-.042-.103-.087-.112a.097.097 0 0 0-.045.001zM15.036 8.128c.073 0 .137-.005.168-.021s.096-.047.129-.662c.001-.018-.006-.035-.018-.048s-.028-.021-.046-.022c-.018-.001-.035.005-.048.017s-.021.028-.023.046c-.012.22-.04.482-.066.551-.051.008-.21.003-.34-.009-.018-.001-.035.005-.048.016s-.022.027-.023.045c-.002.017.004.035.015.048s.027.022.044.024c.07.006.169.014.256.014z"/><path fill="#fff" style="fill:var(--color4,#fff)" d="M15.073 8.542a1.909 1.909 0 0 1-.476-.172 2.253 2.253 0 0 1-.483-.332s-.076.382.257.56c.34.182.702-.056.702-.056z"/><path fill="#362e4d" style="fill:var(--color1,#362e4d)" d="M14.282 5.937a.23.23 0 0 1 .05-.018.879.879 0 0 1 .626.082c.097.054.379.284.169.38-.025.01-.053.015-.08.014s-.054-.007-.079-.018a.766.766 0 0 1-.142-.081 1.397 1.397 0 0 0-.47-.186c-.058-.011-.132-.035-.134-.094-.001-.037.026-.063.061-.08zM16.25 6.863a.827.827 0 0 0 .151.062 1.316 1.316 0 0 1 .347.183c.022-.057.041-.105.054-.143.017-.05.03-.083.032-.094l.001-.004.001-.001.008-.023a.847.847 0 0 0-.293-.206c-.093-.038-.285-.075-.375-.007-.095.073-.005.187.074.233z"/><path fill="#362e4d" style="fill:var(--color1,#362e4d)" d="M17.198 5.602s-2.493-1.251-2.822-1.284-.725 1.336-1.07 1.319c-.346-.017-.775.492-1.078.874s-.41.447-.41.447a5.036 5.036 0 0 1-.171-.825c-.017-.142-.27-1.836.341-2.458.378-.385.944-.484 1.403-.492s.977-.193 1.137-.176c.16.017.429-.083.96-.001s1.053.421 1.255.615c.202.193.539.689.556 1.168s-.103.813-.103.813z"/><path fill="#a66161" style="fill:var(--color3,#a66161)" d="M13.31 6.093c-.117.55-.503.935-.862.859s-.556-.583-.44-1.133c.117-.55.503-.935.862-.859s.556.583.44 1.134z"/><path fill="#362e4d" style="fill:var(--color1,#362e4d)" d="M14.367 3.1s.572-1.181.795-1.699c.132-.302.403-.832.153-1.139-.203-.249-.526.068-.628.262-.085.161-.195.508-.195.508S14.441 0 13.898 0c-.636 0-.246 1.134-.246 1.134S13.113.249 12.677.5c-.56.321.239 1.125.543 1.48.441.517 1.148 1.121 1.148 1.121z"/><path fill="#f5cabf" style="fill:var(--color5,#f5cabf)" d="M14.299 10.353s-1.074 2.79-2.023 2.958-3.223-3.592-3.223-3.592l-1.72.488s.404 4.751.236 5.188 1.887 7.899 1.449 10.992c-.438 3.092-.303 5.614-.303 5.614h7.775s.296-14.623.355-15.967-.025-5.262-.177-5.344c-.152-.082-2.37-.336-2.37-.336z"/><path fill="#8abadd" style="fill:var(--color2,#8abadd)" d="M7.942 10.034s.585 2.131 1.077 5.041c.272 1.613.679 5.877.831 7.412.605 6.091.292 9.513.292 9.513H3.795s-.219-1.311-.371-3.731.118-16.118.421-16.504c.303-.386 1.546-.829 1.949-1.008s2.147-.722 2.147-.722zM15.733 10.529s.498 1.974.599 3.319.13 5.547.158 6.756c.029 1.21-.062 5.983-.144 7.059S16.045 32 16.045 32h3.522s-.067-4.034.135-5.883.236-12.558-.146-13.495c-.382-.937-.92-1.5-2.045-1.787a11.636 11.636 0 0 0-1.778-.306z"/><path fill="#362e4d" style="fill:var(--color1,#362e4d)" d="M19.347 19.918a.07.07 0 0 0 .068-.062l.261-3.735c.001-.018-.004-.035-.016-.049s-.028-.022-.046-.023c-.018-.001-.035.005-.048.017s-.022.028-.024.045l-.261 3.734c-.001.018.005.035.016.049s.028.022.046.023l.005.001z"/><path fill="#a66161" style="fill:var(--color3,#a66161)" d="m10.455 19.808-1.167 1.401s1.775 3.317 2.359 3.384 2.463 0 2.463 0l-.553-4.908-3.102.123z"/><path fill="#a66161" style="fill:var(--color3,#a66161)" d="M10.455 19.808s.687-.986 2.304-1.254 4.533-.134 5.106-.134c.337 0 .801.013 1.142.013.646 0 1.179.721.742 1.294-.249.327-.594.326-.859.327l-5.375.016c-.316 0-.661.043-.975.003l-2.084-.264z"/><path fill="#fff" style="fill:var(--color4,#fff)" d="M15.017 20.033h.008c.008 0 .838-.104.846-.805s-.77-.806-.778-.807c-.018-.002-.036.003-.05.014s-.023.027-.025.045c-.002.018.003.036.014.05s.027.023.045.025c.027.004.667.091.659.672-.007.584-.72.673-.727.674a.067.067 0 0 0-.06.07.067.067 0 0 0 .067.063l.001-.001zM16.667 20.033h.008c.009 0 .838-.104.846-.805s-.77-.806-.778-.807c-.018-.002-.036.003-.05.014s-.023.027-.025.045c-.002.018.003.036.014.05s.027.023.045.025c.027.004.667.091.659.672-.007.584-.72.673-.727.674a.067.067 0 0 0-.06.07c.001.017.009.033.021.045s.029.018.046.018l.001-.001zM18.317 20.033h.008c.009 0 .838-.104.846-.805s-.77-.806-.778-.807c-.018-.002-.036.003-.05.014s-.023.027-.025.045c-.002.018.003.036.014.05s.027.023.045.025c.027.004.667.091.659.672-.007.584-.72.673-.727.674a.067.067 0 0 0-.06.07.067.067 0 0 0 .067.063l.001-.001z"/><path fill="#fcfcf0" style="fill:var(--color6,#fcfcf0)" d="M13.779 20.053h12.215c.284 0 .515.23.515.515v7.893c0 .284-.23.515-.515.515H13.779a.515.515 0 0 1-.515-.515v-7.892c0-.284.231-.515.515-.515z"/><path fill="#f87c56" style="fill:var(--color7,#f87c56)" d="M17.683 33.086c1.754-2.687-.334-9.083-5.001-9.437-5.834-.442-2.111 14.742 5.001 9.437z"/><path fill="#f68d2e" style="fill:var(--color8,#f68d2e)" d="M30.384 19.05c-1.056-1.545-4.975-1.858-6.213.57-1.547 3.035 7.48 4.441 6.213-.57z"/><path fill="#ecb3cb" style="fill:var(--color9,#ecb3cb)" d="M11.07 36.291c2.261-2.084 6.289-6.927 4.313-9.63-2.47-3.379-11.368 10.12-4.313 9.63z"/><path fill="#a66161" style="fill:var(--color3,#a66161)" d="M24.45 30.779c.211-.066.448-.277.551-1.195s-.089-1.74-.348-2c-.309-.311-.717-.177-.838-.019a.65.65 0 0 0-.13.324s.001-.496-.419-.596-.68.268-.714.45c-.021.13-.029.261-.026.392 0 0-.119-.393-.505-.416s-.602.315-.632.493a1.394 1.394 0 0 0-.015.329s-.184-.315-.625-.235-.468.824-.509 1.358c-.019.251-.045.498.082.727a.796.796 0 0 0 .648.408c.193.009.398-.096.398-.096s.103.256.35.368c.316.144.764.041.889-.321a.693.693 0 0 0 .58.337c.417.016.664-.588.664-.588s.207.403.595.281z"/><path fill="#fff" style="fill:var(--color4,#fff)" d="M23.865 30.473h.005c.018-.001.034-.01.046-.023s.017-.031.016-.048l-.17-2.437c-.002-.017-.01-.034-.024-.045s-.031-.017-.048-.016a.066.066 0 0 0-.062.072l.17 2.437c.001.017.009.033.022.044s.029.018.046.018zM22.588 30.759h.001a.068.068 0 0 0 .066-.069l-.067-2.479c-.001-.018-.009-.035-.021-.047s-.03-.019-.048-.019c-.009 0-.018.002-.026.006s-.015.009-.021.015a.064.064 0 0 0-.018.048l.067 2.479c.001.018.008.034.021.047s.03.019.047.019zM21.356 30.694c.018 0 .035-.007.048-.02s.02-.03.02-.047l.001-2.049c0-.009-.002-.018-.005-.026s-.008-.016-.015-.022-.014-.011-.022-.015a.067.067 0 0 0-.074.015.067.067 0 0 0-.02.048l-.002 2.049c0 .018.007.035.02.048s.03.02.048.02z"/><path fill="#a66161" style="fill:var(--color3,#a66161)" d="M1.058 24.247s.057 1.294.279 2.114c.178.663.514 1.366 1.109 1.758 1.03.675 2.932-.135 3.949-.506a44.816 44.816 0 0 0 3.341-1.381 67.6 67.6 0 0 0 1.055-.497 73.354 73.354 0 0 0 2.205-1.115l-2.72-4.351-9.218 3.979z"/><path fill="#a66161" style="fill:var(--color3,#a66161)" d="m1.058 24.247-.086-1.189 5.266-1.047-3.833 2.692-1.346-.456z"/><path fill="#8abadd" style="fill:var(--color2,#8abadd)" d="M4.105 11.54s-2.544.918-3.353 5.207c-.655 3.476-.753 7.954-.753 7.954s.837-.603 2.168-1.192c1.331-.589 4.069-1.5 4.069-1.5L4.104 11.54z"/><path fill="#fff" style="fill:var(--color4,#fff)" d="M11.13 23.249h.002c.025 0 .628-.018 1.158-.534.523-.511.761-1.295.771-1.329.005-.017.003-.036-.005-.051a.068.068 0 0 0-.124.013c-.002.008-.238.785-.736 1.271a1.727 1.727 0 0 1-1.066.496c-.018 0-.035.007-.047.02s-.019.03-.019.048c0 .018.007.035.02.047s.03.019.048.019h-.001zM8.705 24.958c.364.541.71.956 1.03 1.274.353-.163.705-.328 1.056-.497-.326-.269-.73-.697-1.19-1.377-.998-1.48-.721-2.953-.536-3.566l-1.213.523a5.17 5.17 0 0 0 .854 3.643zM16.49 15.142h.002c1.628-.051 1.686-.087 1.705-.098.165-.101-.277-1.66-.488-2.293a16.822 16.822 0 0 0-.804-1.992c-.008-.016-.022-.028-.039-.034s-.036-.004-.051.004c-.016.008-.028.022-.034.039s-.004.035.004.051c.004.008.416.833.797 1.974.359 1.073.531 1.96.525 2.139-.16.021-1.059.058-1.619.075-.018 0-.035.008-.047.02s-.019.03-.019.048c0 .018.008.035.02.047s.03.019.048.019h-.001zM7.761 15.399c.292 0 .659-.004 1.124-.013.009 0 .018-.002.026-.006s.015-.009.022-.015c.006-.006.011-.014.014-.022a.075.075 0 0 0 .001-.052.054.054 0 0 0-.015-.022.063.063 0 0 0-.05-.017c-.912.018-1.929.016-2.126-.021a22.543 22.543 0 0 1 .077-2.292c.106-1.123.185-2.435.185-2.448.001-.018-.005-.035-.017-.049s-.029-.021-.046-.022a.069.069 0 0 0-.072.063c0 .013-.08 1.323-.185 2.443-.092.975-.091 2.27-.072 2.364.011.053.022.109 1.135.109zM6.527 21.831h.007c.018-.002.034-.011.045-.025s.016-.032.015-.049l-.579-5.382a.067.067 0 0 0-.119-.034.073.073 0 0 0-.015.049l.579 5.381c.002.016.01.032.022.043s.028.017.045.017z"/><path fill="#362e4d" style="fill:var(--color1,#362e4d)" d="M12.4 6.711a.288.288 0 0 0 .263-.176.286.286 0 1 0-.549-.109.285.285 0 0 0 .285.284zm0-.434a.15.15 0 0 1 .138.092c.011.027.014.058.009.087s-.02.056-.041.077c-.021.021-.048.035-.077.041s-.059.003-.087-.009-.051-.031-.067-.055a.148.148 0 0 1 .019-.188.15.15 0 0 1 .106-.044v-.001z"/><path fill="#0f0a1c" style="fill:var(--color10,#0f0a1c)" d="m13.774 2.524.015-.002c.002 0 .184-.041.364-.062s.489-.012.492-.012c.018-.001.034-.008.047-.02a.067.067 0 0 0 .018-.072c-.003-.008-.008-.016-.014-.022s-.013-.012-.021-.015a.058.058 0 0 0-.026-.006c-.013 0-.323-.008-.511.013s-.371.062-.378.064c-.016.004-.03.013-.04.027s-.014.03-.012.046.01.031.022.042.028.017.045.017z"/><path fill="#0f0a1c" style="fill:var(--color10,#0f0a1c)" d="M14.385 2.414a.067.067 0 0 0 .067-.062l.097-1.252a.066.066 0 0 0-.062-.071c-.018-.001-.035.004-.049.016s-.022.028-.024.045l-.097 1.252c-.001.009 0 .018.003.026s.007.016.013.023a.072.072 0 0 0 .046.023h.005zM14.083 2.419l.125-.051-.242-.588c-.111-.273-.24-.621-.241-.624a.067.067 0 0 0-.087-.04c-.017.006-.03.019-.038.035s-.008.035-.002.051c.001.004.131.353.243.628l.242.589z"/><path fill="#fff" style="fill:var(--color4,#fff)" d="M8.513 16.122a.258.258 0 0 0 .161.241.26.26 0 0 0 .285-.056.263.263 0 0 0 .057-.285.262.262 0 0 0-.503.099zM9.027 20.268a.258.258 0 0 0 .161.241.26.26 0 0 0 .285-.056.256.256 0 0 0 .057-.284.262.262 0 0 0-.503.099zM9.549 29.126a.258.258 0 0 0 .161.241.26.26 0 0 0 .341-.341.262.262 0 0 0-.503.1z"/></symbol><symbol id="aetna" viewBox="0 0 93 32"><path fill="#7d3f98" style="fill:var(--color8,#7d3f98)" d="M11.836 13.847c-.061-.937-.122-1.862-.161-2.786 0-.081.126-.223.218-.246.803-.191 1.603-.41 2.419-.527a16.782 16.782 0 0 1 4.404-.065l-.078-.008c.746.088 1.473.247 2.15.578 1.115.546 1.732 1.46 1.943 2.608.138.753.15 1.529.191 2.296.012.23.051.323.317.323.668 0 1.336.019 2.004.055.267.014.36-.05.396-.322.14-1.051.425-2.063 1.002-2.98a4.932 4.932 0 0 1 2.771-2.119c2.203-.69 4.438-.735 6.652-.07 1.313.394 2.312 1.193 2.665 2.534.38 1.445.196 2.8-.965 3.895-.717.678-1.636.987-2.595 1.19-1.458.308-2.935.275-4.413.243-.129-.003-.259 0-.385 0-.171 1.022.372 2.32 1.532 2.893.945.468 1.956.531 2.986.442a8.179 8.179 0 0 0 3.084-.915 1.5 1.5 0 0 1 .065.256c.047.82.083 1.636.135 2.453.013.209-.05.337-.266.382-.896.188-1.784.446-2.69.548-1.551.176-3.11.145-4.653-.152-1.448-.279-2.733-.835-3.658-2.002-.687-.868-1.015-1.876-1.21-2.934-.05-.268-.069-.542-.131-.807-.02-.084-.133-.206-.208-.209-.758-.034-1.519-.047-2.275-.067-.176-.005-.214.082-.221.234-.087 1.716-.092 3.432.068 5.145.016.176.04.346.061.541-.093.015-.168.032-.243.036-1.98.097-3.959.206-5.939.283-1.267.049-2.53.013-3.751-.382-1.523-.492-2.405-1.513-2.596-3.039a6.54 6.54 0 0 1 .019-1.895l-.005.037c.203-1.19 1.012-1.959 2.112-2.468.95-.44 1.964-.664 3.006-.748.866-.069 1.737-.088 2.606-.113.198-.006.279-.054.258-.248-.042-.397-.04-.802-.122-1.19-.207-1.007-.855-1.512-1.914-1.598-1.539-.127-2.967.228-4.344.852a1.486 1.486 0 0 1-.128.055l-.01.003a.457.457 0 0 1-.067.005l-.036-.001h.002zm19.487 2.351.137.001c.685 0 1.345-.108 1.964-.307l-.045.013c.994-.308 1.474-1.46 1.028-2.376a1.572 1.572 0 0 0-.638-.654l-.008-.004c-1.088-.564-2.543-.069-3.069 1.005-.318.649-.375 1.347-.415 2.049-.008.144.04.216.2.222.282.013.564.035.847.051zm-12.949 5.603V18.87c0-.126 0-.254.005-.38.004-.17-.099-.222-.253-.211-.573.04-1.158.026-1.716.135-1.368.269-1.921 1.226-1.518 2.505.15.477.482.757.958.886.835.223 1.673.152 2.524-.003zm37.7 2.481h-4.74c.166-4.57.204-9.126-.008-13.695.44-.024.862-.039 1.284-.071 1.421-.108 2.84-.25 4.262-.326 1.534-.082 3.074-.136 4.575.299 1.883.545 2.733 1.677 2.939 3.436.117.993.061 2.004.079 3.007.026 1.784.04 3.571.073 5.354.01.546.066 1.089.099 1.634.006.113 0 .228 0 .36h-4.725a1.865 1.865 0 0 1-.021-.238v-.003c.049-2.007.121-4.016.144-6.024a37.193 37.193 0 0 0-.102-3.308l.007.123c-.102-1.347-.696-1.889-2.088-1.918-.558-.011-1.118.132-1.677.206-.173.023-.22.127-.22.293.008 2.993.006 5.987.019 8.981 0 .535.065 1.069.098 1.605.006.081.001.17.001.285zM67.84 13.896c-.045-.829-.094-1.613-.129-2.4-.028-.632-.033-.679.625-.816 1.004-.209 2.019-.403 3.039-.499 1.227-.117 2.465-.109 3.689.095 1.174.196 2.254.57 2.989 1.551.464.61.757 1.373.795 2.202v.009a48.419 48.419 0 0 1 .031 3.753l.002-.072c-.051 1.998-.156 3.995.047 5.992l.061.59c-.304 0-.575-.012-.844 0-1.332.067-2.664.15-3.996.211-1.584.073-3.169.187-4.737-.207-1.729-.434-2.774-1.569-2.981-3.284-.105-.865-.098-1.712.307-2.518.471-.933 1.286-1.484 2.253-1.85 1.249-.472 2.562-.622 3.892-.66.382-.012.85-.021 1.319-.023h.017c.137 0 .254-.011.235-.18-.061-.529-.061-1.078-.207-1.585-.232-.802-.902-1.2-1.839-1.274-1.495-.116-2.888.219-4.232.812-.093.045-.184.087-.336.155zm6.522 7.902a.35.35 0 0 0 .03-.079l.001-.003c0-1.071-.006-2.142-.005-3.213 0-.186-.105-.239-.27-.227-.552.038-1.113.033-1.654.128-1.196.212-1.736.87-1.677 1.957.047.865.472 1.366 1.315 1.505a5.83 5.83 0 0 0 2.26-.069zm-25.088-.49c.06.916.122 1.811.186 2.704.01.143.012.268-.188.303-1.755.307-3.511.479-5.245-.087-1.198-.391-1.94-1.221-2.229-2.391a6.909 6.909 0 0 1-.196-1.658v-.02.001c0-2.108.028-4.215.06-6.323.005-.281-.074-.38-.371-.365-.41.022-.823.006-1.269.006 0-.737-.008-1.437.013-2.136 0-.066.177-.158.285-.183.834-.19 1.601-.495 2.164-1.149.564-.655.81-1.43.981-2.24.061-.285.105-.573.16-.878h2.632l-.165 3.673h.388c.749 0 1.498.005 2.247 0 .193 0 .271.05.269.246a113.567 113.567 0 0 0 0 2.495l-.001-.065c0 .2-.087.244-.275.243-.779-.007-1.558.006-2.338-.007-.25-.004-.328.076-.327.318.01 1.815-.011 3.629.019 5.444.008.499.116 1.005.25 1.491.109.399.441.636.865.745.623.158 1.119.126 2.083-.166zm32.015-10.325c0 .279.008.56-.005.839-.004.077-.072.151-.11.227-.032-.07-.09-.141-.091-.212-.009-.36-.004-.72 0-1.08 0-.048.008-.095.013-.154.226-.09.357-.036.43.195.094.305.212.603.32.905l.087.008c.116-.312.23-.625.348-.937.087-.23.091-.228.411-.168 0 .43.004.866-.005 1.302 0 .048-.071.095-.109.142-.033-.05-.091-.099-.093-.15-.009-.306-.004-.614-.004-.92l-.081-.015c-.118.304-.23.609-.356.91-.028.068-.106.116-.161.175-.049-.054-.118-.101-.145-.164-.126-.303-.24-.61-.358-.915l-.091.013zm-.611-.01a1.57 1.57 0 0 1-.221-.106l.008.004c-.055-.038-.09-.123-.147-.137-.182-.041-.416-.116-.506.109-.098.24.133.279.309.327.118.029.234.063.348.104.304.121.397.485.132.654-.179.117-.451.132-.679.122s-.385-.156-.425-.475c.113.064.182.1.248.14.105.066.2.168.314.192.178.037.392.036.449-.186.061-.243-.154-.28-.329-.33a3.03 3.03 0 0 1-.399-.113l.022.007c-.304-.13-.332-.468-.067-.657.352-.247.838-.097.944.347z"/></symbol><symbol id="unitedhealthcare" viewBox="0 0 93 32"><path fill="#002677" style="fill:var(--color7,#002677)" d="M11.365 27.43c.795.275 1.63.418 2.478.405 3.729 0 6.324-2.705 6.324-7.856V4.619l1.421-.68V20.24c0 5.255-2.7 8.314-6.533 8.314a6.565 6.565 0 0 1-3.69-1.124zm-1.629-1.569c.861.288 1.721.471 2.477.471 3.13 0 5.216-1.974 5.216-6.419V5.795l1.395-.667v14.903c0 4.653-2.36 7.046-5.633 7.046-1.2 0-2.426-.445-3.456-1.216zm-.978-1.386c.664.222 1.368.34 2.073.366 2.438 0 3.938-1.334 3.938-4.85V6.971l1.369-.667v13.464c0 3.948-1.8 5.726-4.381 5.726h-.055a4.741 4.741 0 0 1-2.954-1.027l.01.008zm4.707-4.104V7.521l-6.038 2.731v10.432c0 1.987 1.252 3.32 3.091 3.32s2.947-1.36 2.947-3.634zM29.347 7.494v4.784c0 1.765 1.043 3.151 3.038 3.151 1.708 0 2.999-1.268 2.999-3.19V7.611a.92.92 0 0 1 .887-.954h.013l.183-.013v-.457h-2.999v.457l.196.013a.92.92 0 0 1 .9.919v.023-.001 4.498c0 1.464-.756 2.353-1.943 2.353s-1.903-.941-1.903-2.366V7.481c0-.497.273-.797.834-.823l.183-.013v-.457h-3.416v.457l.195.013c.561.052.835.326.835.837zm4.055 10.222.196.013c.482.026.834.222.834.758v2.811h-3.377v-2.81c0-.549.365-.719.834-.759l.183-.013v-.458h-3.416v.458l.195.013c.483.026.834.222.834.758v6.589c0 .549-.365.733-.834.759l-.195.013v.457h3.416v-.457l-.183-.013c-.483-.04-.834-.222-.834-.759v-3.072h3.364v3.072c0 .549-.365.733-.835.759l-.196.013v.457h3.416v-.457l-.183-.013c-.47-.04-.834-.222-.834-.759v-6.588c0-.549.365-.719.834-.758l.183-.013v-.458H33.4v.458zm3.064-8.863v.432l.261.013c.392.026.639.222.639.758v3.974c0 .536-.274.732-.704.759l-.196.013v.444h3.051v-.444l-.182-.013c-.443-.026-.704-.222-.704-.758v-2.118c.026-1.556.691-2.484 1.486-2.484.6 0 1.004.419 1.004 1.216v3.373c0 .536-.273.732-.704.758l-.196.013v.444h3.051v-.444l-.183-.013c-.443-.026-.704-.222-.704-.758v-3.529c0-1.007-.613-1.843-1.839-1.843-.861 0-1.617.523-1.904 1.438V8.672l-2.178.183zm17.616 6.524c1.304 0 2.034-.889 2.334-1.896l-.561-.157c-.261.693-.704 1.242-1.604 1.242-1.043 0-1.747-.994-1.747-2.575h4.003v-.379c0-1.66-.977-3.006-2.555-3.006-1.682 0-2.804 1.62-2.804 3.386s1.082 3.386 2.934 3.386zm-.143-6.039c.704 0 1.161.667 1.213 2.013h-2.634c.131-1.242.652-2.013 1.421-2.013zm-6.194 4.457c0 1.007.599 1.582 1.578 1.582.9 0 1.499-.667 1.76-1.608l-.469-.13c-.183.549-.483.876-.887.876-.548 0-.717-.392-.717-.863V9.469h1.76v-.667h-1.76V6.815h-.639c-.248 1.503-1.004 2.039-1.8 2.209v.458h1.187l-.013 4.314zm-2.699-6.157a.86.86 0 0 0 .822-.889.864.864 0 0 0-.822-.823.83.83 0 0 0-.822.836.824.824 0 0 0 .822.876c-.013 0-.013 0 0 0zm-.6 2.418v3.974c0 .536-.273.732-.704.759l-.196.013v.444h3.052v-.444l-.183-.013c-.443-.026-.704-.222-.704-.758V8.684l-2.23.17v.432l.326.013c.391 0 .639.209.639.758zm15.347 5.321c.848 0 1.513-.444 1.786-1.19v1.059h2.152v-.431l-.182-.013c-.443-.026-.705-.222-.705-.758V6.031l-2.191.196v.432l.287.013c.392.013.639.222.639.758v2.327c-.287-.719-.938-1.151-1.786-1.151-1.682 0-2.647 1.622-2.647 3.386s.952 3.386 2.647 3.386zm.209-6.039c.952 0 1.577 1.033 1.577 2.64s-.613 2.641-1.577 2.641c-.9 0-1.5-1.02-1.5-2.641s.6-2.64 1.5-2.64zM78.961 19.69c-.744 0-1.395.497-1.669 1.373v-1.321l-2.164.17v.432l.261.013c.391.026.639.222.639.759v3.974c0 .549-.261.732-.704.758l-.195.013v.444h3.051v-.445l-.183-.013c-.443-.026-.704-.222-.704-.758v-2.17c.026-1.608.717-2.628 1.578-2.628l.032-.001a.55.55 0 0 1 .398.171.69.69 0 0 0-.365.601c0 .379.3.68.678.68s.678-.314.678-.745c0-.798-.613-1.308-1.33-1.308zm4.147-.025c-1.682 0-2.804 1.608-2.804 3.386s1.082 3.386 2.934 3.386c1.304 0 2.034-.89 2.334-1.896l-.56-.157c-.261.693-.705 1.242-1.604 1.242-1.043 0-1.747-.993-1.747-2.575h4.003v-.379c0-1.66-.978-3.006-2.555-3.006zm-1.435 2.745c.13-1.255.639-2.013 1.421-2.013.704 0 1.161.667 1.213 2.013h-2.634zm-7.641 2.823V21.86c0-1.385-.861-2.196-2.321-2.196-1.252 0-2.36.823-2.36 1.765l-.001.026c0 .368.298.666.665.666.378 0 .691-.287.691-.666a.678.678 0 0 0-.352-.602c.235-.327.639-.523 1.147-.523.796 0 1.265.588 1.265 1.583v.3l-1.904.797c-1.278.524-1.708.994-1.708 1.83 0 .968.691 1.582 1.787 1.582.808 0 1.526-.51 1.812-1.268v.196c0 .667.47 1.059 1.239 1.059.274 0 .547-.039.809-.118v-.431c-.535.065-.77-.144-.77-.628zm-1.265-1.463c-.065 1.137-.625 1.896-1.421 1.896-.561 0-.926-.393-.926-.981 0-.522.287-.941.822-1.176l1.526-.68v.941zm-16.82.928c-.183.536-.47.876-.887.876-.548 0-.717-.392-.717-.863v-4.183h1.761v-.666h-1.761v-1.988h-.639c-.248 1.503-1.004 2.039-1.8 2.21v.457h1.187v4.314c0 1.007.599 1.583 1.577 1.583.9 0 1.5-.667 1.761-1.609l-.483-.13zm-8.176.535V21.86c0-1.385-.861-2.196-2.321-2.196-1.251 0-2.36.823-2.36 1.765l-.001.026c0 .368.298.666.665.667.378 0 .691-.287.691-.666a.678.678 0 0 0-.352-.602c.234-.327.639-.523 1.147-.523.795 0 1.265.588 1.265 1.583v.3l-1.904.797c-1.278.524-1.708.994-1.708 1.83 0 .968.691 1.582 1.786 1.582.809 0 1.526-.51 1.812-1.268v.196c0 .667.47 1.059 1.239 1.059.273 0 .547-.039.809-.118v-.431c-.522.065-.77-.144-.77-.628zm-1.252-1.463c-.065 1.137-.625 1.896-1.421 1.896-.561 0-.926-.393-.926-.981 0-.522.287-.941.822-1.176l1.526-.68v.941zM66.6 25.613c-1.043 0-1.747-.994-1.747-2.576 0-1.608.691-2.628 1.734-2.628.47 0 .822.157 1.043.445a.725.725 0 0 0-.326.587v.001c0 .379.3.68.678.68.392 0 .678-.314.678-.745 0-.771-.769-1.726-2.152-1.726-1.917 0-3.025 1.608-3.025 3.386 0 1.765 1.083 3.386 2.934 3.386 1.278 0 1.995-.849 2.282-1.817l-.561-.17c-.234.667-.665 1.177-1.538 1.177zm-15.569-.524v-7.986l-2.19.183v.432l.287.013c.391.013.639.222.639.758v6.602c0 .549-.273.732-.704.758l-.196.013v.444h3.052v-.431l-.183-.013c-.431-.04-.704-.236-.704-.771zm11.292 0V21.56c0-1.007-.613-1.843-1.839-1.843-.861 0-1.617.51-1.904 1.438v-4.052l-2.191.183v.432l.287.013c.391.013.639.222.639.758v6.602c0 .549-.273.732-.704.758l-.196.013v.444h3.038v-.431l-.182-.013c-.443-.026-.705-.222-.705-.759v-2.118c.026-1.542.691-2.483 1.487-2.483.6 0 1.004.418 1.004 1.216v3.385c0 .549-.274.733-.704.758l-.196.013v.445h3.051v-.445l-.183-.013c-.443-.04-.704-.236-.704-.771zm-22.454-5.424c-1.681 0-2.803 1.621-2.803 3.386s1.082 3.386 2.934 3.386c1.303 0 2.034-.89 2.334-1.896l-.56-.157c-.261.693-.704 1.242-1.604 1.242-1.043 0-1.747-.993-1.747-2.575h4.003v-.379c0-1.66-.991-3.006-2.556-3.006zm-1.434 2.745c.13-1.255.639-2.013 1.421-2.013.704 0 1.161.667 1.212 2.013h-2.634z"/></symbol><symbol id="cigna" viewBox="0 0 93 32"><path fill="#0982c6" style="fill:var(--color4,#0982c6)" d="M25.095 14.057c0 .209-.225.442-.517.795-1.001 1.203-3.216 3.344-3.216 8.653 0 2.748.461 3.885.461 5.176 0 .585-.124.894-.428.894-.708 0-1.9-2.903-1.9-6.369 0-7.274 4.677-9.304 5.396-9.304.145-.012.202.066.202.154zm-11.77-.165c.719 0 5.396 2.031 5.396 9.304 0 3.477-1.192 6.369-1.9 6.369-.315 0-.427-.309-.427-.894 0-1.292.461-2.428.461-5.176 0-5.309-2.226-7.45-3.215-8.653-.293-.353-.518-.585-.518-.795-.01-.077.056-.154.203-.154z"/><path fill="#f8971f" style="fill:var(--color5,#f8971f)" d="M17.406 15.348c0 .95.764 1.722 1.709 1.722s1.709-.773 1.709-1.722c0-.948-.764-1.722-1.709-1.722-.944 0-1.709.765-1.709 1.709v.014-.001z"/><path fill="#56b948" style="fill:var(--color6,#56b948)" d="M33.695 26.154c-2.428-1.468-6.127-2.991-11.478-3.477a6.461 6.461 0 0 0-.056.828c0 .177.034.408.034.453 5.228.331 8.949 1.424 11.468 2.307.036.02.077.035.121.044h.003c.023 0 .045-.022.045-.044.012-.033-.034-.055-.135-.111zM21.88 6.541c-.404-.365-.753-.917-.483-1.755.258-.806.888-1.457 1.551-1.645.45.519.596 1.413.337 2.218-.259.849-.855 1.115-1.406 1.181zm3.946 3.223c-.147-.497-.135-1.115.528-1.667.63-.519 1.484-.739 2.125-.541.09.652-.259 1.446-.888 1.965-.663.552-1.293.464-1.765.243zm.124 4.856c.169-.486.517-.983 1.36-1.071.798-.088 1.619.209 2.024.706-.292.574-1.023 1.026-1.821 1.115-.844.099-1.293-.31-1.563-.751zm-1.428 1.766c.27-.364.709-.695 1.439-.552.709.133 1.316.596 1.529 1.126-.404.419-1.146.618-1.855.475-.731-.144-1.001-.607-1.113-1.048zm-4.295-4.602c-.495-.431-.899-1.093-.585-2.108.304-.972 1.057-1.755 1.866-1.965.539.618.719 1.688.404 2.66-.314 1.015-1.034 1.335-1.686 1.413zm1.878 1.071c-.157-.563-.146-1.258.596-1.877.708-.585 1.675-.827 2.383-.607.101.728-.292 1.623-1.001 2.207-.742.629-1.439.529-1.978.276zm1.248-3.93c-.36-.563-.574-1.314.022-2.23.574-.861 1.54-1.435 2.384-1.424.36.762.225 1.855-.349 2.715-.595.927-1.382 1.038-2.057.938zm2.529 3.421c.012-.618.225-1.313 1.158-1.733.888-.397 1.945-.364 2.597.066-.112.773-.776 1.567-1.664 1.965-.933.408-1.619.099-2.091-.298zm-8.15-7.085c0-1.169.562-2.295 1.383-2.803.82.508 1.371 1.634 1.371 2.803 0 1.225-.685 1.811-1.371 2.131-.697-.32-1.383-.905-1.383-2.131zM4.376 26.265c0 .022.012.044.045.044.023 0 .067-.022.124-.044 2.518-.883 6.25-1.976 11.467-2.307.012-.044.034-.276.034-.453 0-.375-.045-.762-.056-.828-5.351.486-9.05 2.009-11.478 3.477-.09.055-.135.077-.135.111zM14.921 5.36c-.259-.806-.113-1.7.337-2.219.674.177 1.303.839 1.551 1.645.27.838-.079 1.391-.483 1.755-.539-.066-1.136-.332-1.405-1.181zm-4.295 4.161c-.63-.529-.977-1.313-.888-1.965.641-.198 1.495.012 2.125.541.663.552.675 1.169.528 1.667-.483.22-1.102.308-1.765-.243zm.079 5.861c-.81-.088-1.541-.541-1.821-1.115.404-.508 1.225-.795 2.023-.707.844.088 1.192.585 1.36 1.071-.269.431-.719.839-1.562.751zm1.866 2.053c-.708.133-1.45-.066-1.844-.475.214-.529.82-.993 1.529-1.126.742-.143 1.169.188 1.439.552-.113.442-.382.905-1.125 1.048zm3.722-7.064c-.304-.972-.135-2.042.405-2.66.809.209 1.562 1.004 1.866 1.965.315 1.015-.09 1.666-.585 2.108-.652-.077-1.36-.397-1.686-1.413zm-2.159 2.218c-.708-.585-1.102-1.479-1.001-2.207.72-.221 1.676.022 2.384.607.742.618.753 1.314.596 1.876-.54.243-1.237.342-1.979-.276zm-1.338-4.58c-.573-.861-.708-1.965-.348-2.715.854-.011 1.821.552 2.383 1.424.596.905.382 1.666.023 2.23-.663.077-1.45-.033-2.057-.938zm-2.552 4.625c-.888-.397-1.562-1.192-1.664-1.965.663-.431 1.709-.464 2.597-.066.933.419 1.147 1.115 1.158 1.733-.472.408-1.158.717-2.091.298z"/><path fill="#0982c6" style="fill:var(--color4,#0982c6)" d="M64.016 22.689v-6.733c0-.905-.09-2.627-.112-3.024h2.125l.101 1.368h.045c.247-.386 1.046-1.589 2.9-1.589 2.237 0 3.485 1.612 3.485 3.631v6.336h-2.372v-5.873c0-1.236-.708-2.174-1.911-2.174-1.248 0-1.911.982-1.911 2.174v5.872h-2.349v.012zm-13.85-9.724h-2.372v9.724h2.372v-9.724zm33.794 9.724c-.079-.541-.304-1.976-.304-3.212v-6.324c-.371-.088-1.72-.442-3.26-.442-4.013 0-5.745 2.639-5.745 5.497 0 2.627 1.349 4.691 3.924 4.691 1.889 0 2.732-1.203 3.046-1.833h.056c.022.298.112 1.336.134 1.623h2.147zm-2.664-4.824c0 2.23-.888 3.157-2.17 3.157-1.293 0-2.024-1.082-2.024-2.969 0-1.932 1.136-3.532 3.216-3.532.427 0 .731.044.989.099v3.245h-.011zm-35.864 2.439c-.64.298-1.675.497-2.675.497-2.721 0-4.733-1.91-4.733-4.823 0-2.892 1.99-4.823 4.733-4.823 1.36 0 2.327.32 2.676.485V9.554c-.596-.221-1.563-.442-2.923-.442-4.227 0-7.071 2.87-7.071 6.854 0 3.775 2.619 6.854 7.071 6.854 1.304 0 2.282-.198 2.923-.43v-2.086zm13.66 1.215v.728c0 1.987-1.247 2.76-2.799 2.76-1.395 0-2.417-.408-2.744-.519v1.965c.27.066 1.394.419 3.002.419 2.867 0 4.778-1.159 4.778-5.132v-8.576c-.371-.088-1.709-.442-3.261-.442-4.013 0-5.745 2.639-5.745 5.497 0 2.627 1.349 4.691 3.924 4.691 1.698 0 2.518-1.005 2.788-1.38h.056v-.011zm-.124-3.654c0 2.23-.888 3.157-2.181 3.157s-2.024-1.082-2.024-2.969c0-1.932 1.125-3.532 3.215-3.532.428 0 .731.044.99.099v3.245zm-11.456-7.45c0 .784.652 1.413 1.473 1.413.81 0 1.462-.629 1.462-1.413s-.652-1.413-1.462-1.413c-.809 0-1.472.64-1.472 1.413zm40.81 11.987a1.29 1.29 0 0 1-.924.386h-.01.001c-.371 0-.675-.133-.933-.386a1.236 1.236 0 0 1-.382-.895v-.022.001c0-.353.124-.662.382-.916s.562-.375.933-.375h.025c.355 0 .676.143.908.376.235.223.382.538.382.887v.03-.001c0 .354-.123.663-.382.916zm-1.743-1.711c-.225.221-.326.474-.326.783s.112.574.326.795c.225.221.483.332.798.332s.585-.111.798-.332c.225-.221.326-.485.326-.794v-.016c0-.301-.125-.573-.326-.767a1.108 1.108 0 0 0-.798-.332 1.2 1.2 0 0 0-.798.332zm.776.077c.18 0 .315.022.393.055.146.055.225.177.225.364 0 .133-.045.221-.147.276a.483.483 0 0 1-.214.066.37.37 0 0 1 .247.144c.049.06.079.137.079.221v.21c0 .033.011.066.011.077l.011.022h-.236v-.176c0-.166-.045-.276-.134-.32-.056-.033-.147-.044-.282-.044h-.202v.563h-.259v-1.424h.506v-.033zm.281.221a.727.727 0 0 0-.315-.055h-.214v.519h.236a.727.727 0 0 0 .248-.033c.101-.044.146-.111.146-.221-.012-.099-.034-.176-.101-.209z"/></symbol><symbol id="blue-crosshield" viewBox="0 0 93 32"><path fill="#fff" style="fill:var(--color1,#fff)" d="M10.759 20.675c2.682 0 4.856-2.147 4.856-4.796s-2.174-4.795-4.856-4.795-4.856 2.147-4.856 4.795 2.174 4.796 4.856 4.796zM28.224 9.754c-2.081 0-5.264-.967-5.264-.967s-.694 1.773-.694 4.191 2.04 8.785 6.161 10.397c0 0 5.876-3.667 5.876-10.075 0-3.828-.571-4.513-.571-4.513s-3.428.967-5.509.967z"/><path fill="#231f20" style="fill:var(--color2,#231f20)" d="M39.613 7.147h2.833c1.35-.085 2.702.468 2.702 1.913 0 .808-.567 1.36-1.308 1.615.959.212 1.656.849 1.656 1.912 0 1.445-1.874 1.997-3.007 1.912h-2.877V7.146zm2.877 2.932c.698 0 1.046-.254 1.046-.849s-.392-.85-1.046-.85h-1.264v1.743h1.264v-.042zm0 3.146c.741 0 1.264-.127 1.264-.977s-.522-.977-1.264-.977h-1.264v1.955h1.264zm5.579-6.078v7.311h-1.57V7.147h1.569zm4.75 6.673c-.349.467-.828.764-1.613.764-.523 0-1.526-.382-1.7-1.105-.087-.297-.087-.637-.087-.807V9.357h1.569v3.06c0 .553.175 1.19.915 1.19.479 0 .915-.425.915-1.19v-3.06h1.569v4.165c0 .297.044.595.044.893h-1.569l-.044-.595zm4.315-1.488c0 .681.087 1.275.915 1.275.523 0 .828-.212.959-.68h1.395c-.131 1.275-1.133 1.658-2.353 1.658-1.787 0-2.528-.978-2.528-2.678 0-1.53.915-2.72 2.528-2.72.959 0 1.787.34 2.223 1.232.131.298.218.595.262.893s.044.638.044.977h-3.443v.042zm1.83-1.02c0-.553-.175-1.062-.915-1.062-.698 0-.872.51-.915 1.062h1.83zm6.887-1.827c0-.766-.479-1.403-1.438-1.403-1.133 0-1.438 1.658-1.438 2.678s.305 2.678 1.438 2.678c.959 0 1.438-.638 1.438-1.402h1.7c-.087 1.827-1.438 2.508-3.138 2.508-2.179 0-3.138-1.658-3.138-3.825 0-2.125.959-3.825 3.138-3.825 1.743 0 3.095.68 3.138 2.508h-1.7v.085zm3.966-.128.044.935c.349-.808 1.002-1.02 1.787-.977v1.36h-.698c-.261 0-.61.17-.741.382-.175.297-.218.553-.218.893v2.508h-1.569v-4.08c0-.212-.044-.637-.044-1.02h1.438zm5.23 5.27c-1.7 0-2.746-1.105-2.746-2.72s1.002-2.72 2.746-2.72c1.7 0 2.746 1.105 2.746 2.72s-1.046 2.72-2.746 2.72zm0-1.019c.959 0 1.133-.893 1.133-1.7s-.175-1.7-1.133-1.7-1.133.893-1.133 1.7c.044.808.175 1.7 1.133 1.7zm6.494-2.89c0-.34-.349-.51-.698-.51-.436 0-.61.128-.61.468 0 .807 3.007.34 3.007 2.252 0 1.105-1.395 1.658-2.353 1.658-1.22 0-2.266-.468-2.31-1.616h1.438c.044.383.392.638.872.638.436 0 .741-.17.741-.553 0-.425-.741-.595-1.046-.637-1.002-.213-1.918-.468-1.918-1.615 0-1.062 1.307-1.53 2.223-1.53 1.09 0 2.049.382 2.092 1.53h-1.438v-.085zm5.187 0c0-.34-.349-.51-.698-.51-.436 0-.61.128-.61.468 0 .807 3.007.34 3.007 2.252 0 1.105-1.395 1.658-2.353 1.658-1.22 0-2.266-.468-2.31-1.616h1.438c.044.383.392.638.872.638.436 0 .741-.17.741-.553 0-.425-.741-.595-1.046-.637-1.002-.213-1.918-.468-1.918-1.615 0-1.062 1.307-1.53 2.223-1.53 1.09 0 2.049.382 2.092 1.53h-1.438v-.085zm-47.115 6.375h2.833c1.35-.085 2.702.468 2.702 1.912 0 .808-.567 1.36-1.308 1.615.959.212 1.656.85 1.656 1.912 0 1.445-1.874 1.998-3.007 1.913h-2.877v-7.353zm2.877 2.932c.698 0 1.046-.255 1.046-.849s-.392-.851-1.046-.851h-1.264v1.743l1.264-.043zm0 3.145c.741 0 1.264-.128 1.264-.977s-.522-.977-1.264-.977h-1.264v1.955h1.264zm5.579-6.077v7.311h-1.57v-7.311h1.569zm4.75 6.673c-.349.467-.828.765-1.613.765-.523 0-1.526-.383-1.7-1.148-.087-.297-.087-.637-.087-.808V19.26h1.569v3.103c0 .553.175 1.19.915 1.19.479 0 .915-.425.915-1.19v-3.06h1.569v4.166c0 .297.044.595.044.892h-1.569l-.044-.595zm4.315-1.488c0 .68.087 1.275.915 1.275.523 0 .828-.212.959-.68h1.395c-.131 1.275-1.133 1.658-2.353 1.658-1.787 0-2.528-.977-2.528-2.678 0-1.53.915-2.721 2.528-2.721.959 0 1.787.34 2.223 1.233.131.297.218.595.262.892s.044.638.044.977l-3.443.042zm1.83-1.02c0-.553-.175-1.062-.915-1.062-.698 0-.872.51-.915 1.062h1.83zm6.669-2.083c-.044-.722-.479-1.105-1.264-1.105-.61 0-1.177.298-1.177.935 0 .808.741.892 1.395 1.02 1.133.298 2.833.595 2.833 2.083 0 1.827-1.613 2.465-3.226 2.465-1.7 0-2.92-.638-2.877-2.508h1.656c-.044.808.436 1.36 1.264 1.36.654 0 1.482-.212 1.482-.977 0-.849-1.09-.935-1.7-1.105-1.046-.254-2.484-.721-2.484-2.039 0-1.658 1.569-2.423 3.138-2.423 1.438 0 2.572.765 2.572 2.252l-1.613.042zm2.876 5.228v-7.311h1.569v2.847c.305-.467.829-.765 1.613-.765.523 0 1.526.383 1.7 1.105.087.297.087.637.087.808v3.315h-1.526v-3.06c0-.553-.174-1.147-.915-1.147-.479 0-.915.425-.915 1.147v3.06h-1.613zm7.976-7.31v1.317h-1.656v-1.317h1.656zm-.087 2.21v5.1h-1.569v-5.1h1.569zm2.746 2.975c0 .68.087 1.275.915 1.275.523 0 .828-.212.959-.68h1.395c-.131 1.275-1.133 1.658-2.353 1.658-1.787 0-2.528-.977-2.528-2.678 0-1.53.915-2.721 2.528-2.721.959 0 1.787.34 2.223 1.233.131.297.218.595.262.892s.044.638.044.977l-3.443.042zm1.787-1.02c0-.553-.175-1.062-.915-1.062-.698 0-.872.51-.915 1.062h1.83zm4.14-4.165v7.311h-1.569v-7.311h1.569zm4.969 0h1.569v6.332c0 .34.044.681.044 1.02h-1.569c0-.255-.044-.468-.044-.723-.349.595-.915.892-1.613.892-1.525 0-2.266-1.402-2.266-2.72 0-1.36.828-2.721 2.441-2.721.523 0 1.09.298 1.395.723l.044-2.805zm-1.134 6.46c.829 0 1.133-.977 1.133-1.7 0-.68-.261-1.7-1.133-1.7-1.002 0-1.133.892-1.133 1.7 0 .764.131 1.7 1.133 1.7zm.262-9.095h-.002a.477.477 0 0 1-.477-.467v-.001a.477.477 0 0 1 .477-.467h.003c.261 0 .479.212.479.467s-.175.468-.479.468zm0-1.063a.57.57 0 0 0-.567.553c0 .297.262.552.567.552s.567-.255.567-.553a.571.571 0 0 0-.567-.553z"/><path fill="#231f20" style="fill:var(--color2,#231f20)" d="M89.168 13.947h-.131v-.212h.175c.087 0 .174 0 .174.085 0 .128-.13.128-.218.128zm.305-.127c0-.127-.044-.17-.218-.17h-.305v.638h.087v-.298h.131l.218.298h.087l-.174-.298c.087 0 .174-.042.174-.17zm3.051 10.54h-.002a.478.478 0 0 1-.478-.467v-.001c0-.255.218-.468.479-.468s.479.212.479.468a.478.478 0 0 1-.478.467h-.002zm0-1.062c-.305 0-.567.255-.567.553s.262.553.567.553.567-.255.567-.553a.57.57 0 0 0-.567-.553z"/><path fill="#231f20" style="fill:var(--color2,#231f20)" d="M92.481 23.85h-.13v-.213h.174c.087 0 .175 0 .175.086 0 .127-.087.127-.218.127zm.349-.128c0-.127-.044-.17-.218-.17h-.305v.638h.087v-.297h.13l.175.297h.087l-.175-.297c.131 0 .218-.042.218-.17z"/><path fill="#008bcc" style="fill:var(--color3,#008bcc)" d="M16.421 22.759c-.563 0-.996.428-.996.983s.433.983.996.983c.52 0 .995-.427.995-.983s-.433-.983-.995-.983zm0 1.796c-.476 0-.823-.342-.823-.813s.346-.812.823-.812c.476 0 .822.342.822.812s-.303.813-.822.813z"/><path fill="#008bcc" style="fill:var(--color3,#008bcc)" d="M16.94 23.486c0-.214-.087-.3-.39-.3h-.476v1.111h.13v-.47h.26l.303.47h.173l-.346-.47c.216-.043.346-.128.346-.342zm-.52.171h-.216v-.342h.303c.13 0 .26 0 .26.171.044.214-.216.171-.346.171zm-7.793-6.456c-.043 0-.043 0-.086.043l-1.645 2.48a4.4 4.4 0 0 0 1.688.342 4.399 4.399 0 0 0 1.717-.353l-.029.011-1.645-2.48c.043-.043 0-.043 0-.043zm-1.602-2.052-2.467-.214c-.083.288-.13.619-.13.96v.024-.001c0 1.026.39 1.967.995 2.694l1.732-3.249c.086-.086.043-.171-.13-.214z"/><path fill="#008bcc" style="fill:var(--color3,#008bcc)" d="M12.524 12.027V7.196H4.688v4.831H-.205v7.739h4.893v4.831h7.836v-4.831h4.892v-7.738h-4.892zm-3.896-.897c1.948 0 3.636 1.111 4.372 2.779H9.536c-.476 0-.692-.3-.736-.513 0-.257.044-.342.26-.642a.62.62 0 0 0-.476-.983h-.001c-.563 0-.736.641-.476.983.216.3.259.385.259.642 0 .214-.216.513-.736.513H4.167c.822-1.625 2.511-2.779 4.459-2.779zm-4.849 4.788c0-.598.13-1.154.303-1.668l3.248.3c.606.086.692.684.519 1.026l-2.207 4.147c-1.126-.898-1.862-2.266-1.862-3.805zm7.49 4.019c-.78.513-1.688.77-2.684.77s-1.905-.3-2.684-.77l2.381-3.463c.173-.257.433-.214.606 0l2.381 3.463zm.346-.256-2.208-4.105c-.173-.342-.087-.941.52-1.026l3.247-.299c.217.513.304 1.111.304 1.667v.006a4.71 4.71 0 0 1-1.851 3.748l-.011.008z"/><path fill="#008bcc" style="fill:var(--color3,#008bcc)" d="M11.788 13.225c-.519-.599-1.212-1.069-1.991-1.283.259.385.043.941-.173 1.197-.043.042 0 .086 0 .086h2.164zm-1.558 1.924c-.173 0-.173.086-.13.171l1.732 3.249a4.216 4.216 0 0 0 .996-2.694 3.62 3.62 0 0 0-.13-.983l-2.467.256zm-2.771-3.164c-.78.214-1.472.684-1.992 1.282h2.164c.044 0 .044-.042 0-.086-.216-.299-.433-.812-.173-1.197zm25.716-4.789c-1.905.941-3.81 1.454-6.018 1.454s-4.113-.513-6.018-1.454c-1.256 2.437-1.428 6.371-.346 9.663 1.039 3.164 3.074 6.071 6.364 7.867 3.334-1.796 5.325-4.703 6.364-7.867 1.126-3.292.909-7.226-.346-9.663zm-.867 9.278c-.952 2.694-2.381 5.088-5.108 6.755-2.728-1.667-4.2-4.061-5.108-6.755-.823-2.395-1.04-5.217-.13-7.397 1.385.47 2.164.598 2.9.727.692.128 1.299.171 2.338.171.996 0 1.645-.086 2.338-.171.735-.128 1.558-.257 2.9-.727.866 2.181.692 5.002-.13 7.397z"/><path fill="#008bcc" style="fill:var(--color3,#008bcc)" d="M29.539 10.403c-.78.086-1.602.171-2.381.171s-1.559-.086-2.381-.171a26.077 26.077 0 0 1-2.567-.556l.186.043c-.563 1.624-.477 3.677 0 5.473.822 3.42 2.944 6.029 4.762 7.183 1.862-1.154 3.939-3.763 4.762-7.183.433-1.839.563-3.848 0-5.473-.823.214-1.559.428-2.381.513zm-2.815 10.56c-.043.172.044.257.044.343-.044.128-.13.086-.173 0a.631.631 0 0 1-.13-.428c-.043-.342.13-.471.216-.556s.173-.128.173-.128l.043.556c-.087 0-.173.043-.173.214zm.736.556c0 .086-.043.171-.216.171-.13 0-.216-.042-.216-.214-.043-.684-.043-1.924-.043-1.924s.173.042.303.128c.044 0 .13.086.217.171 0 .043.043.043.043.086-.039.441-.07.991-.085 1.544l-.001.038zm.563-1.282a1.078 1.078 0 0 1-.339.169l-.008.002v-.513s.044-.043.044-.128c-.044-.086-.39-.343-.563-.428a5.237 5.237 0 0 0-.61-.204l-.04-.009c-.433-.171-.606-.556-.433-.983.044-.171.26-.257.347-.3s.259-.086.259-.086l.044.599s-.044 0-.087.085c-.043.086.044.171.087.171.303.128.692.3.995.47.39.214.52.385.52.684.043.214-.087.385-.216.471zm-1.082-2.78c.303.042.39.042.649.086l-.044 1.197-.52-.256-.086-1.026zm1.732.256c-.044.214-.173.385-.39.514s-.476.128-.476.128v-.727s.043 0 .086-.042c.044-.042.044-.086.044-.128s-.044-.086-.087-.128c-.087-.043-.173-.043-.216-.043l-1.039-.128c-.606-.086-1.082-.471-1.039-1.069.044-.385.433-.513.736-.641l.216.428c.044.171.087.256.087.256s-.13.043-.13.129c0 .086.13.128.173.128.433.043 1.039.129 1.342.257.216.086.39.171.52.342.173.299.216.513.173.727zm-1.992-2.778s.13 0 .52.043c.26 0 .477.086.477.086l-.044 1.282c-.303-.042-.476-.086-.736-.128-.087-.47-.216-.641-.39-.983-.043-.086 0-.128 0-.128.044-.043.216-.086.216-.086l-.043-.086zm1.169 1.283s.042-.599.042-.898c.173-.043.217-.214.13-.342-.044-.086-.173-.128-.216-.128-.347-.086-.649-.086-.996-.129-.303-.043-.563-.086-.822-.128-.563-.129-1.082-.428-1.342-.941-.303-.642-.044-1.454.606-1.753.476-.257.995-.214 1.472 0 .173.042.259.214.346.342.043.042.13.085.173.171.044.042-.043.042-.043.042-.087.042-.477.042-.563 0h-.52c.13.086.303.171.476.256.087.043.173.043.26.086.043 0 .13.042.13.086s-.087.042-.173.086a.91.91 0 0 1-.476 0c-.26-.043-.39-.214-.563-.128-.13.085-.13.214-.086.384.043.257.303.343.52.428.736.256 1.558.086 2.251.47.259.128.606.428.649.727.216 1.197-1.256 1.367-1.256 1.367zm1.298-3.977c-.043.128-.086.128-.173.214-.173.171-.433.342-.692.556-.173.128-.304.214-.433.428a.645.645 0 0 0-.087.128c-.433-.085-.822-.085-1.169-.17v-.342s.39 0 .433-.257c0 0 0-.086-.043-.128s-.173-.086-.216-.086c.303.042.606.17.909.299a.942.942 0 0 0-.044-.171.457.457 0 0 0-.216-.128 6.887 6.887 0 0 0-.649-.086h.39c.086 0 .216-.042.216-.085.043-.043 0-.128-.087-.214l-.129-.128c-.044-.086-.13-.171-.173-.257-.087-.128-.433-.257-.433-.257s-.044-.214.043-.3c.044-.086.216-.086.26-.042.216.128.52.256.822.342.087.042.087.042.087.171.043.214-.044.513 0 .641 0 .042.086.042.086.042.303-.17.477-.427.78-.556.216-.086.606.086.519.385zm4.114 10.56c-.52 0-.953.428-.953.941s.433.941.952.941.952-.428.952-.941a.954.954 0 0 0-.952-.94zm0 1.754c-.477 0-.823-.342-.823-.813s.346-.812.822-.812c.477 0 .823.342.823.812s-.346.813-.823.813z"/><path fill="#008bcc" style="fill:var(--color3,#008bcc)" d="M33.78 23.486c0-.214-.087-.3-.39-.3h-.476v1.111h.13v-.47h.216l.303.471h.173l-.346-.471c.216-.042.39-.128.39-.342zm-.519.214h-.216v-.342h.303c.13 0 .26 0 .26.171s-.216.171-.347.171zm-7.013-11.758c.087.086.087.171.216.171.087 0 .13-.042.173-.086h.087c-.13-.128-.433-.128-.65-.171.087.086.13.043.173.086z"/></symbol><symbol id="burgerMenu" viewBox="0 0 32 32"><path fill="#f3f3e7" style="fill:var(--color1,#f3f3e7)" d="M5.926 0h20.148A5.926 5.926 0 0 1 32 5.926v20.148A5.926 5.926 0 0 1 26.074 32H5.926A5.926 5.926 0 0 1 0 26.074V5.926A5.926 5.926 0 0 1 5.926 0z"/><path fill="#2d2a26" style="fill:var(--color2,#2d2a26);stroke:var(--color2,#2d2a26)" stroke="#2d2a26" stroke-width=".593" d="M8.889 12.741h14.222a.296.296 0 1 0 0-.592H8.889a.296.296 0 1 0 0 .592zM8.889 16.296h14.222a.296.296 0 1 0 0-.592H8.889a.296.296 0 1 0 0 .592zM8.889 19.852h14.222a.296.296 0 1 0 0-.592H8.889a.296.296 0 1 0 0 .592z"/></symbol></defs></svg>