<svg aria-hidden="true" style="width:0;height:0;position:absolute;overflow:hidden" xmlns="http://www.w3.org/2000/svg"><defs><symbol id="burgerMenu" viewBox="0 0 32 32"><path fill="#f3f3e7" style="fill:var(--color1,#f3f3e7)" d="M5.926 0h20.148A5.926 5.926 0 0 1 32 5.926v20.148A5.926 5.926 0 0 1 26.074 32H5.926A5.926 5.926 0 0 1 0 26.074V5.926A5.926 5.926 0 0 1 5.926 0z"/><path fill="#2d2a26" style="fill:var(--color2,#2d2a26);stroke:var(--color2,#2d2a26)" stroke="#2d2a26" stroke-width=".593" d="M8.889 12.741h14.222a.296.296 0 1 0 0-.592H8.889a.296.296 0 1 0 0 .592zM8.889 16.296h14.222a.296.296 0 1 0 0-.592H8.889a.296.296 0 1 0 0 .592zM8.889 19.852h14.222a.296.296 0 1 0 0-.592H8.889a.296.296 0 1 0 0 .592z"/></symbol></defs></svg>