<svg
  aria-hidden="true"
  style="position: absolute; width: 0; height: 0; overflow: hidden;"
  version="1.1"
  xmlns="http://www.w3.org/2000/svg"
  xmlns:xlink="http://www.w3.org/1999/xlink"
>
<defs>
<symbol id="closeModal" viewBox="0 0 32 32">
<path stroke-linejoin="miter" stroke-linecap="butt" stroke-miterlimit="4" stroke-width="1.8824" d="M30.118 28.834l-12.834-12.834 12.834-12.834-1.283-1.283-12.834 12.834-12.834-12.834-1.283 1.283 12.834 12.834-12.834 12.834 1.283 1.283 12.834-12.834 12.834 12.834 1.283-1.283z"></path>
</symbol>
<symbol id="user" viewBox="0 0 32 32">
<path d="M16 0.001c-8.836 0-16 7.163-16 15.999s7.164 15.999 16 15.999c8.837 0 16-7.163 16-15.999s-7.163-15.999-16-15.999zM16 4.785c2.924 0 5.293 2.37 5.293 5.292s-2.369 5.292-5.293 5.292c-2.922 0-5.291-2.369-5.291-5.292s2.369-5.292 5.291-5.292zM15.996 27.816c-2.916 0-5.587-1.062-7.647-2.82-0.502-0.428-0.791-1.056-0.791-1.714 0-2.964 2.399-5.336 5.363-5.336h6.158c2.965 0 5.355 2.372 5.355 5.336 0 0.659-0.288 1.285-0.791 1.713-2.059 1.758-4.73 2.82-7.647 2.82z"></path>
</symbol>
<symbol id="tiktok" viewBox="0 0 32 32">
<path fill="#ecf0f1" style="fill: var(--color1, #ecf0f1)" d="M7.268 4h17.461c1.807 0 3.271 1.464 3.271 3.268v17.461c0 1.807-1.464 3.271-3.268 3.271h-17.464c-1.805 0-3.268-1.464-3.268-3.268v-17.464c0-1.805 1.464-3.268 3.268-3.268z"></path>
<path fill="#000" style="fill: var(--color2, #000)" d="M19.471 13.737c1.052 0.753 2.339 1.193 3.729 1.193v-2.674c-0.263 0-0.526-0.026-0.784-0.081v2.104c-1.391 0-2.677-0.443-3.727-1.193v5.456c0 2.729-2.214 4.943-4.945 4.943-1.018 0-1.966-0.307-2.753-0.836 0.898 0.917 2.151 1.487 3.534 1.487 2.732 0 4.945-2.214 4.945-4.943zM20.438 11.042c-0.536-0.586-0.888-1.344-0.966-2.182v-0.344h-0.742c0.188 1.063 0.826 1.974 1.708 2.526zM12.719 20.555c-0.299-0.393-0.461-0.875-0.461-1.37 0-1.247 1.013-2.26 2.263-2.26 0.232 0 0.464 0.036 0.685 0.107v-2.734c-0.258-0.034-0.521-0.049-0.781-0.044v2.128c-0.224-0.070-0.456-0.107-0.688-0.107-1.25 0-2.263 1.013-2.263 2.26 0.003 0.885 0.508 1.648 1.245 2.021z"></path>
<path fill="#000" style="fill: var(--color2, #000)" d="M18.69 13.086c1.049 0.753 2.336 1.193 3.727 1.193v-2.104c-0.776-0.167-1.461-0.57-1.979-1.135-0.883-0.549-1.521-1.461-1.706-2.523h-1.951v10.677c-0.005 1.245-1.016 2.253-2.26 2.253-0.734 0-1.388-0.349-1.802-0.891-0.737-0.372-1.242-1.138-1.242-2.021 0-1.247 1.010-2.26 2.26-2.26 0.24 0 0.471 0.039 0.688 0.107v-2.128c-2.682 0.057-4.841 2.247-4.841 4.94 0 1.346 0.539 2.565 1.409 3.456 0.789 0.529 1.734 0.836 2.753 0.836 2.732 0 4.945-2.211 4.945-4.94z"></path>
<path fill="#000" style="fill: var(--color2, #000)" d="M22.417 12.174v-0.57c-0.701 0.003-1.385-0.193-1.979-0.565 0.526 0.576 1.219 0.974 1.979 1.135zM18.729 8.516c-0.018-0.104-0.031-0.206-0.039-0.307v-0.344h-2.693v10.677c-0.003 1.245-1.013 2.253-2.26 2.253-0.367 0-0.711-0.086-1.018-0.24 0.414 0.542 1.068 0.891 1.802 0.891 1.245 0 2.255-1.008 2.26-2.253v-10.677zM14.424 14.253v-0.604c-0.227-0.031-0.453-0.047-0.68-0.047-2.732 0-4.945 2.214-4.945 4.943 0 1.711 0.87 3.219 2.193 4.104-0.872-0.891-1.409-2.109-1.409-3.456 0-2.693 2.156-4.883 4.841-4.94z"></path>
</symbol>
<symbol id="spotify1" viewBox="0 0 32 32">
<path fill="#12c64b" style="fill: var(--color1, #12c64b); stroke: var(--color2, #2d2a26)" stroke="#2d2a26" stroke-linejoin="miter" stroke-linecap="butt" stroke-miterlimit="4" stroke-width="0.7111" d="M31.319 15.723c0 8.487-6.888 15.368-15.385 15.368s-15.385-6.881-15.385-15.368c0-8.487 6.888-15.368 15.385-15.368s15.385 6.881 15.385 15.368z"></path>
<path fill="#fff" style="fill: var(--color3, #fff)" d="M21.62 21.535c-0.125 0.213-0.329 0.368-0.568 0.43s-0.493 0.028-0.706-0.096c-2.449-1.429-5.277-1.658-7.219-1.608-1.262 0.032-2.517 0.198-3.744 0.493-0.228 0.040-0.464-0.006-0.66-0.13s-0.339-0.316-0.401-0.539c-0.062-0.223-0.038-0.462 0.067-0.668s0.283-0.367 0.5-0.449c1.352-0.336 2.736-0.525 4.128-0.565 1.333-0.049 2.667 0.047 3.978 0.288 1.51 0.273 2.962 0.802 4.293 1.565 0.106 0.062 0.199 0.144 0.274 0.242s0.128 0.21 0.159 0.329 0.038 0.243 0.020 0.364c-0.017 0.122-0.059 0.239-0.122 0.344z"></path>
<path fill="#fff" style="fill: var(--color3, #fff)" d="M23.351 17.942c-0.097 0.167-0.236 0.305-0.404 0.401s-0.357 0.146-0.55 0.146c-0.196 0-0.388-0.052-0.556-0.152-2.9-1.692-6.248-1.965-8.55-1.894-1.495 0.038-2.981 0.234-4.434 0.584-0.278 0.065-0.571 0.021-0.816-0.125s-0.425-0.381-0.501-0.656-0.042-0.569 0.095-0.819c0.137-0.251 0.365-0.438 0.637-0.524 1.601-0.396 3.241-0.618 4.89-0.661 1.579-0.061 3.16 0.054 4.713 0.341 1.787 0.324 3.505 0.951 5.080 1.855 0.252 0.148 0.434 0.389 0.509 0.671s0.033 0.582-0.113 0.834z"></path>
<path fill="#fff" style="fill: var(--color3, #fff)" d="M25.593 14.006c-0.089 0.153-0.208 0.288-0.35 0.395s-0.303 0.186-0.475 0.231c-0.172 0.045-0.351 0.056-0.527 0.031s-0.346-0.083-0.499-0.173c-6.894-4.024-15.836-1.631-15.92-1.608-0.174 0.055-0.357 0.074-0.538 0.057s-0.358-0.071-0.518-0.158-0.301-0.205-0.414-0.348c-0.113-0.143-0.196-0.307-0.245-0.482s-0.060-0.359-0.036-0.54c0.025-0.18 0.085-0.354 0.179-0.511s0.217-0.292 0.364-0.4c0.147-0.107 0.315-0.184 0.492-0.225 1.96-0.482 3.966-0.753 5.983-0.806 1.936-0.072 3.874 0.068 5.779 0.418 2.191 0.394 4.299 1.159 6.232 2.262 0.155 0.089 0.291 0.208 0.399 0.35s0.188 0.304 0.234 0.476c0.046 0.173 0.057 0.352 0.033 0.529s-0.083 0.347-0.174 0.501z"></path>
</symbol>
<symbol id="rectangle" viewBox="0 0 113 32">
<path
        stroke-linejoin="miter"
        stroke-linecap="butt"
        stroke-miterlimit="4"
        stroke-width="0.64"
        stroke="#000"
        d="M1.92 0.32h-0.711l21.941 24.78c3.705 4.184 9.026 6.58 14.615 6.58h37.111c5.589 0 10.909-2.396 14.614-6.58l21.941-24.78h-109.511z"
      />
</symbol>
<symbol id="swab" viewBox="0 0 32 32">
<path
        fill="#fcfcf0"
        style="fill: var(--color1, #fcfcf0); stroke: var(--color16, #8abadd)"
        stroke="#8abadd"
        stroke-linejoin="miter"
        stroke-linecap="butt"
        stroke-miterlimit="4"
        stroke-width="2.56"
        d="M16 1.841c7.82 0 14.159 6.339 14.159 14.159s-6.339 14.159-14.159 14.159c-7.82 0-14.159-6.339-14.159-14.159s6.339-14.159 14.159-14.159z"
      />
<path
        fill="#fcfcf0"
        style="fill: var(--color1, #fcfcf0); stroke: var(--color3, #2d2a26)"
        stroke="#2d2a26"
        stroke-linejoin="miter"
        stroke-linecap="butt"
        stroke-miterlimit="4"
        stroke-width="0.4267"
        d="M16 2.459h0c7.478 0 13.541 6.063 13.541 13.541v0c0 7.478-6.063 13.541-13.541 13.541h-0c-7.479 0-13.541-6.063-13.541-13.541v-0c0-7.479 6.063-13.541 13.541-13.541z"
      />
<path
        fill="#2d2a26"
        style="fill: var(--color3, #2d2a26)"
        d="M17.099 5.899c0.043-0.259 0.229-0.349 0.59-0.289s0.509 0.206 0.466 0.466-0.234 0.353-0.591 0.292c-0.358-0.060-0.508-0.2-0.465-0.47z"
      />
<path
        fill="#2d2a26"
        style="fill: var(--color3, #2d2a26)"
        d="M20.84 7.394c-0.145 0.207-0.045 0.42 0.584 0.872 0.522 0.374 0.721 0.428 0.829 0.274s0.022-0.27-0.583-0.749c-0.815-0.642-1.056-1.016-0.747-1.454s0.832-0.255 1.556 0.264c0.724 0.519 1.042 1.023 0.703 1.506l-0.497-0.36c0.152-0.214-0.024-0.419-0.541-0.79-0.489-0.35-0.638-0.386-0.74-0.241s-0.010 0.262 0.53 0.699c0.733 0.588 1.176 0.968 0.829 1.462-0.367 0.521-0.931 0.277-1.646-0.236-0.793-0.569-1.17-1.044-0.774-1.607l0.497 0.359z"
      />
<path
        fill="#2d2a26"
        style="fill: var(--color3, #2d2a26)"
        d="M26.966 12.453l-2.524 0.364-0.417-0.74 1.206-1.499-1.899 0.27-0.415-0.737 1.598-2.005 0.325 0.577-1.272 1.546 1.987-0.281 0.37 0.656-1.255 1.593 1.968-0.32 0.329 0.576z"
      />
<path
        fill="#2d2a26"
        style="fill: var(--color3, #2d2a26)"
        d="M25.354 15.427l-0.172-1.422-0.535-0.193-0.081-0.672 2.502 0.935 0.1 0.825-2.206 1.519-0.081-0.676 0.473-0.316zM25.778 15.144l0.896-0.599-1.014-0.368 0.118 0.967z"
      />
<path
        fill="#2d2a26"
        style="fill: var(--color3, #2d2a26)"
        d="M24.895 19.633c-0.389-0.095-0.615-0.395-0.487-0.923l0.517-2.124 2.303 0.57-0.498 2.045c-0.128 0.528-0.434 0.624-0.773 0.54-0.165-0.044-0.309-0.149-0.403-0.293-0.083 0.088-0.188 0.151-0.304 0.184s-0.238 0.033-0.355 0.001zM25.073 19.042c0.243 0.061 0.279-0.085 0.318-0.245l0.333-1.382-0.487-0.121-0.337 1.38c-0.038 0.161-0.074 0.307 0.169 0.367h0.004zM26.182 17.529l-0.304 1.236c-0.039 0.159-0.075 0.305 0.166 0.364s0.272-0.090 0.311-0.249l0.3-1.232-0.473-0.12z"
      />
<path
        fill="#2d2a26"
        style="fill: var(--color3, #2d2a26)"
        d="M23.99 21.837c0.201 0.167 0.185 0.376-0.049 0.66s-0.432 0.34-0.634 0.173-0.185-0.381 0.046-0.663c0.231-0.282 0.432-0.34 0.637-0.17z"
      />
<path
        fill="#2d2a26"
        style="fill: var(--color3, #2d2a26)"
        d="M20.836 24.357c-0.104-0.23-0.337-0.25-1.040 0.075-0.582 0.27-0.728 0.416-0.65 0.587s0.218 0.155 0.933-0.135c0.959-0.39 1.4-0.414 1.622 0.074s-0.197 0.855-1.004 1.228c-0.807 0.373-1.4 0.399-1.644-0.139l0.555-0.256c0.109 0.239 0.373 0.189 0.949-0.078 0.546-0.252 0.651-0.36 0.577-0.526s-0.219-0.139-0.865 0.114c-0.871 0.347-1.418 0.544-1.669-0.006-0.267-0.581 0.227-0.952 1.025-1.321 0.884-0.409 1.48-0.5 1.765 0.128l-0.555 0.256z"
      />
<path
        fill="#2d2a26"
        style="fill: var(--color3, #2d2a26)"
        d="M13.408 27.148l0.973-2.378 0.843 0.014 0.67 1.808 0.729-1.79 0.841 0.014 0.897 2.408-0.658-0.010-0.67-1.889-0.772 1.868-0.749-0.012-0.713-1.896-0.727 1.872-0.662-0.010z"
      />
<path
        fill="#2d2a26"
        style="fill: var(--color3, #2d2a26)"
        d="M11.685 24.275l1.305 0.561 0.431-0.369 0.617 0.265-2.050 1.718-0.758-0.326-0.201-2.682 0.624 0.27 0.032 0.561zM11.716 24.786l0.066 1.080 0.823-0.702-0.889-0.378z"
      />
<path
        fill="#2d2a26"
        style="fill: var(--color3, #2d2a26)"
        d="M8.31 21.76c0.278-0.291 0.648-0.338 1.036 0.039l1.561 1.519-1.646 1.723-1.502-1.461c-0.388-0.377-0.317-0.693-0.075-0.947 0.121-0.122 0.283-0.195 0.454-0.204-0.033-0.117-0.035-0.24-0.005-0.358s0.091-0.225 0.177-0.311v0zM9.469 23.936l-0.905-0.88c-0.117-0.113-0.224-0.218-0.396-0.039s-0.062 0.282 0.058 0.399l0.905 0.88 0.338-0.36zM8.729 22.209c-0.174 0.18-0.067 0.286 0.051 0.4l1.015 0.99 0.348-0.36-1.015-0.99c-0.117-0.119-0.225-0.223-0.398-0.041z"
      />
<path
        fill="#2d2a26"
        style="fill: var(--color3, #2d2a26)"
        d="M6.872 19.872c-0.244 0.090-0.415-0.027-0.542-0.373s-0.076-0.548 0.168-0.64c0.244-0.092 0.419 0.029 0.546 0.372s0.076 0.548-0.172 0.642z"
      />
<path
        fill="#2d2a26"
        style="fill: var(--color3, #2d2a26)"
        d="M6.296 15.852c0.249 0.024 0.383-0.169 0.456-0.945 0.061-0.643 0.008-0.844-0.178-0.862s-0.242 0.114-0.357 0.884c-0.144 1.033-0.345 1.43-0.875 1.379s-0.634-0.6-0.55-1.492 0.357-1.422 0.941-1.366l-0.053 0.613c-0.259-0.025-0.349 0.23-0.408 0.867-0.056 0.602-0.013 0.75 0.163 0.768s0.229-0.122 0.335-0.81c0.138-0.935 0.243-1.511 0.841-1.455 0.63 0.060 0.702 0.675 0.624 1.557-0.089 0.977-0.312 1.543-0.993 1.477l0.053-0.615z"
      />
<path
        fill="#2d2a26"
        style="fill: var(--color3, #2d2a26)"
        d="M7.595 7.969l1.566 2.033-0.429 0.733-1.894-0.31 1.18 1.53-0.427 0.73-2.518-0.405 0.338-0.575 1.961 0.347-1.229-1.601 0.381-0.65 1.986 0.31-1.248-1.565 0.332-0.578z"
      />
<path
        fill="#2d2a26"
        style="fill: var(--color3, #2d2a26)"
        d="M10.948 7.902l-1.134 0.861 0.101 0.561-0.535 0.407-0.446-2.654 0.658-0.499 2.407 1.17-0.535 0.409-0.516-0.255zM10.495 7.673l-0.963-0.484 0.191 1.070 0.772-0.586z"
      />
<path
        fill="#2d2a26"
        style="fill: var(--color3, #2d2a26)"
        d="M14.793 6.212c0.111 0.388-0.034 0.736-0.552 0.885l-2.084 0.601-0.653-2.301 2.006-0.58c0.518-0.149 0.752 0.070 0.849 0.409 0.044 0.167 0.026 0.345-0.052 0.499 0.117 0.029 0.224 0.090 0.309 0.176s0.147 0.193 0.176 0.311v0zM12.346 6.134l1.208-0.349c0.156-0.046 0.3-0.090 0.231-0.327s-0.21-0.195-0.37-0.149l-1.208 0.349 0.139 0.476zM14.199 6.349c-0.070-0.244-0.213-0.202-0.369-0.157l-1.355 0.391 0.138 0.487 1.359-0.389c0.152-0.045 0.296-0.086 0.227-0.333z"
      />
<path
        fill="#307fe2"
        style="fill: var(--color17, #307fe2)"
        d="M17.226 13.634l-3.926 6.799c-0.067 0.117-0.226 0.166-0.427 0.151s-0.447-0.093-0.687-0.232c-0.481-0.278-0.762-0.692-0.627-0.925l3.926-6.799 1.742 1.006z"
      />
<path
        fill="#2d2a26"
        style="fill: var(--color3, #2d2a26)"
        d="M17.981 12.742l-2.103-1.214c-0.312-0.18-0.445-0.537-0.296-0.795l0.466-0.806c0.149-0.258 0.524-0.322 0.836-0.142l2.103 1.214c0.312 0.18 0.445 0.537 0.296 0.795l-0.466 0.806c-0.149 0.258-0.525 0.322-0.837 0.141zM16.672 10.153c-0.068-0.040-0.15-0.027-0.182 0.028l-0.466 0.806c-0.032 0.055-0.002 0.132 0.066 0.172l2.103 1.214c0.069 0.040 0.15 0.027 0.182-0.028l0.466-0.806c0.032-0.055 0.002-0.132-0.067-0.172l-2.103-1.214z"
      />
<path
        fill="#2d2a26"
        style="fill: var(--color3, #2d2a26)"
        d="M12.868 20.73c-0.574 0.071-1.126-0.247-1.351-0.78v0c-0.158-0.373-0.131-0.799 0.071-1.15l4.269-7.395c0.053-0.092 0.191-0.111 0.307-0.044s0.169 0.196 0.116 0.288l-4.244 7.352c-0.128 0.221-0.143 0.49-0.041 0.724v0c0.141 0.324 0.477 0.518 0.828 0.478v0c0.254-0.029 0.479-0.176 0.606-0.397l4.245-7.352c0.053-0.092 0.191-0.111 0.307-0.044s0.169 0.196 0.116 0.288l-4.269 7.395c-0.203 0.351-0.558 0.587-0.96 0.637v0z"
      />
<path
        fill="#2d2a26"
        style="fill: var(--color3, #2d2a26)"
        d="M16.978 13.65l-1.402-0.81c-0.090-0.052-0.121-0.167-0.069-0.258s0.168-0.121 0.258-0.069l1.403 0.81c0.090 0.052 0.121 0.167 0.069 0.258s-0.167 0.121-0.258 0.069z"
      />
<path
        fill="#2d2a26"
        style="fill: var(--color3, #2d2a26)"
        d="M16.381 20.185l-0.326-0.189 2.903-5.005c0.052-0.090 0.168-0.121 0.258-0.069l0 0c0.090 0.052 0.121 0.168 0.069 0.258l-2.903 5.005z"
      />
<path
        fill="#2d2a26"
        style="fill: var(--color3, #2d2a26)"
        d="M19.028 15.249c-0.001-0.001-0.002-0.001-0.003-0.002-0.094-0.055-0.243-0.205-0.182-0.587 0.036-0.224 0.137-0.485 0.285-0.736 0.291-0.493 0.76-0.931 1.105-0.732l0.003 0.002c0.094 0.056 0.242 0.205 0.182 0.587-0.036 0.224-0.137 0.485-0.285 0.736-0.291 0.493-0.76 0.931-1.104 0.732zM20.037 13.515c-0.051-0.001-0.325 0.162-0.585 0.602s-0.27 0.759-0.23 0.811c0.051 0.001 0.325-0.162 0.585-0.602 0 0 0 0 0-0 0.259-0.44 0.27-0.759 0.23-0.811z"
      />
<path
        fill="#2d2a26"
        style="fill: var(--color3, #2d2a26)"
        d="M15.114 21.987c-0.001-0.001-0.002-0.001-0.003-0.002-0.094-0.055-0.242-0.205-0.181-0.587 0.036-0.224 0.137-0.485 0.284-0.736 0.291-0.493 0.76-0.931 1.104-0.732l0.003 0.002c0.345 0.204 0.189 0.829-0.103 1.323-0.148 0.251-0.328 0.466-0.506 0.605-0.301 0.236-0.503 0.182-0.599 0.127v0zM16.123 20.252c-0.051-0.001-0.325 0.162-0.584 0.602s-0.269 0.759-0.23 0.811c0.051 0.001 0.325-0.162 0.584-0.602s0.27-0.759 0.23-0.811v0z"
      />
<path
        fill="#2d2a26"
        style="fill: var(--color3, #2d2a26)"
        d="M15.324 15.377l-0.417-0.241c-0.090-0.052-0.121-0.167-0.069-0.258s0.168-0.121 0.258-0.069l0.417 0.241c0.090 0.052 0.121 0.167 0.069 0.258s-0.168 0.121-0.258 0.069v0z"
      />
<path
        fill="#2d2a26"
        style="fill: var(--color3, #2d2a26)"
        d="M13.726 18.145l-0.417-0.241c-0.090-0.052-0.121-0.167-0.069-0.258s0.168-0.121 0.258-0.069l0.417 0.241c0.090 0.052 0.121 0.167 0.069 0.258s-0.168 0.121-0.258 0.069v0z"
      />
<path
        fill="#2d2a26"
        style="fill: var(--color3, #2d2a26)"
        d="M13.398 18.23c-0.090-0.052-0.121-0.167-0.069-0.258l0.238-0.411c0.052-0.090 0.168-0.121 0.258-0.069s0.121 0.167 0.069 0.258l-0.238 0.411c-0.052 0.090-0.167 0.121-0.258 0.069z"
      />
</symbol>
<symbol id="blood" viewBox="0 0 32 32">
<path
        fill="#fcfcf0"
        style="fill: var(--color1, #fcfcf0); stroke: var(--color11, #f87c56)"
        stroke="#f87c56"
        stroke-linejoin="miter"
        stroke-linecap="butt"
        stroke-miterlimit="4"
        stroke-width="2.56"
        d="M16 1.841c7.82 0 14.159 6.339 14.159 14.159s-6.339 14.159-14.159 14.159c-7.82 0-14.159-6.339-14.159-14.159s6.339-14.159 14.159-14.159z"
      />
<path
        fill="#fcfcf0"
        style="fill: var(--color1, #fcfcf0); stroke: var(--color3, #2d2a26)"
        stroke="#2d2a26"
        stroke-linejoin="miter"
        stroke-linecap="butt"
        stroke-miterlimit="4"
        stroke-width="0.4267"
        d="M16 2.459h0c7.478 0 13.541 6.063 13.541 13.541v0c0 7.479-6.063 13.541-13.541 13.541h-0c-7.479 0-13.541-6.063-13.541-13.541v-0c0-7.479 6.063-13.541 13.541-13.541z"
      />
<path
        fill="#2d2a26"
        style="fill: var(--color3, #2d2a26)"
        d="M16.95 5.854c0.038-0.262 0.224-0.356 0.584-0.301s0.512 0.199 0.474 0.46c-0.038 0.261-0.227 0.361-0.585 0.304s-0.511-0.198-0.473-0.463z"
      />
<path
        fill="#2d2a26"
        style="fill: var(--color3, #2d2a26)"
        d="M22.309 8.483c-0.212 0.344-0.564 0.469-1.021 0.181l-1.837-1.164 1.255-2.039 1.769 1.12c0.456 0.289 0.452 0.614 0.267 0.914-0.094 0.145-0.236 0.251-0.402 0.296 0.056 0.107 0.083 0.228 0.078 0.35s-0.043 0.24-0.109 0.341zM21.808 8.13c0.133-0.215 0.006-0.295-0.132-0.383l-1.194-0.756-0.267 0.431 1.196 0.757c0.138 0.090 0.265 0.167 0.397-0.049zM20.729 6.588l1.069 0.675c0.138 0.090 0.267 0.167 0.395-0.045s0-0.29-0.138-0.38l-1.069-0.674-0.256 0.424z"
      />
<path
        fill="#2d2a26"
        style="fill: var(--color3, #2d2a26)"
        d="M23.926 10.692l-0.393 0.336-1.581-1.88 1.803-1.561 0.395 0.471-1.413 1.223 1.19 1.411z"
      />
<path
        fill="#2d2a26"
        style="fill: var(--color3, #2d2a26)"
        d="M24.634 10.488c0.721-0.314 1.292-0.070 1.704 0.904s0.19 1.561-0.528 1.875c-0.718 0.314-1.3 0.070-1.711-0.904s-0.19-1.559 0.535-1.875zM25.569 12.697c0.441-0.192 0.55-0.509 0.299-1.102s-0.549-0.732-0.994-0.538c-0.444 0.194-0.556 0.514-0.306 1.104s0.556 0.73 1.001 0.536z"
      />
<path
        fill="#2d2a26"
        style="fill: var(--color3, #2d2a26)"
        d="M25.909 13.691c0.783-0.053 1.241 0.37 1.311 1.425s-0.333 1.536-1.113 1.589c-0.78 0.053-1.247-0.373-1.318-1.425s0.333-1.537 1.12-1.589zM26.067 16.089c0.479-0.032 0.686-0.295 0.644-0.939s-0.279-0.876-0.761-0.843c-0.483 0.033-0.693 0.298-0.65 0.939s0.282 0.876 0.768 0.843z"
      />
<path
        fill="#2d2a26"
        style="fill: var(--color3, #2d2a26)"
        d="M25.298 19.978c-0.777-0.214-1.002-0.841-0.842-1.441l0.451-1.683 2.286 0.633-0.453 1.681c-0.159 0.6-0.665 1.030-1.442 0.811zM25.457 19.382c0.555 0.154 0.731-0.126 0.852-0.576l0.231-0.862-1.299-0.361-0.232 0.861c-0.12 0.455-0.107 0.785 0.448 0.94v-0.002z"
      />
<path
        fill="#2d2a26"
        style="fill: var(--color3, #2d2a26)"
        d="M24.109 21.721c0.204 0.164 0.192 0.374-0.036 0.664s-0.426 0.35-0.63 0.181c-0.204-0.169-0.192-0.379 0.034-0.666s0.425-0.348 0.631-0.179z"
      />
<path
        fill="#2d2a26"
        style="fill: var(--color3, #2d2a26)"
        d="M19.189 25.12c-0.189-0.361-0.12-0.729 0.356-0.987l1.909-1.037 1.118 2.12-1.838 0.994c-0.474 0.258-0.75 0.090-0.915-0.22-0.077-0.155-0.096-0.333-0.053-0.502-0.12-0.003-0.237-0.039-0.339-0.104s-0.184-0.156-0.239-0.265zM19.74 24.855c0.119 0.224 0.249 0.154 0.393 0.075l1.241-0.673-0.237-0.452-1.241 0.674c-0.143 0.081-0.275 0.153-0.157 0.376zM21.594 24.674l-1.107 0.601c-0.143 0.078-0.275 0.149-0.159 0.371s0.247 0.146 0.393 0.067l1.107-0.601-0.234-0.437z"
      />
<path
        fill="#2d2a26"
        style="fill: var(--color3, #2d2a26)"
        d="M16.497 25.438l-0.089-0.51 2.397-0.446 0.427 2.364-0.599 0.111-0.335-1.853-1.801 0.334z"
      />
<path
        fill="#2d2a26"
        style="fill: var(--color3, #2d2a26)"
        d="M16.319 26.161c-0.089 0.791-0.585 1.175-1.621 1.048s-1.425-0.613-1.336-1.401c0.089-0.788 0.589-1.175 1.621-1.055s1.425 0.609 1.336 1.407zM13.966 25.881c-0.056 0.484 0.16 0.738 0.792 0.813s0.899-0.117 0.956-0.605c0.056-0.488-0.162-0.745-0.791-0.82s-0.905 0.12-0.961 0.608l0.004 0.004z"
      />
<path
        fill="#2d2a26"
        style="fill: var(--color3, #2d2a26)"
        d="M12.944 25.683c-0.346 0.716-0.936 0.904-1.87 0.442s-1.146-1.059-0.802-1.772 0.942-0.912 1.875-0.452c0.932 0.46 1.144 1.064 0.797 1.782zM10.816 24.625c-0.211 0.438-0.089 0.75 0.48 1.035s0.891 0.192 1.1-0.248c0.209-0.441 0.089-0.758-0.476-1.040s-0.891-0.187-1.103 0.254z"
      />
<path
        fill="#2d2a26"
        style="fill: var(--color3, #2d2a26)"
        d="M7.881 21.998c0.572-0.576 1.22-0.459 1.651-0.017l1.211 1.238-1.682 1.693-1.21-1.239c-0.432-0.441-0.541-1.1 0.030-1.675zM8.31 22.437c-0.409 0.411-0.259 0.706 0.065 1.036l0.623 0.633 0.956-0.962-0.623-0.633c-0.324-0.332-0.614-0.485-1.021-0.074z"
      />
<path
        fill="#2d2a26"
        style="fill: var(--color3, #2d2a26)"
        d="M6.984 20.090c-0.242 0.098-0.415-0.018-0.55-0.361s-0.089-0.548 0.156-0.645c0.245-0.097 0.419 0.020 0.552 0.361s0.086 0.547-0.159 0.645z"
      />
<path
        fill="#2d2a26"
        style="fill: var(--color3, #2d2a26)"
        d="M6.543 14.066c0.399 0.014 0.683 0.259 0.666 0.805l-0.069 2.197-2.367-0.077 0.066-2.114c0.017-0.542 0.297-0.705 0.645-0.694 0.171 0.009 0.333 0.081 0.454 0.203 0.063-0.104 0.153-0.188 0.26-0.244s0.226-0.083 0.346-0.076zM5.721 16.402l0.040-1.273c0.005-0.164 0.010-0.315-0.237-0.324s-0.248 0.143-0.254 0.311l-0.040 1.273 0.491 0.013zM6.493 14.685c-0.25-0.008-0.255 0.143-0.26 0.307l-0.045 1.428 0.501 0.016 0.045-1.428c0.005-0.166 0.010-0.317-0.24-0.323z"
      />
<path
        fill="#2d2a26"
        style="fill: var(--color3, #2d2a26)"
        d="M7.617 11.537l0.482 0.173-0.814 2.33-2.233-0.802 0.203-0.583 1.751 0.633 0.611-1.751z"
      />
<path
        fill="#2d2a26"
        style="fill: var(--color3, #2d2a26)"
        d="M7.089 11.020c-0.629-0.476-0.706-1.101-0.083-1.948s1.238-0.947 1.865-0.473c0.627 0.474 0.713 1.108 0.089 1.952s-1.24 0.948-1.871 0.469zM8.506 9.094c-0.385-0.292-0.712-0.229-1.090 0.288s-0.35 0.848 0.037 1.142c0.387 0.294 0.712 0.23 1.095-0.284s0.346-0.853-0.043-1.147z"
      />
<path
        fill="#2d2a26"
        style="fill: var(--color3, #2d2a26)"
        d="M9.181 8.297c-0.439-0.661-0.309-1.275 0.555-1.867s1.477-0.481 1.915 0.181c0.437 0.661 0.31 1.283-0.551 1.873s-1.478 0.477-1.918-0.187zM11.146 6.953c-0.267-0.405-0.596-0.452-1.124-0.090s-0.606 0.684-0.336 1.092c0.271 0.408 0.603 0.457 1.127 0.098s0.607-0.693 0.332-1.1z"
      />
<path
        fill="#2d2a26"
        style="fill: var(--color3, #2d2a26)"
        d="M14.854 5.683c0.206 0.791-0.217 1.301-0.81 1.46l-1.663 0.445-0.604-2.324 1.662-0.445c0.591-0.159 1.209 0.074 1.414 0.864zM14.265 5.841c-0.147-0.565-0.473-0.58-0.918-0.461l-0.851 0.228 0.344 1.322 0.851-0.229c0.445-0.119 0.721-0.296 0.574-0.86z"
      />
<path
        fill="#d1e7f8"
        style="fill: var(--color12, #d1e7f8)"
        d="M19.999 12.231l-2.735-1.579c-0.168-0.097-0.382-0.039-0.479 0.128s-0.039 0.382 0.128 0.479l2.735 1.579c0.168 0.097 0.382 0.039 0.479-0.128s0.039-0.382-0.128-0.479z"
      />
<path
        fill="#d80027"
        style="fill: var(--color13, #d80027)"
        d="M17.61 16.018l-2.325 4.026c-0.186 0.322-0.493 0.558-0.852 0.654s-0.743 0.046-1.065-0.14c-0.322-0.186-0.558-0.493-0.654-0.852s-0.046-0.743 0.14-1.065l2.412-4.178 0.161 0.107c0.229 0.178 0.221 0.316 0.562 0.513 0.137 0.083 0.29 0.137 0.449 0.158s0.312 0.074 0.449 0.158c0.34 0.196 0.333 0.335 0.562 0.513 0.051 0.039 0.105 0.075 0.161 0.107z"
      />
<path
        fill="#bddbff"
        style="fill: var(--color14, #bddbff)"
        d="M19.496 12.752l-1.886 3.267-0.161-0.107c-0.229-0.178-0.221-0.316-0.562-0.513-0.137-0.083-0.29-0.137-0.449-0.158s-0.312-0.075-0.449-0.158c-0.34-0.196-0.333-0.335-0.562-0.513-0.051-0.039-0.105-0.075-0.161-0.107l1.798-3.115 2.431 1.403z"
      />
<path
        fill="#e0e0e2"
        style="fill: var(--color15, #e0e0e2)"
        d="M15.267 14.463c0.056 0.032 0.11 0.068 0.161 0.107l-0.161-0.107z"
      />
<path
        fill="#e0e0e2"
        style="fill: var(--color15, #e0e0e2)"
        d="M15.428 14.569l-0.161-0.107c0.056 0.032 0.11 0.068 0.161 0.107z"
      />
<path
        fill="#e0e0e2"
        style="fill: var(--color15, #e0e0e2)"
        d="M17.61 16.018c-0.056-0.032-0.11-0.068-0.161-0.107l0.161 0.107z"
      />
<path
        fill="#2d2a26"
        style="fill: var(--color3, #2d2a26)"
        d="M20.087 12.080l-2.735-1.579c-0.121-0.070-0.265-0.089-0.399-0.053s-0.25 0.124-0.32 0.245c-0.070 0.121-0.089 0.265-0.053 0.399s0.124 0.25 0.245 0.32l-4.123 7.141c-0.209 0.363-0.266 0.794-0.158 1.198s0.373 0.749 0.736 0.959c0.363 0.209 0.794 0.266 1.198 0.158s0.749-0.373 0.959-0.736l4.123-7.141c0.121 0.070 0.265 0.089 0.399 0.053s0.25-0.124 0.32-0.245c0.070-0.121 0.089-0.265 0.053-0.399s-0.124-0.25-0.245-0.32zM15.134 19.957c-0.163 0.282-0.431 0.488-0.746 0.572s-0.65 0.040-0.932-0.123-0.488-0.431-0.572-0.746c-0.084-0.315-0.040-0.65 0.123-0.932l2.319-4.016c0.062 0.051 0.118 0.108 0.167 0.172 0.111 0.144 0.25 0.263 0.409 0.35 0.155 0.094 0.328 0.155 0.508 0.179 0.277 0.042 0.528 0.187 0.704 0.406 0.075 0.097 0.163 0.183 0.261 0.255l-2.241 3.882zM17.552 15.769c-0.062-0.051-0.118-0.108-0.167-0.172-0.229-0.284-0.556-0.473-0.917-0.529-0.277-0.042-0.528-0.187-0.704-0.406-0.075-0.097-0.163-0.183-0.261-0.255l1.627-2.818 2.127 1.228-1.705 2.953zM19.736 12.687l-2.735-1.579c-0.040-0.023-0.070-0.062-0.082-0.107s-0.006-0.093 0.017-0.133c0.023-0.040 0.062-0.070 0.107-0.082s0.093-0.006 0.133 0.018l2.735 1.579c0.040 0.023 0.070 0.062 0.082 0.107s0.006 0.093-0.018 0.133c-0.023 0.040-0.062 0.070-0.107 0.082s-0.093 0.006-0.133-0.018z"
      />
<path
        fill="#2d2a26"
        style="fill: var(--color3, #2d2a26)"
        d="M17.082 12.371l0.608 0.351c0.040 0.023 0.088 0.030 0.133 0.018s0.083-0.041 0.107-0.082c0.023-0.040 0.030-0.088 0.018-0.133s-0.041-0.083-0.082-0.107l-0.608-0.351c-0.040-0.023-0.088-0.030-0.133-0.018s-0.083 0.041-0.107 0.082c-0.023 0.040-0.030 0.088-0.018 0.133s0.041 0.083 0.082 0.107z"
      />
<path
        fill="#2d2a26"
        style="fill: var(--color3, #2d2a26)"
        d="M16.819 12.827l0.608 0.351c0.040 0.023 0.088 0.030 0.133 0.018s0.083-0.041 0.107-0.082c0.023-0.040 0.030-0.088 0.017-0.133s-0.041-0.083-0.082-0.107l-0.608-0.351c-0.040-0.023-0.088-0.030-0.133-0.018s-0.083 0.041-0.107 0.082c-0.023 0.040-0.030 0.088-0.018 0.133s0.041 0.083 0.082 0.107z"
      />
<path
        fill="#2d2a26"
        style="fill: var(--color3, #2d2a26)"
        d="M16.556 13.282l0.608 0.351c0.040 0.023 0.088 0.030 0.133 0.018s0.083-0.041 0.107-0.082c0.023-0.040 0.030-0.088 0.018-0.133s-0.041-0.083-0.082-0.107l-0.608-0.351c-0.040-0.023-0.088-0.030-0.133-0.018s-0.083 0.041-0.107 0.082c-0.023 0.040-0.030 0.088-0.018 0.133s0.041 0.083 0.082 0.107z"
      />
</symbol>
<symbol id="urine" viewBox="0 0 32 32">
<path
        fill="#fcfcf0"
        style="fill: var(--color1, #fcfcf0); stroke: var(--color2, #f68d2e)"
        stroke="#f68d2e"
        stroke-linejoin="miter"
        stroke-linecap="butt"
        stroke-miterlimit="4"
        stroke-width="2.56"
        d="M16 1.841c7.82 0 14.159 6.339 14.159 14.159s-6.339 14.159-14.159 14.159c-7.82 0-14.159-6.339-14.159-14.159s6.339-14.159 14.159-14.159z"
      />
<path
        fill="#fcfcf0"
        style="fill: var(--color1, #fcfcf0); stroke: var(--color3, #2d2a26)"
        stroke="#2d2a26"
        stroke-linejoin="miter"
        stroke-linecap="butt"
        stroke-miterlimit="4"
        stroke-width="0.4267"
        d="M16 2.459h0c7.479 0 13.541 6.063 13.541 13.541v0c0 7.479-6.063 13.541-13.541 13.541h-0c-7.479 0-13.541-6.063-13.541-13.541v-0c0-7.479 6.063-13.541 13.541-13.541z"
      />
<path
        fill="#2d2a26"
        style="fill: var(--color3, #2d2a26)"
        d="M18.275 7.478c-1.003-0.267-1.33-0.766-1.119-1.563l0.304-1.14 0.586 0.157-0.304 1.139c-0.089 0.32-0.095 0.712 0.664 0.913s0.944-0.142 1.029-0.459l0.304-1.139 0.585 0.157-0.3 1.133c-0.215 0.801-0.75 1.067-1.75 0.801z"
      />
<path
        fill="#2d2a26"
        style="fill: var(--color3, #2d2a26)"
        d="M22.253 8.738l-0.056 0.825-0.576-0.418 0.058-0.736-0.798-0.572-0.367 0.514-0.493-0.356 1.375-1.923 1.508 1.084c0.435 0.314 0.532 0.806 0.229 1.235-0.225 0.314-0.549 0.431-0.879 0.347zM21.177 7.423l0.876 0.631c0.148 0.106 0.379 0.271 0.584-0.017s-0.021-0.456-0.169-0.563l-0.876-0.631-0.415 0.58z"
      />
<path
        fill="#2d2a26"
        style="fill: var(--color3, #2d2a26)"
        d="M22.829 10.391l-0.399-0.458 1.774-1.558 0.399 0.458-1.773 1.558z"
      />
<path
        fill="#2d2a26"
        style="fill: var(--color3, #2d2a26)"
        d="M26.656 12.305l-2.11 1.063-0.371-0.74 0.858-2.238-1.581 0.801-0.272-0.544 2.108-1.067 0.369 0.737-0.859 2.243 1.583-0.801 0.275 0.546z"
      />
<path
        fill="#2d2a26"
        style="fill: var(--color3, #2d2a26)"
        d="M26.537 14.125l-0.475 0.054 0.213 1.881-0.435 0.049-0.213-1.881-0.475 0.054 0.213 1.881-0.479 0.055-0.281-2.485 2.343-0.267 0.282 2.485-0.479 0.055-0.213-1.881z"
      />
<path
        fill="#2d2a26"
        style="fill: var(--color3, #2d2a26)"
        d="M25.53 18.643c0.246 0.084 0.303 0.281 0.187 0.627s-0.283 0.468-0.532 0.384c-0.249-0.084-0.306-0.286-0.19-0.629s0.286-0.467 0.535-0.383z"
      />
<path
        fill="#2d2a26"
        style="fill: var(--color3, #2d2a26)"
        d="M22.138 22.239c0.741-0.729 1.335-0.759 1.91-0.17l0.823 0.842-0.433 0.425-0.823-0.842c-0.231-0.236-0.56-0.445-1.121 0.109s-0.359 0.89-0.13 1.122l0.823 0.842-0.433 0.426-0.823-0.842c-0.577-0.586-0.532-1.186 0.207-1.912z"
      />
<path
        fill="#2d2a26"
        style="fill: var(--color3, #2d2a26)"
        d="M19.035 25.036l-0.681-0.466 0.653-0.29 0.603 0.423 0.895-0.396-0.255-0.578 0.555-0.246 0.953 2.164-1.695 0.752c-0.49 0.218-0.964 0.054-1.177-0.428-0.076-0.152-0.103-0.324-0.076-0.492s0.106-0.323 0.225-0.443zM20.71 24.775l-0.987 0.437c-0.166 0.074-0.425 0.189-0.282 0.513s0.403 0.213 0.569 0.14l0.989-0.438-0.289-0.652z"
      />
<path
        fill="#2d2a26"
        style="fill: var(--color3, #2d2a26)"
        d="M17.322 24.692l0.596-0.11 0.43 2.327-0.596 0.11-0.43-2.327z"
      />
<path
        fill="#2d2a26"
        style="fill: var(--color3, #2d2a26)"
        d="M13.736 27.025l0.158-2.361 0.824 0.055 1.485 1.878 0.118-1.773 0.606 0.041-0.158 2.361-0.824-0.053-1.489-1.881-0.118 1.774-0.602-0.040z"
      />
<path
        fill="#2d2a26"
        style="fill: var(--color3, #2d2a26)"
        d="M12.232 25.998l0.194-0.439-1.723-0.771 0.177-0.401 1.723 0.771 0.195-0.439-1.723-0.771 0.196-0.445 2.279 1.023-0.961 2.161-2.277-1.019 0.196-0.445 1.724 0.775z"
      />
<path
        fill="#2d2a26"
        style="fill: var(--color3, #2d2a26)"
        d="M8.868 22.83c-0.196 0.17-0.396 0.118-0.633-0.158s-0.258-0.481-0.061-0.651c0.197-0.17 0.401-0.119 0.636 0.156s0.258 0.481 0.059 0.654z"
      />
<path
        fill="#2d2a26"
        style="fill: var(--color3, #2d2a26)"
        d="M7.501 18.072c0.248 1.011-0.028 1.538-0.826 1.736l-1.142 0.282-0.145-0.591 1.141-0.282c0.321-0.079 0.666-0.258 0.478-1.023s-0.579-0.762-0.896-0.684l-1.141 0.282-0.145-0.591 1.142-0.282c0.795-0.197 1.289 0.145 1.535 1.153z"
      />
<path
        fill="#2d2a26"
        style="fill: var(--color3, #2d2a26)"
        d="M6.679 13.972l0.747-0.351-0.082 0.712-0.67 0.306-0.114 0.974 0.626 0.073-0.070 0.605-2.344-0.279 0.215-1.847c0.062-0.534 0.443-0.86 0.965-0.801 0.17 0.011 0.332 0.076 0.462 0.185s0.223 0.258 0.265 0.423zM6.059 15.553l0.125-1.075c0.021-0.178 0.054-0.463-0.297-0.504s-0.388 0.241-0.409 0.422l-0.126 1.075 0.707 0.083z"
      />
<path
        fill="#2d2a26"
        style="fill: var(--color3, #2d2a26)"
        d="M7.846 12.661l-0.207 0.572-2.217-0.809 0.207-0.572 2.217 0.809z"
      />
<path
        fill="#2d2a26"
        style="fill: var(--color3, #2d2a26)"
        d="M7.67 8.378l1.945 1.34-0.467 0.683-2.369 0.324 1.459 1.005-0.344 0.502-1.945-1.34 0.466-0.681 2.374-0.325-1.461-1.007 0.343-0.502z"
      />
<path
        fill="#2d2a26"
        style="fill: var(--color3, #2d2a26)"
        d="M9.314 7.604l0.278 0.391 1.537-1.099 0.255 0.356-1.537 1.099 0.278 0.391 1.537-1.098 0.279 0.393-2.031 1.452-1.368-1.922 2.031-1.452 0.279 0.394-1.537 1.095z"
      />
<path
        fill="#2d2a26"
        style="fill: var(--color3, #2d2a26)"
        d="M13.743 6.306c-0.045-0.256 0.099-0.402 0.458-0.466s0.545 0.023 0.591 0.279c0.045 0.256-0.103 0.406-0.458 0.47s-0.544-0.023-0.591-0.283z"
      />
<path
        fill="#e3f2ff"
        style="fill: var(--color4, #e3f2ff)"
        d="M17.206 20.36h-2.949c-0.405 0-0.746-0.301-0.795-0.702l-0.154-1.257 0.001-1.422-0.35-1.422-0.211-1.721h5.969l-0.715 5.821c-0.049 0.401-0.39 0.702-0.795 0.702z"
      />
<path
        fill="#cfe9ff"
        style="fill: var(--color5, #cfe9ff)"
        d="M18.014 13.836l-0.715 5.821c-0.049 0.401-0.39 0.702-0.795 0.702h0.702c0.405 0 0.746-0.301 0.795-0.702l0.715-5.821h-0.702z"
      />
<path
        fill="#ffbe30"
        style="fill: var(--color6, #ffbe30)"
        d="M13.461 19.658c0.049 0.401 0.39 0.702 0.795 0.702h2.949c0.405 0 0.746-0.301 0.795-0.702l0.314-2.56h-2.987l-2.018 1.302 0.152 1.257z"
      />
<path
        fill="#ffaf00"
        style="fill: var(--color7, #ffaf00)"
        d="M17.613 17.098l-0.314 2.56c-0.049 0.401-0.39 0.702-0.795 0.702h0.702c0.405 0 0.746-0.301 0.795-0.702l0.314-2.56h-0.702z"
      />
<path
        fill="#fff"
        style="fill: var(--color8, #fff)"
        d="M15.095 18.4h-1.785l-0.348-2.843h2.133c0.265 0 0.481 0.215 0.481 0.479v1.885c0 0.265-0.215 0.479-0.481 0.479z"
      />
<path
        fill="#ff4c30"
        style="fill: var(--color9, #ff4c30)"
        d="M18.751 14.156h-6.040c-0.177 0-0.32-0.143-0.32-0.32v-1.098c0-0.177 0.143-0.32 0.32-0.32h6.040c0.177 0 0.32 0.143 0.32 0.32v1.098c0 0.177-0.143 0.32-0.32 0.32z"
      />
<path
        fill="#ffbe30"
        style="fill: var(--color6, #ffbe30)"
        d="M19.173 11.64c0 0-0.998 1.183-0.998 2.079 0 0.55 0.447 0.996 0.998 0.996s0.998-0.446 0.998-0.996c0-0.829-0.998-2.079-0.998-2.079z"
      />
<path
        fill="#ffaf00"
        style="fill: var(--color7, #ffaf00)"
        d="M19.173 11.64c0 0-0.163 0.193-0.357 0.483 0.289 0.44 0.654 1.095 0.654 1.596 0 0.427-0.269 0.791-0.647 0.932 0.109 0.041 0.227 0.063 0.351 0.063 0.551 0 0.998-0.446 0.998-0.996 0-0.829-0.998-2.079-0.998-2.079z"
      />
<path
        fill="#000"
        style="fill: var(--color10, #000)"
        d="M13.038 13.801c0.073 0 0.132-0.059 0.132-0.132v-0.765c0-0.073-0.059-0.132-0.132-0.132s-0.132 0.059-0.132 0.132v0.765c0 0.073 0.059 0.132 0.132 0.132z"
      />
<path
        fill="#000"
        style="fill: var(--color10, #000)"
        d="M13.711 13.801c0.073 0 0.132-0.059 0.132-0.132v-0.765c0-0.073-0.059-0.132-0.132-0.132s-0.132 0.059-0.132 0.132v0.765c0 0.073 0.059 0.132 0.132 0.132z"
      />
<path
        fill="#000"
        style="fill: var(--color10, #000)"
        d="M14.384 13.801c0.073 0 0.132-0.059 0.132-0.132v-0.765c0-0.073-0.059-0.132-0.132-0.132s-0.132 0.059-0.132 0.132v0.765c0 0.073 0.059 0.132 0.132 0.132z"
      />
<path
        fill="#000"
        style="fill: var(--color10, #000)"
        d="M15.058 13.801c0.073 0 0.132-0.059 0.132-0.132v-0.765c0-0.073-0.059-0.132-0.132-0.132s-0.132 0.059-0.132 0.132v0.765c0 0.073 0.059 0.132 0.132 0.132z"
      />
<path
        fill="#000"
        style="fill: var(--color10, #000)"
        d="M15.731 13.801c0.073 0 0.132-0.059 0.132-0.132v-0.765c0-0.073-0.059-0.132-0.132-0.132s-0.132 0.059-0.132 0.132v0.765c0 0.073 0.059 0.132 0.132 0.132z"
      />
<path
        fill="#000"
        style="fill: var(--color10, #000)"
        d="M16.404 13.801c0.073 0 0.132-0.059 0.132-0.132v-0.765c0-0.073-0.059-0.132-0.132-0.132s-0.132 0.059-0.132 0.132v0.765c0 0.073 0.059 0.132 0.132 0.132z"
      />
<path
        fill="#000"
        style="fill: var(--color10, #000)"
        d="M17.078 13.801c0.073 0 0.132-0.059 0.132-0.132v-0.765c0-0.073-0.059-0.132-0.132-0.132s-0.132 0.059-0.132 0.132v0.765c0 0.073 0.059 0.132 0.132 0.132z"
      />
<path
        fill="#000"
        style="fill: var(--color10, #000)"
        d="M17.751 13.801c0.073 0 0.132-0.059 0.132-0.132v-0.765c0-0.073-0.059-0.132-0.132-0.132s-0.132 0.059-0.132 0.132v0.765c0 0.073 0.059 0.132 0.132 0.132z"
      />
<path
        fill="#000"
        style="fill: var(--color10, #000)"
        d="M19.596 12.006c-0.086-0.151-0.309-0.034-0.233 0.123 0.216 0.409 0.676 1.33 0.676 1.589-0.047 1.147-1.681 1.142-1.733 0 0-0.67 0.615-1.54 0.864-1.864 0.052 0.070 0.119 0.164 0.193 0.275 0.041 0.060 0.122 0.076 0.183 0.036s0.076-0.122 0.036-0.183c-0.169-0.252-0.301-0.418-0.307-0.425-0.051-0.064-0.151-0.065-0.203-0.003-0.021 0.025-0.27 0.323-0.519 0.731h-5.842c-0.249 0-0.452 0.203-0.452 0.452v1.098c0 0.235 0.18 0.428 0.41 0.45l0.662 5.388c0.057 0.466 0.455 0.817 0.926 0.817h0.397c0.073 0 0.132-0.059 0.132-0.132s-0.059-0.132-0.132-0.132h-0.397c-0.338 0-0.623-0.252-0.664-0.586l-0.136-1.11h1.639c0.338 0 0.612-0.274 0.612-0.611v-0.691h2.459l-0.296 2.412c-0.041 0.334-0.327 0.586-0.664 0.586h-2.714c-0.073 0-0.132 0.059-0.132 0.132s0.059 0.132 0.132 0.132h2.714c0.471 0 0.868-0.351 0.926-0.817l0.604-4.916c0.723 0.318 1.58-0.247 1.567-1.039 0-0.303-0.47-1.265-0.706-1.712zM12.523 13.836v-1.098c0-0.104 0.084-0.188 0.188-0.188h5.692c-0.242 0.47-0.45 0.979-0.318 1.475h-5.374c-0.104 0-0.188-0.085-0.188-0.188zM15.444 17.921c0 0.192-0.157 0.348-0.349 0.348h-1.671l-0.091-0.742h1.149c0.073 0 0.132-0.059 0.132-0.132s-0.059-0.132-0.132-0.132h-1.181l-0.071-0.581h1.253c0.073 0 0.132-0.059 0.132-0.132s-0.059-0.132-0.132-0.132h-1.285l-0.090-0.731h1.988c0.192 0 0.349 0.156 0.349 0.348v1.885zM18.199 16.966h-2.492v-0.93c0-0.337-0.275-0.611-0.612-0.611h-2.021l-0.14-1.138h5.263c0.075 0.127 0.173 0.238 0.29 0.327l-0.289 2.352z"
      />
<path
        fill="#000"
        style="fill: var(--color10, #000)"
        d="M18.893 13.733c-0.005-0.174-0.258-0.174-0.263 0 0 0.29 0.237 0.527 0.528 0.527 0.174-0.005 0.174-0.258 0-0.263-0.146 0-0.265-0.118-0.265-0.264z"
      />
</symbol>
<symbol id="frame" viewBox="0 0 27 32">
<path
        fill="#362e4d"
        style="fill: var(--color1, #362e4d)"
        d="M0 24.703c0 0 0.281 0.322 1.309 0.305s0.607-1.651 0.607-1.651-0.86-0.071-0.944 0c-0.084 0.071-0.972 1.346-0.972 1.346z"
      />
<path
        fill="#8abadd"
        style="fill: var(--color2, #8abadd)"
        d="M18.474 11.23c0 0 1.752 0.836 2.882 3.526 1.046 2.487 2.51 6.891 2.51 6.891l-6.354 1.21 0.963-11.627z"
      />
<path
        fill="#a66161"
        style="fill: var(--color3, #a66161)"
        d="M26.273 27.876c0 0 0.199 0.904 0.235 1.48 0.021 0.334-0.215 0.833-0.632 0.689-0.364-0.125-0.615-0.587-0.721-0.922-0.122-0.385-0.214-0.933-0.214-0.933l1.332-0.313z"
      />
<path
        fill="#a66161"
        style="fill: var(--color3, #a66161)"
        d="M10.377 9.343l-3.044 0.863 2.493 4.549c0 0 2.301 0.224 2.656 0.224s1.164 0.090 1.344-0.381 1.44-4.124 1.44-4.124l-2.473-0.314-2.416-0.818z"
      />
<path
        fill="#362e4d"
        style="fill: var(--color1, #362e4d)"
        d="M11.606 4.96c0-1.494 1.282-2.585 2.848-2.585 1.327 0 2.849 0.971 2.849 2.465s-1.27 2.706-2.837 2.706c-1.566 0-2.86-1.091-2.86-2.586z"
      />
<path
        fill="#a66161"
        style="fill: var(--color3, #a66161)"
        d="M14.11 9.437l-0.446 1.447-0.142 0.463-2.041 1.276-1.815-2.101 2.24-3.706 2.204 2.622z"
      />
<path
        fill="#362e4d"
        style="fill: var(--color1, #362e4d)"
        d="M13.95 9.954l-0.286 0.929c-0.128-0.024-0.288-0.096-0.474-0.259-0.889-0.778-0.914-2.092-0.914-2.092l1.674 1.422z"
      />
<path
        fill="#a66161"
        style="fill: var(--color3, #a66161)"
        d="M11.703 6.052c-0.005 0.149 0.002 0.298 0.021 0.446 0.044 0.362 0.154 0.712 0.326 1.033 0.050 0.098 0.107 0.192 0.17 0.282 0.387 0.558 0.969 0.951 1.664 1.054 0.95 0.141 1.872-0.294 2.463-1.065 0.011-0.014 0.233-0.442 0.375-0.715 0.026-0.050 0.048-0.094 0.067-0.13 0.023-0.044 0.039-0.077 0.046-0.088 0.001-0.001 0.001-0.002 0.001-0.004l0.001-0.001c0 0 0.003-0.008 0.008-0.023s0.009-0.031 0.016-0.054c0.070-0.224 0.14-0.423 0.263-0.843 0.469-1.612-0.875-2.603-2.312-2.818-1.32-0.196-2.583 0.719-2.981 2.095 0 0-0.001 0.005-0.004 0.013-0.036 0.122-0.064 0.247-0.084 0.373-0.024 0.147-0.037 0.295-0.040 0.444z"
      />
<path
        fill="#a66161"
        style="fill: var(--color3, #a66161)"
        d="M12.080 8.251c0.103 0.846 0.601 1.638 1.669 1.973 0.986 0.311 1.7-0.407 2.137-1.137 0.299-0.503 0.69-1.519 0.863-1.982 0.022-0.057 0.041-0.105 0.054-0.143 0.017-0.050 0.030-0.083 0.032-0.094 0.001-0.001 0.001-0.002 0.001-0.004l-0.055 0.035-0.085 0.021-2.403 0.55-2.096-1.617c-0.001 0.011-0.002 0.022-0.004 0.034-0.001 0.008-0.002 0.015-0.001 0.023-0.009 0.062-0.023 0.173-0.034 0.321-0.031 0.32-0.099 0.796-0.108 1.3-0.007 0.241 0.004 0.481 0.031 0.72z"
      />
<path
        fill="#362e4d"
        style="fill: var(--color1, #362e4d)"
        d="M14.543 6.593c-0.121 0.029-0.222 0.192-0.242 0.329-0.009 0.059 0.004 0.126 0.044 0.162 0.059 0.052 0.144 0.017 0.202-0.038 0.050-0.049 0.088-0.108 0.113-0.173 0.022-0.052 0.030-0.109 0.022-0.164-0.009-0.055-0.044-0.106-0.091-0.117-0.016-0.004-0.032-0.003-0.048 0.001z"
      />
<path
        fill="#362e4d"
        style="fill: var(--color1, #362e4d)"
        d="M16.125 7.235c-0.116 0.028-0.213 0.185-0.233 0.315-0.008 0.057 0.004 0.121 0.043 0.156 0.056 0.050 0.139 0.016 0.194-0.036 0.048-0.047 0.085-0.104 0.108-0.166 0.021-0.050 0.028-0.104 0.021-0.157-0.009-0.053-0.042-0.103-0.087-0.112-0.015-0.003-0.031-0.003-0.045 0.001z"
      />
<path
        fill="#362e4d"
        style="fill: var(--color1, #362e4d)"
        d="M15.036 8.128c0.073 0 0.137-0.005 0.168-0.021s0.096-0.047 0.129-0.662c0.001-0.018-0.006-0.035-0.018-0.048s-0.028-0.021-0.046-0.022c-0.018-0.001-0.035 0.005-0.048 0.017s-0.021 0.028-0.023 0.046c-0.012 0.22-0.040 0.482-0.066 0.551-0.051 0.008-0.21 0.003-0.34-0.009-0.018-0.001-0.035 0.005-0.048 0.016s-0.022 0.027-0.023 0.045c-0.002 0.017 0.004 0.035 0.015 0.048s0.027 0.022 0.044 0.024c0.070 0.006 0.169 0.014 0.256 0.014z"
      />
<path
        fill="#fff"
        style="fill: var(--color4, #fff)"
        d="M15.073 8.542c-0.166-0.036-0.326-0.094-0.476-0.172-0.175-0.089-0.337-0.201-0.483-0.332 0 0-0.076 0.382 0.257 0.56 0.34 0.182 0.702-0.056 0.702-0.056z"
      />
<path
        fill="#362e4d"
        style="fill: var(--color1, #362e4d)"
        d="M14.282 5.937c0.016-0.008 0.033-0.014 0.050-0.018 0.212-0.051 0.435-0.022 0.626 0.082 0.097 0.054 0.379 0.284 0.169 0.38-0.025 0.010-0.053 0.015-0.080 0.014s-0.054-0.007-0.079-0.018c-0.050-0.022-0.098-0.049-0.142-0.081-0.144-0.090-0.303-0.153-0.47-0.186-0.058-0.011-0.132-0.035-0.134-0.094-0.001-0.037 0.026-0.063 0.061-0.080z"
      />
<path
        fill="#362e4d"
        style="fill: var(--color1, #362e4d)"
        d="M16.25 6.863c0.048 0.026 0.099 0.046 0.151 0.062 0.034 0.012 0.067 0.026 0.1 0.041 0.077 0.034 0.151 0.075 0.22 0.123 0.009 0.006 0.018 0.012 0.027 0.019 0.022-0.057 0.041-0.105 0.054-0.143 0.017-0.050 0.030-0.083 0.032-0.094 0.001-0.001 0.001-0.002 0.001-0.004l0.001-0.001c0 0 0.003-0.008 0.008-0.023-0.082-0.089-0.182-0.159-0.293-0.206-0.093-0.038-0.285-0.075-0.375-0.007-0.095 0.073-0.005 0.187 0.074 0.233z"
      />
<path
        fill="#362e4d"
        style="fill: var(--color1, #362e4d)"
        d="M17.198 5.602c0 0-2.493-1.251-2.822-1.284s-0.725 1.336-1.070 1.319c-0.346-0.017-0.775 0.492-1.078 0.874s-0.41 0.447-0.41 0.447c-0.080-0.27-0.137-0.545-0.171-0.825-0.017-0.142-0.27-1.836 0.341-2.458 0.378-0.385 0.944-0.484 1.403-0.492s0.977-0.193 1.137-0.176c0.16 0.017 0.429-0.083 0.96-0.001s1.053 0.421 1.255 0.615c0.202 0.193 0.539 0.689 0.556 1.168s-0.103 0.813-0.103 0.813z"
      />
<path
        fill="#a66161"
        style="fill: var(--color3, #a66161)"
        d="M13.31 6.093c-0.117 0.55-0.503 0.935-0.862 0.859s-0.556-0.583-0.44-1.133c0.117-0.55 0.503-0.935 0.862-0.859s0.556 0.583 0.44 1.134z"
      />
<path
        fill="#362e4d"
        style="fill: var(--color1, #362e4d)"
        d="M14.367 3.1c0 0 0.572-1.181 0.795-1.699 0.132-0.302 0.403-0.832 0.153-1.139-0.203-0.249-0.526 0.068-0.628 0.262-0.085 0.161-0.195 0.508-0.195 0.508s-0.051-1.032-0.594-1.032c-0.636 0-0.246 1.134-0.246 1.134s-0.539-0.885-0.975-0.634c-0.56 0.321 0.239 1.125 0.543 1.48 0.441 0.517 1.148 1.121 1.148 1.121z"
      />
<path
        fill="#f5cabf"
        style="fill: var(--color5, #f5cabf)"
        d="M14.299 10.353c0 0-1.074 2.79-2.023 2.958s-3.223-3.592-3.223-3.592l-1.72 0.488c0 0 0.404 4.751 0.236 5.188s1.887 7.899 1.449 10.992c-0.438 3.092-0.303 5.614-0.303 5.614h7.775c0 0 0.296-14.623 0.355-15.967s-0.025-5.262-0.177-5.344c-0.152-0.082-2.37-0.336-2.37-0.336z"
      />
<path
        fill="#8abadd"
        style="fill: var(--color2, #8abadd)"
        d="M7.942 10.034c0 0 0.585 2.131 1.077 5.041 0.272 1.613 0.679 5.877 0.831 7.412 0.605 6.091 0.292 9.513 0.292 9.513h-6.347c0 0-0.219-1.311-0.371-3.731s0.118-16.118 0.421-16.504c0.303-0.386 1.546-0.829 1.949-1.008s2.147-0.722 2.147-0.722z"
      />
<path
        fill="#8abadd"
        style="fill: var(--color2, #8abadd)"
        d="M15.733 10.529c0 0 0.498 1.974 0.599 3.319s0.13 5.547 0.158 6.756c0.029 1.21-0.062 5.983-0.144 7.059s-0.301 4.337-0.301 4.337h3.522c0 0-0.067-4.034 0.135-5.883s0.236-12.558-0.146-13.495c-0.382-0.937-0.92-1.5-2.045-1.787-0.584-0.148-1.178-0.25-1.778-0.306z"
      />
<path
        fill="#362e4d"
        style="fill: var(--color1, #362e4d)"
        d="M19.347 19.918c0.017 0 0.033-0.006 0.046-0.018s0.020-0.027 0.022-0.044l0.261-3.735c0.001-0.018-0.004-0.035-0.016-0.049s-0.028-0.022-0.046-0.023c-0.018-0.001-0.035 0.005-0.048 0.017s-0.022 0.028-0.024 0.045l-0.261 3.734c-0.001 0.018 0.005 0.035 0.016 0.049s0.028 0.022 0.046 0.023l0.005 0.001z"
      />
<path
        fill="#a66161"
        style="fill: var(--color3, #a66161)"
        d="M10.455 19.808l-1.167 1.401c0 0 1.775 3.317 2.359 3.384s2.463 0 2.463 0l-0.553-4.908-3.102 0.123z"
      />
<path
        fill="#a66161"
        style="fill: var(--color3, #a66161)"
        d="M10.455 19.808c0 0 0.687-0.986 2.304-1.254s4.533-0.134 5.106-0.134c0.337 0 0.801 0.013 1.142 0.013 0.646 0 1.179 0.721 0.742 1.294-0.249 0.327-0.594 0.326-0.859 0.327l-5.375 0.016c-0.316 0-0.661 0.043-0.975 0.003l-2.084-0.264z"
      />
<path
        fill="#fff"
        style="fill: var(--color4, #fff)"
        d="M15.017 20.033c0.003 0 0.005 0 0.008 0 0.008 0 0.838-0.104 0.846-0.805s-0.77-0.806-0.778-0.807c-0.018-0.002-0.036 0.003-0.050 0.014s-0.023 0.027-0.025 0.045c-0.002 0.018 0.003 0.036 0.014 0.050s0.027 0.023 0.045 0.025c0.027 0.004 0.667 0.091 0.659 0.672-0.007 0.584-0.72 0.673-0.727 0.674-0.017 0.002-0.033 0.010-0.044 0.023s-0.017 0.030-0.016 0.047c0.001 0.017 0.008 0.033 0.021 0.045s0.029 0.018 0.046 0.018l0.001-0.001z"
      />
<path
        fill="#fff"
        style="fill: var(--color4, #fff)"
        d="M16.667 20.033c0.003 0 0.005 0 0.008 0 0.009 0 0.838-0.104 0.846-0.805s-0.77-0.806-0.778-0.807c-0.018-0.002-0.036 0.003-0.050 0.014s-0.023 0.027-0.025 0.045c-0.002 0.018 0.003 0.036 0.014 0.050s0.027 0.023 0.045 0.025c0.027 0.004 0.667 0.091 0.659 0.672-0.007 0.584-0.72 0.673-0.727 0.674-0.017 0.002-0.033 0.010-0.044 0.023s-0.017 0.030-0.016 0.047c0.001 0.017 0.009 0.033 0.021 0.045s0.029 0.018 0.046 0.018l0.001-0.001z"
      />
<path
        fill="#fff"
        style="fill: var(--color4, #fff)"
        d="M18.317 20.033c0.003 0 0.005 0 0.008 0 0.009 0 0.838-0.104 0.846-0.805s-0.77-0.806-0.778-0.807c-0.018-0.002-0.036 0.003-0.050 0.014s-0.023 0.027-0.025 0.045c-0.002 0.018 0.003 0.036 0.014 0.050s0.027 0.023 0.045 0.025c0.027 0.004 0.667 0.091 0.659 0.672-0.007 0.584-0.72 0.673-0.727 0.674-0.017 0.002-0.033 0.010-0.044 0.023s-0.017 0.030-0.016 0.047 0.009 0.033 0.021 0.045c0.013 0.012 0.029 0.018 0.046 0.018l0.001-0.001z"
      />
<path
        fill="#fcfcf0"
        style="fill: var(--color6, #fcfcf0)"
        d="M13.779 20.053h12.215c0.284 0 0.515 0.23 0.515 0.515v7.893c0 0.284-0.23 0.515-0.515 0.515h-12.215c-0.284 0-0.515-0.23-0.515-0.515v-7.892c0-0.284 0.231-0.515 0.515-0.515z"
      />
<path
        fill="#f87c56"
        style="fill: var(--color7, #f87c56)"
        d="M17.683 33.086c1.754-2.687-0.334-9.083-5.001-9.437-5.834-0.442-2.111 14.742 5.001 9.437z"
      />
<path
        fill="#f68d2e"
        style="fill: var(--color8, #f68d2e)"
        d="M30.384 19.050c-1.056-1.545-4.975-1.858-6.213 0.57-1.547 3.035 7.48 4.441 6.213-0.57z"
      />
<path
        fill="#ecb3cb"
        style="fill: var(--color9, #ecb3cb)"
        d="M11.070 36.291c2.261-2.084 6.289-6.927 4.313-9.63-2.47-3.379-11.368 10.12-4.313 9.63z"
      />
<path
        fill="#a66161"
        style="fill: var(--color3, #a66161)"
        d="M24.45 30.779c0.211-0.066 0.448-0.277 0.551-1.195s-0.089-1.74-0.348-2c-0.309-0.311-0.717-0.177-0.838-0.019-0.072 0.094-0.117 0.206-0.13 0.324 0 0 0.001-0.496-0.419-0.596s-0.68 0.268-0.714 0.45c-0.021 0.13-0.029 0.261-0.026 0.392 0 0-0.119-0.393-0.505-0.416s-0.602 0.315-0.632 0.493c-0.018 0.109-0.023 0.219-0.015 0.329 0 0-0.184-0.315-0.625-0.235s-0.468 0.824-0.509 1.358c-0.019 0.251-0.045 0.498 0.082 0.727 0.064 0.117 0.158 0.216 0.271 0.288s0.243 0.113 0.377 0.12c0.193 0.009 0.398-0.096 0.398-0.096s0.103 0.256 0.35 0.368c0.316 0.144 0.764 0.041 0.889-0.321 0.060 0.101 0.145 0.185 0.246 0.244s0.217 0.091 0.334 0.093c0.417 0.016 0.664-0.588 0.664-0.588s0.207 0.403 0.595 0.281z"
      />
<path
        fill="#fff"
        style="fill: var(--color4, #fff)"
        d="M23.865 30.473h0.005c0.018-0.001 0.034-0.010 0.046-0.023s0.017-0.031 0.016-0.048l-0.17-2.437c-0.002-0.017-0.010-0.034-0.024-0.045s-0.031-0.017-0.048-0.016c-0.018 0.001-0.034 0.010-0.046 0.023s-0.017 0.031-0.016 0.049l0.17 2.437c0.001 0.017 0.009 0.033 0.022 0.044s0.029 0.018 0.046 0.018z"
      />
<path
        fill="#fff"
        style="fill: var(--color4, #fff)"
        d="M22.588 30.759h0.001c0.018-0.001 0.035-0.008 0.047-0.021s0.019-0.030 0.019-0.048l-0.067-2.479c-0.001-0.018-0.009-0.035-0.021-0.047s-0.030-0.019-0.048-0.019c-0.009 0-0.018 0.002-0.026 0.006s-0.015 0.009-0.021 0.015c-0.006 0.006-0.011 0.014-0.014 0.022s-0.005 0.017-0.004 0.026l0.067 2.479c0.001 0.018 0.008 0.034 0.021 0.047s0.030 0.019 0.047 0.019z"
      />
<path
        fill="#fff"
        style="fill: var(--color4, #fff)"
        d="M21.356 30.694c0.018 0 0.035-0.007 0.048-0.020s0.020-0.030 0.020-0.047l0.001-2.049c0-0.009-0.002-0.018-0.005-0.026s-0.008-0.016-0.015-0.022-0.014-0.011-0.022-0.015c-0.008-0.003-0.017-0.005-0.026-0.005-0.018 0-0.035 0.007-0.048 0.020s-0.020 0.030-0.020 0.048l-0.002 2.049c0 0.018 0.007 0.035 0.020 0.048s0.030 0.020 0.048 0.020z"
      />
<path
        fill="#a66161"
        style="fill: var(--color3, #a66161)"
        d="M1.058 24.247c0 0 0.057 1.294 0.279 2.114 0.178 0.663 0.514 1.366 1.109 1.758 1.030 0.675 2.932-0.135 3.949-0.506 1.13-0.411 2.243-0.878 3.341-1.381 0.353-0.163 0.705-0.328 1.055-0.497 0.742-0.359 1.479-0.733 2.205-1.115l-2.72-4.351-9.218 3.979z"
      />
<path
        fill="#a66161"
        style="fill: var(--color3, #a66161)"
        d="M1.058 24.247l-0.086-1.189 5.266-1.047-3.833 2.692-1.346-0.456z"
      />
<path
        fill="#8abadd"
        style="fill: var(--color2, #8abadd)"
        d="M4.105 11.54c0 0-2.544 0.918-3.353 5.207-0.655 3.476-0.753 7.954-0.753 7.954s0.837-0.603 2.168-1.192c1.331-0.589 4.069-1.5 4.069-1.5l-2.132-10.469z"
      />
<path
        fill="#fff"
        style="fill: var(--color4, #fff)"
        d="M11.13 23.249h0.002c0.025 0 0.628-0.018 1.158-0.534 0.523-0.511 0.761-1.295 0.771-1.329 0.005-0.017 0.003-0.036-0.005-0.051s-0.023-0.027-0.040-0.032c-0.017-0.005-0.036-0.003-0.051 0.005s-0.027 0.023-0.033 0.040c-0.002 0.008-0.238 0.785-0.736 1.271-0.492 0.48-1.061 0.496-1.066 0.496-0.018 0-0.035 0.007-0.047 0.020s-0.019 0.030-0.019 0.048c0 0.018 0.007 0.035 0.020 0.047s0.030 0.019 0.048 0.019l-0.001-0z"
      />
<path
        fill="#fff"
        style="fill: var(--color4, #fff)"
        d="M8.705 24.958c0.364 0.541 0.71 0.956 1.030 1.274 0.353-0.163 0.705-0.328 1.056-0.497-0.326-0.269-0.73-0.697-1.19-1.377-0.998-1.48-0.721-2.953-0.536-3.566l-1.213 0.523c-0.127 0.939-0.061 2.286 0.854 3.643z"
      />
<path
        fill="#fff"
        style="fill: var(--color4, #fff)"
        d="M16.49 15.142h0.002c1.628-0.051 1.686-0.087 1.705-0.098 0.165-0.101-0.277-1.66-0.488-2.293-0.384-1.151-0.8-1.984-0.804-1.992-0.008-0.016-0.022-0.028-0.039-0.034s-0.036-0.004-0.051 0.004c-0.016 0.008-0.028 0.022-0.034 0.039s-0.004 0.035 0.004 0.051c0.004 0.008 0.416 0.833 0.797 1.974 0.359 1.073 0.531 1.96 0.525 2.139-0.16 0.021-1.059 0.058-1.619 0.075-0.018 0-0.035 0.008-0.047 0.020s-0.019 0.030-0.019 0.048c0 0.018 0.008 0.035 0.020 0.047s0.030 0.019 0.048 0.019h-0.001z"
      />
<path
        fill="#fff"
        style="fill: var(--color4, #fff)"
        d="M7.761 15.399c0.292 0 0.659-0.004 1.124-0.013 0.009-0 0.018-0.002 0.026-0.006s0.015-0.009 0.022-0.015c0.006-0.006 0.011-0.014 0.014-0.022s0.005-0.017 0.005-0.026c0-0.009-0.001-0.018-0.004-0.026s-0.008-0.016-0.015-0.022c-0.007-0.006-0.014-0.011-0.023-0.014s-0.018-0.004-0.027-0.003c-0.912 0.018-1.929 0.016-2.126-0.021-0.011-0.221-0.009-1.383 0.077-2.292 0.106-1.123 0.185-2.435 0.185-2.448 0.001-0.018-0.005-0.035-0.017-0.049s-0.029-0.021-0.046-0.022c-0.018-0.001-0.035 0.005-0.049 0.017s-0.021 0.028-0.023 0.046c0 0.013-0.080 1.323-0.185 2.443-0.092 0.975-0.091 2.27-0.072 2.364 0.011 0.053 0.022 0.109 1.135 0.109z"
      />
<path
        fill="#fff"
        style="fill: var(--color4, #fff)"
        d="M6.527 21.831h0.007c0.018-0.002 0.034-0.011 0.045-0.025s0.016-0.032 0.015-0.049l-0.579-5.382c-0.001-0.009-0.003-0.017-0.008-0.025s-0.010-0.015-0.017-0.020c-0.007-0.006-0.015-0.010-0.023-0.012s-0.018-0.003-0.026-0.002c-0.018 0.002-0.034 0.011-0.045 0.025s-0.016 0.032-0.015 0.049l0.579 5.381c0.002 0.016 0.010 0.032 0.022 0.043s0.028 0.017 0.045 0.017z"
      />
<path
        fill="#362e4d"
        style="fill: var(--color1, #362e4d)"
        d="M12.4 6.711c0.056 0 0.111-0.017 0.158-0.048s0.083-0.076 0.105-0.128c0.022-0.052 0.027-0.109 0.016-0.164s-0.038-0.106-0.078-0.146c-0.040-0.040-0.091-0.067-0.146-0.078s-0.113-0.005-0.165 0.016-0.097 0.058-0.128 0.105c-0.031 0.047-0.048 0.102-0.048 0.158 0 0.075 0.030 0.148 0.083 0.201s0.126 0.083 0.202 0.083zM12.4 6.277c0.030 0 0.059 0.009 0.083 0.025s0.044 0.040 0.055 0.067c0.011 0.027 0.014 0.058 0.009 0.087s-0.020 0.056-0.041 0.077c-0.021 0.021-0.048 0.035-0.077 0.041s-0.059 0.003-0.087-0.009-0.051-0.031-0.067-0.055c-0.017-0.025-0.025-0.054-0.025-0.083 0-0.040 0.016-0.077 0.044-0.105s0.066-0.044 0.106-0.044v-0.001z"
      />
<path
        fill="#0f0a1c"
        style="fill: var(--color10, #0f0a1c)"
        d="M13.774 2.524c0.005-0 0.010-0.001 0.015-0.002 0.002 0 0.184-0.041 0.364-0.062s0.489-0.012 0.492-0.012c0.018-0.001 0.034-0.008 0.047-0.020s0.021-0.028 0.022-0.046c0-0.009-0.001-0.018-0.004-0.026s-0.008-0.016-0.014-0.022-0.013-0.012-0.021-0.015c-0.008-0.004-0.017-0.006-0.026-0.006-0.013 0-0.323-0.008-0.511 0.013s-0.371 0.062-0.378 0.064c-0.016 0.004-0.030 0.013-0.040 0.027s-0.014 0.030-0.012 0.046c0.002 0.016 0.010 0.031 0.022 0.042s0.028 0.017 0.045 0.017v-0z"
      />
<path
        fill="#0f0a1c"
        style="fill: var(--color10, #0f0a1c)"
        d="M14.385 2.414c0.017 0 0.033-0.006 0.046-0.018s0.020-0.027 0.021-0.044l0.097-1.252c0.001-0.018-0.005-0.035-0.016-0.048s-0.028-0.022-0.046-0.023c-0.018-0.001-0.035 0.004-0.049 0.016s-0.022 0.028-0.024 0.045l-0.097 1.252c-0.001 0.009 0 0.018 0.003 0.026s0.007 0.016 0.013 0.023c0.006 0.007 0.013 0.012 0.021 0.016s0.016 0.006 0.025 0.007l0.005-0z"
      />
<path
        fill="#0f0a1c"
        style="fill: var(--color10, #0f0a1c)"
        d="M14.083 2.419l0.125-0.051c0 0-0.148-0.358-0.242-0.588-0.111-0.273-0.24-0.621-0.241-0.624-0.006-0.017-0.019-0.030-0.035-0.038s-0.035-0.008-0.052-0.002c-0.017 0.006-0.030 0.019-0.038 0.035s-0.008 0.035-0.002 0.051c0.001 0.004 0.131 0.353 0.243 0.628 0.094 0.23 0.242 0.589 0.242 0.589z"
      />
<path
        fill="#fff"
        style="fill: var(--color4, #fff)"
        d="M8.513 16.122c0 0.052 0.015 0.102 0.044 0.145s0.070 0.076 0.117 0.096c0.048 0.020 0.1 0.025 0.151 0.015s0.097-0.035 0.134-0.071c0.037-0.036 0.061-0.083 0.072-0.134s0.005-0.103-0.015-0.151c-0.020-0.048-0.053-0.088-0.096-0.117s-0.094-0.044-0.145-0.044c-0.069 0-0.136 0.027-0.185 0.076s-0.077 0.115-0.077 0.184z"
      />
<path
        fill="#fff"
        style="fill: var(--color4, #fff)"
        d="M9.027 20.268c-0 0.052 0.015 0.102 0.044 0.145s0.069 0.076 0.117 0.096c0.048 0.020 0.1 0.025 0.151 0.015s0.097-0.035 0.134-0.071c0.037-0.036 0.062-0.083 0.072-0.133s0.005-0.103-0.015-0.151c-0.020-0.048-0.053-0.088-0.096-0.117s-0.094-0.044-0.145-0.044c-0.069 0-0.136 0.027-0.185 0.076s-0.077 0.115-0.077 0.184z"
      />
<path
        fill="#fff"
        style="fill: var(--color4, #fff)"
        d="M9.549 29.126c0 0.052 0.015 0.102 0.044 0.145s0.070 0.076 0.117 0.096c0.048 0.020 0.1 0.025 0.151 0.015s0.097-0.035 0.134-0.071 0.061-0.083 0.071-0.134c0.010-0.051 0.005-0.103-0.015-0.151s-0.053-0.088-0.096-0.117c-0.043-0.029-0.094-0.044-0.145-0.044-0.034 0-0.068 0.007-0.1 0.020s-0.060 0.032-0.085 0.056c-0.024 0.024-0.043 0.053-0.057 0.085s-0.020 0.065-0.020 0.1z"
      />
</symbol>
<symbol id="aetna" viewBox="0 0 93 32">
<path
        fill="#7d3f98"
        style="fill: var(--color8, #7d3f98)"
        d="M11.836 13.847c-0.061-0.937-0.122-1.862-0.161-2.786 0-0.081 0.126-0.223 0.218-0.246 0.803-0.191 1.603-0.41 2.419-0.527 0.733-0.114 1.577-0.18 2.438-0.18 0.665 0 1.322 0.039 1.966 0.115l-0.078-0.008c0.746 0.088 1.473 0.247 2.15 0.578 1.115 0.546 1.732 1.46 1.943 2.608 0.138 0.753 0.15 1.529 0.191 2.296 0.012 0.23 0.051 0.323 0.317 0.323 0.668 0 1.336 0.019 2.004 0.055 0.267 0.014 0.36-0.050 0.396-0.322 0.14-1.051 0.425-2.063 1.002-2.98 0.622-1.011 1.609-1.765 2.771-2.119 2.203-0.69 4.438-0.735 6.652-0.070 1.313 0.394 2.312 1.193 2.665 2.534 0.38 1.445 0.196 2.8-0.965 3.895-0.717 0.678-1.636 0.987-2.595 1.19-1.458 0.308-2.935 0.275-4.413 0.243-0.129-0.003-0.259 0-0.385 0-0.171 1.022 0.372 2.32 1.532 2.893 0.945 0.468 1.956 0.531 2.986 0.442 1.082-0.099 2.131-0.41 3.084-0.915 0.029 0.083 0.051 0.169 0.065 0.256 0.047 0.82 0.083 1.636 0.135 2.453 0.013 0.209-0.050 0.337-0.266 0.382-0.896 0.188-1.784 0.446-2.69 0.548-1.551 0.176-3.11 0.145-4.653-0.152-1.448-0.279-2.733-0.835-3.658-2.002-0.687-0.868-1.015-1.876-1.21-2.934-0.050-0.268-0.069-0.542-0.131-0.807-0.020-0.084-0.133-0.206-0.208-0.209-0.758-0.034-1.519-0.047-2.275-0.067-0.176-0.005-0.214 0.082-0.221 0.234-0.087 1.716-0.092 3.432 0.068 5.145 0.016 0.176 0.040 0.346 0.061 0.541-0.093 0.015-0.168 0.032-0.243 0.036-1.98 0.097-3.959 0.206-5.939 0.283-1.267 0.049-2.53 0.013-3.751-0.382-1.523-0.492-2.405-1.513-2.596-3.039-0.038-0.264-0.060-0.569-0.060-0.879 0-0.346 0.027-0.685 0.079-1.016l-0.005 0.037c0.203-1.19 1.012-1.959 2.112-2.468 0.95-0.44 1.964-0.664 3.006-0.748 0.866-0.069 1.737-0.088 2.606-0.113 0.198-0.006 0.279-0.054 0.258-0.248-0.042-0.397-0.040-0.802-0.122-1.19-0.207-1.007-0.855-1.512-1.914-1.598-1.539-0.127-2.967 0.228-4.344 0.852-0.036 0.018-0.081 0.037-0.128 0.055l-0.010 0.003c-0.020 0.003-0.043 0.005-0.067 0.005-0.012 0-0.024-0-0.036-0.001l0.002 0zM31.323 16.198c0.041 0.001 0.089 0.001 0.137 0.001 0.685 0 1.345-0.108 1.964-0.307l-0.045 0.013c0.994-0.308 1.474-1.46 1.028-2.376-0.147-0.281-0.368-0.506-0.638-0.654l-0.008-0.004c-1.088-0.564-2.543-0.069-3.069 1.005-0.318 0.649-0.375 1.347-0.415 2.049-0.008 0.144 0.040 0.216 0.2 0.222 0.282 0.013 0.564 0.035 0.847 0.051zM18.374 21.801v-2.931c0-0.126 0-0.254 0.005-0.38 0.004-0.17-0.099-0.222-0.253-0.211-0.573 0.040-1.158 0.026-1.716 0.135-1.368 0.269-1.921 1.226-1.518 2.505 0.15 0.477 0.482 0.757 0.958 0.886 0.835 0.223 1.673 0.152 2.524-0.003zM56.074 24.282h-4.74c0.166-4.57 0.204-9.126-0.008-13.695 0.44-0.024 0.862-0.039 1.284-0.071 1.421-0.108 2.84-0.25 4.262-0.326 1.534-0.082 3.074-0.136 4.575 0.299 1.883 0.545 2.733 1.677 2.939 3.436 0.117 0.993 0.061 2.004 0.079 3.007 0.026 1.784 0.040 3.571 0.073 5.354 0.010 0.546 0.066 1.089 0.099 1.634 0.006 0.113 0 0.228 0 0.36h-4.725c-0.011-0.070-0.019-0.154-0.021-0.238l-0-0.003c0.049-2.007 0.121-4.016 0.144-6.024 0.002-0.15 0.003-0.327 0.003-0.504 0-0.943-0.035-1.878-0.105-2.804l0.007 0.123c-0.102-1.347-0.696-1.889-2.088-1.918-0.558-0.011-1.118 0.132-1.677 0.206-0.173 0.023-0.22 0.127-0.22 0.293 0.008 2.993 0.006 5.987 0.019 8.981 0 0.535 0.065 1.069 0.098 1.605 0.006 0.081 0.001 0.17 0.001 0.285zM67.84 13.896c-0.045-0.829-0.094-1.613-0.129-2.4-0.028-0.632-0.033-0.679 0.625-0.816 1.004-0.209 2.019-0.403 3.039-0.499 1.227-0.117 2.465-0.109 3.689 0.095 1.174 0.196 2.254 0.57 2.989 1.551 0.464 0.61 0.757 1.373 0.795 2.202l0 0.009c0.034 0.679 0.053 1.475 0.053 2.275 0 0.494-0.007 0.987-0.022 1.478l0.002-0.072c-0.051 1.998-0.156 3.995 0.047 5.992l0.061 0.59c-0.304 0-0.575-0.012-0.844 0-1.332 0.067-2.664 0.15-3.996 0.211-1.584 0.073-3.169 0.187-4.737-0.207-1.729-0.434-2.774-1.569-2.981-3.284-0.105-0.865-0.098-1.712 0.307-2.518 0.471-0.933 1.286-1.484 2.253-1.85 1.249-0.472 2.562-0.622 3.892-0.66 0.382-0.012 0.85-0.021 1.319-0.023l0.017-0c0.137 0 0.254-0.011 0.235-0.18-0.061-0.529-0.061-1.078-0.207-1.585-0.232-0.802-0.902-1.2-1.839-1.274-1.495-0.116-2.888 0.219-4.232 0.812-0.093 0.045-0.184 0.087-0.336 0.155zM74.362 21.798c0.012-0.023 0.023-0.050 0.030-0.079l0.001-0.003c0-1.071-0.006-2.142-0.005-3.213 0-0.186-0.105-0.239-0.27-0.227-0.552 0.038-1.113 0.033-1.654 0.128-1.196 0.212-1.736 0.87-1.677 1.957 0.047 0.865 0.472 1.366 1.315 1.505 0.75 0.125 1.519 0.101 2.26-0.069zM49.274 21.308c0.060 0.916 0.122 1.811 0.186 2.704 0.010 0.143 0.012 0.268-0.188 0.303-1.755 0.307-3.511 0.479-5.245-0.087-1.198-0.391-1.94-1.221-2.229-2.391-0.125-0.498-0.196-1.069-0.196-1.658 0-0.006 0-0.013 0-0.020v0.001c0-2.108 0.028-4.215 0.060-6.323 0.005-0.281-0.074-0.38-0.371-0.365-0.41 0.022-0.823 0.006-1.269 0.006 0-0.737-0.008-1.437 0.013-2.136 0-0.066 0.177-0.158 0.285-0.183 0.834-0.19 1.601-0.495 2.164-1.149 0.564-0.655 0.81-1.43 0.981-2.24 0.061-0.285 0.105-0.573 0.16-0.878h2.632l-0.165 3.673h0.388c0.749 0 1.498 0.005 2.247 0 0.193 0 0.271 0.050 0.269 0.246-0.004 0.361-0.006 0.788-0.006 1.215s0.002 0.854 0.006 1.28l-0.001-0.065c0 0.2-0.087 0.244-0.275 0.243-0.779-0.007-1.558 0.006-2.338-0.007-0.25-0.004-0.328 0.076-0.327 0.318 0.010 1.815-0.011 3.629 0.019 5.444 0.008 0.499 0.116 1.005 0.25 1.491 0.109 0.399 0.441 0.636 0.865 0.745 0.623 0.158 1.119 0.126 2.083-0.166zM81.289 10.983c0 0.279 0.008 0.56-0.005 0.839-0.004 0.077-0.072 0.151-0.11 0.227-0.032-0.070-0.090-0.141-0.091-0.212-0.009-0.36-0.004-0.72 0-1.080 0-0.048 0.008-0.095 0.013-0.154 0.226-0.090 0.357-0.036 0.43 0.195 0.094 0.305 0.212 0.603 0.32 0.905l0.087 0.008c0.116-0.312 0.23-0.625 0.348-0.937 0.087-0.23 0.091-0.228 0.411-0.168 0 0.43 0.004 0.866-0.005 1.302 0 0.048-0.071 0.095-0.109 0.142-0.033-0.050-0.091-0.099-0.093-0.15-0.009-0.306-0.004-0.614-0.004-0.92l-0.081-0.015c-0.118 0.304-0.23 0.609-0.356 0.91-0.028 0.068-0.106 0.116-0.161 0.175-0.049-0.054-0.118-0.101-0.145-0.164-0.126-0.303-0.24-0.61-0.358-0.915l-0.091 0.013zM80.678 10.973c-0.084-0.033-0.154-0.067-0.221-0.106l0.008 0.004c-0.055-0.038-0.090-0.123-0.147-0.137-0.182-0.041-0.416-0.116-0.506 0.109-0.098 0.24 0.133 0.279 0.309 0.327 0.118 0.029 0.234 0.063 0.348 0.104 0.304 0.121 0.397 0.485 0.132 0.654-0.179 0.117-0.451 0.132-0.679 0.122s-0.385-0.156-0.425-0.475c0.113 0.064 0.182 0.1 0.248 0.14 0.105 0.066 0.2 0.168 0.314 0.192 0.178 0.037 0.392 0.036 0.449-0.186 0.061-0.243-0.154-0.28-0.329-0.33-0.15-0.032-0.276-0.069-0.399-0.113l0.022 0.007c-0.304-0.13-0.332-0.468-0.067-0.657 0.352-0.247 0.838-0.097 0.944 0.347z"
      />
</symbol>
<symbol id="unitedhealthcare" viewBox="0 0 93 32">
<path
        fill="#002677"
        style="fill: var(--color7, #002677)"
        d="M11.365 27.43c0.795 0.275 1.63 0.418 2.478 0.405 3.729 0 6.324-2.705 6.324-7.856v-15.36l1.421-0.68v16.301c0 5.255-2.7 8.314-6.533 8.314-1.33 0-2.608-0.392-3.69-1.124zM9.736 25.861c0.861 0.288 1.721 0.471 2.477 0.471 3.13 0 5.216-1.974 5.216-6.419v-14.118l1.395-0.667v14.903c0 4.653-2.36 7.046-5.633 7.046-1.2 0-2.426-0.445-3.456-1.216zM8.758 24.475c0.664 0.222 1.368 0.34 2.073 0.366 2.438 0 3.938-1.334 3.938-4.85v-13.020l1.369-0.667v13.464c0 3.948-1.8 5.726-4.381 5.726-0.017 0-0.036 0-0.055 0-1.116 0-2.142-0.384-2.954-1.027l0.010 0.008zM13.465 20.371v-12.85l-6.038 2.731v10.432c0 1.987 1.252 3.32 3.091 3.32s2.947-1.36 2.947-3.634zM29.347 7.494v4.784c0 1.765 1.043 3.151 3.038 3.151 1.708 0 2.999-1.268 2.999-3.19v-4.628c-0.013-0.51 0.378-0.941 0.887-0.954h0.013l0.183-0.013v-0.457h-2.999v0.457l0.196 0.013c0.499 0.011 0.9 0.418 0.9 0.919 0 0.008-0 0.015-0 0.023l0-0.001v4.498c0 1.464-0.756 2.353-1.943 2.353s-1.903-0.941-1.903-2.366v-4.602c0-0.497 0.273-0.797 0.834-0.823l0.183-0.013v-0.457h-3.416v0.457l0.195 0.013c0.561 0.052 0.835 0.326 0.835 0.837zM33.402 17.716l0.196 0.013c0.482 0.026 0.834 0.222 0.834 0.758v2.811h-3.377v-2.81c0-0.549 0.365-0.719 0.834-0.759l0.183-0.013v-0.458h-3.416v0.458l0.195 0.013c0.483 0.026 0.834 0.222 0.834 0.758v6.589c0 0.549-0.365 0.733-0.834 0.759l-0.195 0.013v0.457h3.416v-0.457l-0.183-0.013c-0.483-0.040-0.834-0.222-0.834-0.759v-3.072h3.364v3.072c0 0.549-0.365 0.733-0.835 0.759l-0.196 0.013v0.457h3.416v-0.457l-0.183-0.013c-0.47-0.040-0.834-0.222-0.834-0.759v-6.588c0-0.549 0.365-0.719 0.834-0.758l0.183-0.013v-0.458h-3.404v0.458zM36.466 8.853v0.432l0.261 0.013c0.392 0.026 0.639 0.222 0.639 0.758v3.974c0 0.536-0.274 0.732-0.704 0.759l-0.196 0.013v0.444h3.051v-0.444l-0.182-0.013c-0.443-0.026-0.704-0.222-0.704-0.758v-2.118c0.026-1.556 0.691-2.484 1.486-2.484 0.6 0 1.004 0.419 1.004 1.216v3.373c0 0.536-0.273 0.732-0.704 0.758l-0.196 0.013v0.444h3.051v-0.444l-0.183-0.013c-0.443-0.026-0.704-0.222-0.704-0.758v-3.529c0-1.007-0.613-1.843-1.839-1.843-0.861 0-1.617 0.523-1.904 1.438v-1.412l-2.178 0.183zM54.082 15.377c1.304 0 2.034-0.889 2.334-1.896l-0.561-0.157c-0.261 0.693-0.704 1.242-1.604 1.242-1.043 0-1.747-0.994-1.747-2.575h4.003v-0.379c0-1.66-0.977-3.006-2.555-3.006-1.682 0-2.804 1.62-2.804 3.386s1.082 3.386 2.934 3.386zM53.939 9.338c0.704 0 1.161 0.667 1.213 2.013h-2.634c0.131-1.242 0.652-2.013 1.421-2.013zM47.745 13.795c0 1.007 0.599 1.582 1.578 1.582 0.9 0 1.499-0.667 1.76-1.608l-0.469-0.13c-0.183 0.549-0.483 0.876-0.887 0.876-0.548 0-0.717-0.392-0.717-0.863v-4.183h1.76v-0.667h-1.76v-1.987h-0.639c-0.248 1.503-1.004 2.039-1.8 2.209v0.458h1.187l-0.013 4.314zM45.046 7.638c0.47-0.013 0.835-0.419 0.822-0.889-0.013-0.444-0.378-0.797-0.822-0.823-0.457 0-0.822 0.379-0.822 0.836-0.026 0.484 0.339 0.863 0.822 0.876-0.013 0-0.013 0 0 0zM44.446 10.056v3.974c0 0.536-0.273 0.732-0.704 0.759l-0.196 0.013v0.444h3.052v-0.444l-0.183-0.013c-0.443-0.026-0.704-0.222-0.704-0.758v-5.347l-2.23 0.17v0.432l0.326 0.013c0.391 0 0.639 0.209 0.639 0.758zM59.793 15.377c0.848 0 1.513-0.444 1.786-1.19v1.059h2.152v-0.431l-0.182-0.013c-0.443-0.026-0.705-0.222-0.705-0.758v-8.013l-2.191 0.196v0.432l0.287 0.013c0.392 0.013 0.639 0.222 0.639 0.758v2.327c-0.287-0.719-0.938-1.151-1.786-1.151-1.682 0-2.647 1.622-2.647 3.386s0.952 3.386 2.647 3.386zM60.002 9.338c0.952 0 1.577 1.033 1.577 2.64s-0.613 2.641-1.577 2.641c-0.9 0-1.5-1.020-1.5-2.641s0.6-2.64 1.5-2.64zM78.961 19.69c-0.744 0-1.395 0.497-1.669 1.373v-1.321l-2.164 0.17v0.432l0.261 0.013c0.391 0.026 0.639 0.222 0.639 0.759v3.974c0 0.549-0.261 0.732-0.704 0.758l-0.195 0.013v0.444h3.051v-0.445l-0.183-0.013c-0.443-0.026-0.704-0.222-0.704-0.758v-2.17c0.026-1.608 0.717-2.628 1.578-2.628 0.010-0.001 0.021-0.001 0.032-0.001 0.156 0 0.298 0.066 0.398 0.171l0 0c-0.217 0.117-0.362 0.342-0.365 0.601v0c0 0.379 0.3 0.68 0.678 0.68s0.678-0.314 0.678-0.745c0-0.798-0.613-1.308-1.33-1.308zM83.108 19.665c-1.682 0-2.804 1.608-2.804 3.386s1.082 3.386 2.934 3.386c1.304 0 2.034-0.89 2.334-1.896l-0.56-0.157c-0.261 0.693-0.705 1.242-1.604 1.242-1.043 0-1.747-0.993-1.747-2.575h4.003v-0.379c0-1.66-0.978-3.006-2.555-3.006zM81.673 22.41c0.13-1.255 0.639-2.013 1.421-2.013 0.704 0 1.161 0.667 1.213 2.013h-2.634zM74.032 25.233v-3.373c0-1.385-0.861-2.196-2.321-2.196-1.252 0-2.36 0.823-2.36 1.765-0 0.008-0.001 0.017-0.001 0.026 0 0.368 0.298 0.666 0.665 0.666h0c0.378 0 0.691-0.287 0.691-0.666 0-0.248-0.13-0.484-0.352-0.602 0.235-0.327 0.639-0.523 1.147-0.523 0.796 0 1.265 0.588 1.265 1.583v0.3l-1.904 0.797c-1.278 0.524-1.708 0.994-1.708 1.83 0 0.968 0.691 1.582 1.787 1.582 0.808 0 1.526-0.51 1.812-1.268v0.196c0 0.667 0.47 1.059 1.239 1.059 0.274 0 0.547-0.039 0.809-0.118v-0.431c-0.535 0.065-0.77-0.144-0.77-0.628zM72.767 23.77c-0.065 1.137-0.625 1.896-1.421 1.896-0.561 0-0.926-0.393-0.926-0.981 0-0.522 0.287-0.941 0.822-1.176l1.526-0.68v0.941zM55.947 24.698c-0.183 0.536-0.47 0.876-0.887 0.876-0.548 0-0.717-0.392-0.717-0.863v-4.183h1.761v-0.666h-1.761v-1.988h-0.639c-0.248 1.503-1.004 2.039-1.8 2.21v0.457h1.187v4.314c0 1.007 0.599 1.583 1.577 1.583 0.9 0 1.5-0.667 1.761-1.609l-0.483-0.13zM47.771 25.233v-3.373c0-1.385-0.861-2.196-2.321-2.196-1.251 0-2.36 0.823-2.36 1.765-0 0.008-0.001 0.017-0.001 0.026 0 0.368 0.298 0.666 0.665 0.667h0c0.378 0 0.691-0.287 0.691-0.666 0-0.248-0.13-0.484-0.352-0.602 0.234-0.327 0.639-0.523 1.147-0.523 0.795 0 1.265 0.588 1.265 1.583v0.3l-1.904 0.797c-1.278 0.524-1.708 0.994-1.708 1.83 0 0.968 0.691 1.582 1.786 1.582 0.809 0 1.526-0.51 1.812-1.268v0.196c0 0.667 0.47 1.059 1.239 1.059 0.273 0 0.547-0.039 0.809-0.118v-0.431c-0.522 0.065-0.77-0.144-0.77-0.628zM46.519 23.77c-0.065 1.137-0.625 1.896-1.421 1.896-0.561 0-0.926-0.393-0.926-0.981 0-0.522 0.287-0.941 0.822-1.176l1.526-0.68v0.941zM66.6 25.613c-1.043 0-1.747-0.994-1.747-2.576 0-1.608 0.691-2.628 1.734-2.628 0.47 0 0.822 0.157 1.043 0.445-0.193 0.128-0.32 0.343-0.326 0.587v0.001c0 0.379 0.3 0.68 0.678 0.68 0.392 0 0.678-0.314 0.678-0.745 0-0.771-0.769-1.726-2.152-1.726-1.917 0-3.025 1.608-3.025 3.386 0 1.765 1.083 3.386 2.934 3.386 1.278 0 1.995-0.849 2.282-1.817l-0.561-0.17c-0.234 0.667-0.665 1.177-1.538 1.177zM51.031 25.089v-7.986l-2.19 0.183v0.432l0.287 0.013c0.391 0.013 0.639 0.222 0.639 0.758v6.602c0 0.549-0.273 0.732-0.704 0.758l-0.196 0.013v0.444h3.052v-0.431l-0.183-0.013c-0.431-0.040-0.704-0.236-0.704-0.771zM62.323 25.089v-3.529c0-1.007-0.613-1.843-1.839-1.843-0.861 0-1.617 0.51-1.904 1.438v-4.052l-2.191 0.183v0.432l0.287 0.013c0.391 0.013 0.639 0.222 0.639 0.758v6.602c0 0.549-0.273 0.732-0.704 0.758l-0.196 0.013v0.444h3.038v-0.431l-0.182-0.013c-0.443-0.026-0.705-0.222-0.705-0.759v-2.118c0.026-1.542 0.691-2.483 1.487-2.483 0.6 0 1.004 0.418 1.004 1.216v3.385c0 0.549-0.274 0.733-0.704 0.758l-0.196 0.013v0.445h3.051v-0.445l-0.183-0.013c-0.443-0.040-0.704-0.236-0.704-0.771zM39.869 19.665c-1.681 0-2.803 1.621-2.803 3.386s1.082 3.386 2.934 3.386c1.303 0 2.034-0.89 2.334-1.896l-0.56-0.157c-0.261 0.693-0.704 1.242-1.604 1.242-1.043 0-1.747-0.993-1.747-2.575h4.003v-0.379c0-1.66-0.991-3.006-2.556-3.006zM38.435 22.41c0.13-1.255 0.639-2.013 1.421-2.013 0.704 0 1.161 0.667 1.212 2.013h-2.634z"
      />
</symbol>
<symbol id="cigna" viewBox="0 0 93 32">
<path
        fill="#0982c6"
        style="fill: var(--color4, #0982c6)"
        d="M25.095 14.057c0 0.209-0.225 0.442-0.517 0.795-1.001 1.203-3.216 3.344-3.216 8.653 0 2.748 0.461 3.885 0.461 5.176 0 0.585-0.124 0.894-0.428 0.894-0.708 0-1.9-2.903-1.9-6.369 0-7.274 4.677-9.304 5.396-9.304 0.145-0.012 0.202 0.066 0.202 0.154zM13.325 13.892c0.719 0 5.396 2.031 5.396 9.304 0 3.477-1.192 6.369-1.9 6.369-0.315 0-0.427-0.309-0.427-0.894 0-1.292 0.461-2.428 0.461-5.176 0-5.309-2.226-7.45-3.215-8.653-0.293-0.353-0.518-0.585-0.518-0.795-0.010-0.077 0.056-0.154 0.203-0.154z"
      />
<path
        fill="#f8971f"
        style="fill: var(--color5, #f8971f)"
        d="M17.406 15.348c0 0.95 0.764 1.722 1.709 1.722s1.709-0.773 1.709-1.722c0-0.948-0.764-1.722-1.709-1.722 0 0-0 0-0 0-0.944 0-1.709 0.765-1.709 1.709 0 0.005 0 0.009 0 0.014v-0.001z"
      />
<path
        fill="#56b948"
        style="fill: var(--color6, #56b948)"
        d="M33.695 26.154c-2.428-1.468-6.127-2.991-11.478-3.477-0.012 0.066-0.056 0.453-0.056 0.828 0 0.177 0.034 0.408 0.034 0.453 5.228 0.331 8.949 1.424 11.468 2.307 0.036 0.020 0.077 0.035 0.121 0.044l0.003 0c0.023 0 0.045-0.022 0.045-0.044 0.012-0.033-0.034-0.055-0.135-0.111zM21.88 6.541c-0.404-0.365-0.753-0.917-0.483-1.755 0.258-0.806 0.888-1.457 1.551-1.645 0.45 0.519 0.596 1.413 0.337 2.218-0.259 0.849-0.855 1.115-1.406 1.181zM25.826 9.764c-0.147-0.497-0.135-1.115 0.528-1.667 0.63-0.519 1.484-0.739 2.125-0.541 0.090 0.652-0.259 1.446-0.888 1.965-0.663 0.552-1.293 0.464-1.765 0.243zM25.95 14.62c0.169-0.486 0.517-0.983 1.36-1.071 0.798-0.088 1.619 0.209 2.024 0.706-0.292 0.574-1.023 1.026-1.821 1.115-0.844 0.099-1.293-0.31-1.563-0.751zM24.522 16.386c0.27-0.364 0.709-0.695 1.439-0.552 0.709 0.133 1.316 0.596 1.529 1.126-0.404 0.419-1.146 0.618-1.855 0.475-0.731-0.144-1.001-0.607-1.113-1.048zM20.227 11.784c-0.495-0.431-0.899-1.093-0.585-2.108 0.304-0.972 1.057-1.755 1.866-1.965 0.539 0.618 0.719 1.688 0.404 2.66-0.314 1.015-1.034 1.335-1.686 1.413zM22.105 12.855c-0.157-0.563-0.146-1.258 0.596-1.877 0.708-0.585 1.675-0.827 2.383-0.607 0.101 0.728-0.292 1.623-1.001 2.207-0.742 0.629-1.439 0.529-1.978 0.276zM23.353 8.925c-0.36-0.563-0.574-1.314 0.022-2.23 0.574-0.861 1.54-1.435 2.384-1.424 0.36 0.762 0.225 1.855-0.349 2.715-0.595 0.927-1.382 1.038-2.057 0.938zM25.882 12.346c0.012-0.618 0.225-1.313 1.158-1.733 0.888-0.397 1.945-0.364 2.597 0.066-0.112 0.773-0.776 1.567-1.664 1.965-0.933 0.408-1.619 0.099-2.091-0.298zM17.732 5.261c0-1.169 0.562-2.295 1.383-2.803 0.82 0.508 1.371 1.634 1.371 2.803 0 1.225-0.685 1.811-1.371 2.131-0.697-0.32-1.383-0.905-1.383-2.131zM4.376 26.265c0 0.022 0.012 0.044 0.045 0.044 0.023 0 0.067-0.022 0.124-0.044 2.518-0.883 6.25-1.976 11.467-2.307 0.012-0.044 0.034-0.276 0.034-0.453 0-0.375-0.045-0.762-0.056-0.828-5.351 0.486-9.050 2.009-11.478 3.477-0.090 0.055-0.135 0.077-0.135 0.111zM14.921 5.36c-0.259-0.806-0.113-1.7 0.337-2.219 0.674 0.177 1.303 0.839 1.551 1.645 0.27 0.838-0.079 1.391-0.483 1.755-0.539-0.066-1.136-0.332-1.405-1.181zM10.626 9.521c-0.63-0.529-0.977-1.313-0.888-1.965 0.641-0.198 1.495 0.012 2.125 0.541 0.663 0.552 0.675 1.169 0.528 1.667-0.483 0.22-1.102 0.308-1.765-0.243zM10.705 15.382c-0.81-0.088-1.541-0.541-1.821-1.115 0.404-0.508 1.225-0.795 2.023-0.707 0.844 0.088 1.192 0.585 1.36 1.071-0.269 0.431-0.719 0.839-1.562 0.751zM12.571 17.435c-0.708 0.133-1.45-0.066-1.844-0.475 0.214-0.529 0.82-0.993 1.529-1.126 0.742-0.143 1.169 0.188 1.439 0.552-0.113 0.442-0.382 0.905-1.125 1.048zM16.293 10.371c-0.304-0.972-0.135-2.042 0.405-2.66 0.809 0.209 1.562 1.004 1.866 1.965 0.315 1.015-0.090 1.666-0.585 2.108-0.652-0.077-1.36-0.397-1.686-1.413zM14.134 12.589c-0.708-0.585-1.102-1.479-1.001-2.207 0.72-0.221 1.676 0.022 2.384 0.607 0.742 0.618 0.753 1.314 0.596 1.876-0.54 0.243-1.237 0.342-1.979-0.276zM12.796 8.009c-0.573-0.861-0.708-1.965-0.348-2.715 0.854-0.011 1.821 0.552 2.383 1.424 0.596 0.905 0.382 1.666 0.023 2.23-0.663 0.077-1.45-0.033-2.057-0.938zM10.244 12.634c-0.888-0.397-1.562-1.192-1.664-1.965 0.663-0.431 1.709-0.464 2.597-0.066 0.933 0.419 1.147 1.115 1.158 1.733-0.472 0.408-1.158 0.717-2.091 0.298z"
      />
<path
        fill="#0982c6"
        style="fill: var(--color4, #0982c6)"
        d="M64.016 22.689v-6.733c0-0.905-0.090-2.627-0.112-3.024h2.125l0.101 1.368h0.045c0.247-0.386 1.046-1.589 2.9-1.589 2.237 0 3.485 1.612 3.485 3.631v6.336h-2.372v-5.873c0-1.236-0.708-2.174-1.911-2.174-1.248 0-1.911 0.982-1.911 2.174v5.872h-2.349v0.012zM50.166 12.965h-2.372v9.724h2.372v-9.724zM83.96 22.689c-0.079-0.541-0.304-1.976-0.304-3.212v-6.324c-0.371-0.088-1.72-0.442-3.26-0.442-4.013 0-5.745 2.639-5.745 5.497 0 2.627 1.349 4.691 3.924 4.691 1.889 0 2.732-1.203 3.046-1.833h0.056c0.022 0.298 0.112 1.336 0.134 1.623h2.147zM81.296 17.865c0 2.23-0.888 3.157-2.17 3.157-1.293 0-2.024-1.082-2.024-2.969 0-1.932 1.136-3.532 3.216-3.532 0.427 0 0.731 0.044 0.989 0.099v3.245h-0.011zM45.432 20.304c-0.64 0.298-1.675 0.497-2.675 0.497-2.721 0-4.733-1.91-4.733-4.823 0-2.892 1.99-4.823 4.733-4.823 1.36 0 2.327 0.32 2.676 0.485v-2.086c-0.596-0.221-1.563-0.442-2.923-0.442-4.227 0-7.071 2.87-7.071 6.854 0 3.775 2.619 6.854 7.071 6.854 1.304 0 2.282-0.198 2.923-0.43v-2.086zM59.092 21.519v0.728c0 1.987-1.247 2.76-2.799 2.76-1.395 0-2.417-0.408-2.744-0.519v1.965c0.27 0.066 1.394 0.419 3.002 0.419 2.867 0 4.778-1.159 4.778-5.132v-8.576c-0.371-0.088-1.709-0.442-3.261-0.442-4.013 0-5.745 2.639-5.745 5.497 0 2.627 1.349 4.691 3.924 4.691 1.698 0 2.518-1.005 2.788-1.38h0.056v-0.011zM58.968 17.865c0 2.23-0.888 3.157-2.181 3.157s-2.024-1.082-2.024-2.969c0-1.932 1.125-3.532 3.215-3.532 0.428 0 0.731 0.044 0.99 0.099v3.245zM47.512 10.415c0 0.784 0.652 1.413 1.473 1.413 0.81 0 1.462-0.629 1.462-1.413s-0.652-1.413-1.462-1.413c-0.809 0-1.472 0.64-1.472 1.413zM88.322 22.402c-0.235 0.239-0.562 0.386-0.924 0.386-0.003 0-0.007 0-0.010-0h0.001c-0.371 0-0.675-0.133-0.933-0.386-0.236-0.226-0.382-0.544-0.382-0.895 0-0.007 0-0.015 0-0.022v0.001c0-0.353 0.124-0.662 0.382-0.916s0.562-0.375 0.933-0.375c0.007-0 0.016-0 0.025-0 0.355 0 0.676 0.143 0.908 0.376l-0-0c0.235 0.223 0.382 0.538 0.382 0.887 0 0.010-0 0.020-0 0.030l0-0.001c0 0.354-0.123 0.663-0.382 0.916zM86.579 20.691c-0.225 0.221-0.326 0.474-0.326 0.783s0.112 0.574 0.326 0.795c0.225 0.221 0.483 0.332 0.798 0.332s0.585-0.111 0.798-0.332c0.225-0.221 0.326-0.485 0.326-0.794 0-0.005 0-0.011 0-0.016 0-0.301-0.125-0.573-0.326-0.767l-0-0c-0.225-0.221-0.495-0.332-0.798-0.332-0.31 0.009-0.59 0.133-0.798 0.332l0-0zM87.355 20.768c0.18 0 0.315 0.022 0.393 0.055 0.146 0.055 0.225 0.177 0.225 0.364 0 0.133-0.045 0.221-0.147 0.276-0.045 0.033-0.123 0.055-0.214 0.066 0.112 0.022 0.191 0.066 0.247 0.144 0.049 0.060 0.079 0.137 0.079 0.221v0.21c0 0.033 0.011 0.066 0.011 0.077l0.011 0.022h-0.236v-0.176c0-0.166-0.045-0.276-0.134-0.32-0.056-0.033-0.147-0.044-0.282-0.044h-0.202v0.563h-0.259v-1.424h0.506v-0.033zM87.636 20.989c-0.067-0.033-0.169-0.055-0.315-0.055h-0.214v0.519h0.236c0.113 0 0.191-0.012 0.248-0.033 0.101-0.044 0.146-0.111 0.146-0.221-0.012-0.099-0.034-0.176-0.101-0.209z"
      />
</symbol>
<symbol id="blue-crosshield" viewBox="0 0 93 32">
<path
        fill="#fff"
        style="fill: var(--color1, #fff)"
        d="M10.759 20.675c2.682 0 4.856-2.147 4.856-4.796s-2.174-4.795-4.856-4.795c-2.682 0-4.856 2.147-4.856 4.795s2.174 4.796 4.856 4.796zM28.224 9.754c-2.081 0-5.264-0.967-5.264-0.967s-0.694 1.773-0.694 4.191c0 2.418 2.040 8.785 6.161 10.397 0 0 5.876-3.667 5.876-10.075 0-3.828-0.571-4.513-0.571-4.513s-3.428 0.967-5.509 0.967z"
      />
<path
        fill="#231f20"
        style="fill: var(--color2, #231f20)"
        d="M39.613 7.147h2.833c1.35-0.085 2.702 0.468 2.702 1.913 0 0.808-0.567 1.36-1.308 1.615 0.959 0.212 1.656 0.849 1.656 1.912 0 1.445-1.874 1.997-3.007 1.912h-2.877v-7.353zM42.49 10.079c0.698 0 1.046-0.254 1.046-0.849s-0.392-0.85-1.046-0.85h-1.264v1.743h1.264v-0.042zM42.49 13.225c0.741 0 1.264-0.127 1.264-0.977s-0.522-0.977-1.264-0.977h-1.264v1.955h1.264zM48.069 7.147v7.311h-1.57v-7.311h1.569zM52.819 13.82c-0.349 0.467-0.828 0.764-1.613 0.764-0.523 0-1.526-0.382-1.7-1.105-0.087-0.297-0.087-0.637-0.087-0.807v-3.315h1.569v3.060c0 0.553 0.175 1.19 0.915 1.19 0.479 0 0.915-0.425 0.915-1.19v-3.060h1.569v4.165c0 0.297 0.044 0.595 0.044 0.893h-1.569l-0.044-0.595zM57.134 12.332c0 0.681 0.087 1.275 0.915 1.275 0.523 0 0.828-0.212 0.959-0.68h1.395c-0.131 1.275-1.133 1.658-2.353 1.658-1.787 0-2.528-0.978-2.528-2.678 0-1.53 0.915-2.72 2.528-2.72 0.959 0 1.787 0.34 2.223 1.232 0.131 0.298 0.218 0.595 0.262 0.893s0.044 0.638 0.044 0.977h-3.443v0.042zM58.964 11.312c0-0.553-0.175-1.062-0.915-1.062-0.698 0-0.872 0.51-0.915 1.062h1.83zM65.851 9.485c0-0.766-0.479-1.403-1.438-1.403-1.133 0-1.438 1.658-1.438 2.678s0.305 2.678 1.438 2.678c0.959 0 1.438-0.638 1.438-1.402h1.7c-0.087 1.827-1.438 2.508-3.138 2.508-2.179 0-3.138-1.658-3.138-3.825 0-2.125 0.959-3.825 3.138-3.825 1.743 0 3.095 0.68 3.138 2.508h-1.7v0.085zM69.817 9.357l0.044 0.935c0.349-0.808 1.002-1.020 1.787-0.977v1.36h-0.698c-0.261 0-0.61 0.17-0.741 0.382-0.175 0.297-0.218 0.553-0.218 0.893v2.508h-1.569v-4.080c0-0.212-0.044-0.637-0.044-1.020h1.438zM75.047 14.627c-1.7 0-2.746-1.105-2.746-2.72s1.002-2.72 2.746-2.72c1.7 0 2.746 1.105 2.746 2.72s-1.046 2.72-2.746 2.72zM75.047 13.608c0.959 0 1.133-0.893 1.133-1.7s-0.175-1.7-1.133-1.7-1.133 0.893-1.133 1.7c0.044 0.808 0.175 1.7 1.133 1.7zM81.541 10.718c0-0.34-0.349-0.51-0.698-0.51-0.436 0-0.61 0.128-0.61 0.468 0 0.807 3.007 0.34 3.007 2.252 0 1.105-1.395 1.658-2.353 1.658-1.22 0-2.266-0.468-2.31-1.616h1.438c0.044 0.383 0.392 0.638 0.872 0.638 0.436 0 0.741-0.17 0.741-0.553 0-0.425-0.741-0.595-1.046-0.637-1.002-0.213-1.918-0.468-1.918-1.615 0-1.062 1.307-1.53 2.223-1.53 1.090 0 2.049 0.382 2.092 1.53h-1.438v-0.085zM86.728 10.718c0-0.34-0.349-0.51-0.698-0.51-0.436 0-0.61 0.128-0.61 0.468 0 0.807 3.007 0.34 3.007 2.252 0 1.105-1.395 1.658-2.353 1.658-1.22 0-2.266-0.468-2.31-1.616h1.438c0.044 0.383 0.392 0.638 0.872 0.638 0.436 0 0.741-0.17 0.741-0.553 0-0.425-0.741-0.595-1.046-0.637-1.002-0.213-1.918-0.468-1.918-1.615 0-1.062 1.307-1.53 2.223-1.53 1.090 0 2.049 0.382 2.092 1.53h-1.438v-0.085zM39.613 17.093h2.833c1.35-0.085 2.702 0.468 2.702 1.912 0 0.808-0.567 1.36-1.308 1.615 0.959 0.212 1.656 0.85 1.656 1.912 0 1.445-1.874 1.998-3.007 1.913h-2.877v-7.353zM42.49 20.025c0.698 0 1.046-0.255 1.046-0.849s-0.392-0.851-1.046-0.851h-1.264v1.743l1.264-0.043zM42.49 23.17c0.741 0 1.264-0.128 1.264-0.977s-0.522-0.977-1.264-0.977h-1.264v1.955h1.264zM48.069 17.093v7.311h-1.57v-7.311h1.569zM52.819 23.766c-0.349 0.467-0.828 0.765-1.613 0.765-0.523 0-1.526-0.383-1.7-1.148-0.087-0.297-0.087-0.637-0.087-0.808v-3.315h1.569v3.103c0 0.553 0.175 1.19 0.915 1.19 0.479 0 0.915-0.425 0.915-1.19v-3.060h1.569v4.166c0 0.297 0.044 0.595 0.044 0.892h-1.569l-0.044-0.595zM57.134 22.278c0 0.68 0.087 1.275 0.915 1.275 0.523 0 0.828-0.212 0.959-0.68h1.395c-0.131 1.275-1.133 1.658-2.353 1.658-1.787 0-2.528-0.977-2.528-2.678 0-1.53 0.915-2.721 2.528-2.721 0.959 0 1.787 0.34 2.223 1.233 0.131 0.297 0.218 0.595 0.262 0.892s0.044 0.638 0.044 0.977l-3.443 0.042zM58.964 21.258c0-0.553-0.175-1.062-0.915-1.062-0.698 0-0.872 0.51-0.915 1.062h1.83zM65.633 19.175c-0.044-0.722-0.479-1.105-1.264-1.105-0.61 0-1.177 0.298-1.177 0.935 0 0.808 0.741 0.892 1.395 1.020 1.133 0.298 2.833 0.595 2.833 2.083 0 1.827-1.613 2.465-3.226 2.465-1.7 0-2.92-0.638-2.877-2.508h1.656c-0.044 0.808 0.436 1.36 1.264 1.36 0.654 0 1.482-0.212 1.482-0.977 0-0.849-1.090-0.935-1.7-1.105-1.046-0.254-2.484-0.721-2.484-2.039 0-1.658 1.569-2.423 3.138-2.423 1.438 0 2.572 0.765 2.572 2.252l-1.613 0.042zM68.509 24.403v-7.311h1.569v2.847c0.305-0.467 0.829-0.765 1.613-0.765 0.523 0 1.526 0.383 1.7 1.105 0.087 0.297 0.087 0.637 0.087 0.808v3.315h-1.526v-3.060c0-0.553-0.174-1.147-0.915-1.147-0.479 0-0.915 0.425-0.915 1.147v3.060h-1.613zM76.485 17.093v1.317h-1.656v-1.317h1.656zM76.398 19.303v5.1h-1.569v-5.1h1.569zM79.144 22.278c0 0.68 0.087 1.275 0.915 1.275 0.523 0 0.828-0.212 0.959-0.68h1.395c-0.131 1.275-1.133 1.658-2.353 1.658-1.787 0-2.528-0.977-2.528-2.678 0-1.53 0.915-2.721 2.528-2.721 0.959 0 1.787 0.34 2.223 1.233 0.131 0.297 0.218 0.595 0.262 0.892s0.044 0.638 0.044 0.977l-3.443 0.042zM80.931 21.258c0-0.553-0.175-1.062-0.915-1.062-0.698 0-0.872 0.51-0.915 1.062h1.83zM85.071 17.093v7.311h-1.569v-7.311h1.569zM90.040 17.093h1.569v6.332c0 0.34 0.044 0.681 0.044 1.020h-1.569c0-0.255-0.044-0.468-0.044-0.723-0.349 0.595-0.915 0.892-1.613 0.892-1.525 0-2.266-1.402-2.266-2.72 0-1.36 0.828-2.721 2.441-2.721 0.523 0 1.090 0.298 1.395 0.723l0.044-2.805zM88.906 23.553c0.829 0 1.133-0.977 1.133-1.7 0-0.68-0.261-1.7-1.133-1.7-1.002 0-1.133 0.892-1.133 1.7 0 0.764 0.131 1.7 1.133 1.7zM89.168 14.458c-0.001 0-0.002 0-0.002 0-0.26 0-0.472-0.208-0.477-0.467v-0.001c0.006-0.259 0.217-0.467 0.477-0.467 0.001 0 0.002 0 0.003 0h-0c0.261 0 0.479 0.212 0.479 0.467s-0.175 0.468-0.479 0.468zM89.168 13.395c-0.305 0-0.567 0.255-0.567 0.553 0 0.297 0.262 0.552 0.567 0.552s0.567-0.255 0.567-0.553c0-0.297-0.262-0.553-0.567-0.553z"
      />
<path
        fill="#231f20"
        style="fill: var(--color2, #231f20)"
        d="M89.168 13.947h-0.131v-0.212h0.175c0.087 0 0.174 0 0.174 0.085 0 0.128-0.13 0.128-0.218 0.128zM89.473 13.82c0-0.127-0.044-0.17-0.218-0.17h-0.305v0.638h0.087v-0.298h0.131l0.218 0.298h0.087l-0.174-0.298c0.087 0 0.174-0.042 0.174-0.17zM92.524 24.36c-0.001 0-0.001 0-0.002 0-0.26 0-0.472-0.208-0.478-0.467v-0.001c0-0.255 0.218-0.468 0.479-0.468s0.479 0.212 0.479 0.468c-0.006 0.259-0.217 0.467-0.478 0.467-0.001 0-0.001 0-0.002 0h0zM92.524 23.298c-0.305 0-0.567 0.255-0.567 0.553s0.262 0.553 0.567 0.553 0.567-0.255 0.567-0.553c0-0.298-0.262-0.553-0.567-0.553z"
      />
<path
        fill="#231f20"
        style="fill: var(--color2, #231f20)"
        d="M92.481 23.85h-0.13v-0.213h0.174c0.087 0 0.175 0 0.175 0.086 0 0.127-0.087 0.127-0.218 0.127zM92.83 23.722c0-0.127-0.044-0.17-0.218-0.17h-0.305v0.638h0.087v-0.297h0.13l0.175 0.297h0.087l-0.175-0.297c0.131 0 0.218-0.042 0.218-0.17z"
      />
<path
        fill="#008bcc"
        style="fill: var(--color3, #008bcc)"
        d="M16.421 22.759c-0.563 0-0.996 0.428-0.996 0.983s0.433 0.983 0.996 0.983c0.52 0 0.995-0.427 0.995-0.983s-0.433-0.983-0.995-0.983zM16.421 24.555c-0.476 0-0.823-0.342-0.823-0.813s0.346-0.812 0.823-0.812c0.476 0 0.822 0.342 0.822 0.812s-0.303 0.813-0.822 0.813z"
      />
<path
        fill="#008bcc"
        style="fill: var(--color3, #008bcc)"
        d="M16.94 23.486c0-0.214-0.087-0.3-0.39-0.3h-0.476v1.111h0.13v-0.47h0.26l0.303 0.47h0.173l-0.346-0.47c0.216-0.043 0.346-0.128 0.346-0.342zM16.42 23.657h-0.216v-0.342h0.303c0.13 0 0.26 0 0.26 0.171 0.044 0.214-0.216 0.171-0.346 0.171zM8.627 17.201c-0.043 0-0.043 0-0.086 0.043l-1.645 2.48c0.52 0.214 1.082 0.342 1.688 0.342 0.61-0.002 1.19-0.128 1.717-0.353l-0.029 0.011-1.645-2.48c0.043-0.043 0-0.043 0-0.043zM7.025 15.149l-2.467-0.214c-0.083 0.288-0.13 0.619-0.13 0.96 0 0.008 0 0.016 0 0.024v-0.001c0 1.026 0.39 1.967 0.995 2.694l1.732-3.249c0.086-0.086 0.043-0.171-0.13-0.214z"
      />
<path
        fill="#008bcc"
        style="fill: var(--color3, #008bcc)"
        d="M12.524 12.027v-4.831h-7.836v4.831h-4.893v7.739h4.893v4.831h7.836v-4.831h4.892v-7.738h-4.892zM8.628 11.13c1.948 0 3.636 1.111 4.372 2.779h-3.464c-0.476 0-0.692-0.3-0.736-0.513 0-0.257 0.044-0.342 0.26-0.642 0.074-0.101 0.118-0.227 0.118-0.364 0-0.333-0.263-0.605-0.594-0.619l-0.001-0c-0.563 0-0.736 0.641-0.476 0.983 0.216 0.3 0.259 0.385 0.259 0.642 0 0.214-0.216 0.513-0.736 0.513h-3.463c0.822-1.625 2.511-2.779 4.459-2.779zM3.779 15.918c0-0.598 0.13-1.154 0.303-1.668l3.248 0.3c0.606 0.086 0.692 0.684 0.519 1.026l-2.207 4.147c-1.126-0.898-1.862-2.266-1.862-3.805zM11.269 19.937c-0.78 0.513-1.688 0.77-2.684 0.77s-1.905-0.3-2.684-0.77l2.381-3.463c0.173-0.257 0.433-0.214 0.606 0l2.381 3.463zM11.615 19.681l-2.208-4.105c-0.173-0.342-0.087-0.941 0.52-1.026l3.247-0.299c0.217 0.513 0.304 1.111 0.304 1.667 0 0.002 0 0.004 0 0.006 0 1.527-0.725 2.886-1.851 3.748l-0.011 0.008z"
      />
<path
        fill="#008bcc"
        style="fill: var(--color3, #008bcc)"
        d="M11.788 13.225c-0.519-0.599-1.212-1.069-1.991-1.283 0.259 0.385 0.043 0.941-0.173 1.197-0.043 0.042 0 0.086 0 0.086h2.164zM10.23 15.149c-0.173 0-0.173 0.086-0.13 0.171l1.732 3.249c0.606-0.727 0.996-1.668 0.996-2.694 0-0.342-0.044-0.684-0.13-0.983l-2.467 0.256zM7.459 11.985c-0.78 0.214-1.472 0.684-1.992 1.282h2.164c0.044 0 0.044-0.042 0-0.086-0.216-0.299-0.433-0.812-0.173-1.197zM33.175 7.196c-1.905 0.941-3.81 1.454-6.018 1.454s-4.113-0.513-6.018-1.454c-1.256 2.437-1.428 6.371-0.346 9.663 1.039 3.164 3.074 6.071 6.364 7.867 3.334-1.796 5.325-4.703 6.364-7.867 1.126-3.292 0.909-7.226-0.346-9.663zM32.308 16.474c-0.952 2.694-2.381 5.088-5.108 6.755-2.728-1.667-4.2-4.061-5.108-6.755-0.823-2.395-1.040-5.217-0.13-7.397 1.385 0.47 2.164 0.598 2.9 0.727 0.692 0.128 1.299 0.171 2.338 0.171 0.996 0 1.645-0.086 2.338-0.171 0.735-0.128 1.558-0.257 2.9-0.727 0.866 2.181 0.692 5.002-0.13 7.397z"
      />
<path
        fill="#008bcc"
        style="fill: var(--color3, #008bcc)"
        d="M29.539 10.403c-0.78 0.086-1.602 0.171-2.381 0.171s-1.559-0.086-2.381-0.171c-0.974-0.164-1.778-0.342-2.567-0.556l0.186 0.043c-0.563 1.624-0.477 3.677 0 5.473 0.822 3.42 2.944 6.029 4.762 7.183 1.862-1.154 3.939-3.763 4.762-7.183 0.433-1.839 0.563-3.848 0-5.473-0.823 0.214-1.559 0.428-2.381 0.513zM26.724 20.963c-0.043 0.172 0.044 0.257 0.044 0.343-0.044 0.128-0.13 0.086-0.173 0-0.087-0.128-0.13-0.214-0.13-0.428-0.043-0.342 0.13-0.471 0.216-0.556s0.173-0.128 0.173-0.128l0.043 0.556c-0.087 0-0.173 0.043-0.173 0.214zM27.46 21.519c0 0.086-0.043 0.171-0.216 0.171-0.13 0-0.216-0.042-0.216-0.214-0.043-0.684-0.043-1.924-0.043-1.924s0.173 0.042 0.303 0.128c0.044 0 0.13 0.086 0.217 0.171 0 0.043 0.043 0.043 0.043 0.086-0.039 0.441-0.070 0.991-0.085 1.544l-0.001 0.038zM28.023 20.237c-0.099 0.074-0.214 0.132-0.339 0.169l-0.008 0.002v-0.513s0.044-0.043 0.044-0.128c-0.044-0.086-0.39-0.343-0.563-0.428-0.172-0.071-0.388-0.144-0.61-0.204l-0.040-0.009c-0.433-0.171-0.606-0.556-0.433-0.983 0.044-0.171 0.26-0.257 0.347-0.3s0.259-0.086 0.259-0.086l0.044 0.599s-0.044 0-0.087 0.085c-0.043 0.086 0.044 0.171 0.087 0.171 0.303 0.128 0.692 0.3 0.995 0.47 0.39 0.214 0.52 0.385 0.52 0.684 0.043 0.214-0.087 0.385-0.216 0.471zM26.941 17.457c0.303 0.042 0.39 0.042 0.649 0.086l-0.044 1.197-0.52-0.256-0.086-1.026zM28.673 17.713c-0.044 0.214-0.173 0.385-0.39 0.514s-0.476 0.128-0.476 0.128v-0.727s0.043 0 0.086-0.042c0.044-0.042 0.044-0.086 0.044-0.128s-0.044-0.086-0.087-0.128c-0.087-0.043-0.173-0.043-0.216-0.043l-1.039-0.128c-0.606-0.086-1.082-0.471-1.039-1.069 0.044-0.385 0.433-0.513 0.736-0.641l0.216 0.428c0.044 0.171 0.087 0.256 0.087 0.256s-0.13 0.043-0.13 0.129c0 0.086 0.13 0.128 0.173 0.128 0.433 0.043 1.039 0.129 1.342 0.257 0.216 0.086 0.39 0.171 0.52 0.342 0.173 0.299 0.216 0.513 0.173 0.727zM26.681 14.935s0.13 0 0.52 0.043c0.26 0 0.477 0.086 0.477 0.086l-0.044 1.282c-0.303-0.042-0.476-0.086-0.736-0.128-0.087-0.47-0.216-0.641-0.39-0.983-0.043-0.086 0-0.128 0-0.128 0.044-0.043 0.216-0.086 0.216-0.086l-0.043-0.086zM27.85 16.218s0.042-0.599 0.042-0.898c0.173-0.043 0.217-0.214 0.13-0.342-0.044-0.086-0.173-0.128-0.216-0.128-0.347-0.086-0.649-0.086-0.996-0.129-0.303-0.043-0.563-0.086-0.822-0.128-0.563-0.129-1.082-0.428-1.342-0.941-0.303-0.642-0.044-1.454 0.606-1.753 0.476-0.257 0.995-0.214 1.472 0 0.173 0.042 0.259 0.214 0.346 0.342 0.043 0.042 0.13 0.085 0.173 0.171 0.044 0.042-0.043 0.042-0.043 0.042-0.087 0.042-0.477 0.042-0.563 0h-0.52c0.13 0.086 0.303 0.171 0.476 0.256 0.087 0.043 0.173 0.043 0.26 0.086 0.043 0 0.13 0.042 0.13 0.086s-0.087 0.042-0.173 0.086c-0.13 0.042-0.303 0.042-0.476 0-0.26-0.043-0.39-0.214-0.563-0.128-0.13 0.085-0.13 0.214-0.086 0.384 0.043 0.257 0.303 0.343 0.52 0.428 0.736 0.256 1.558 0.086 2.251 0.47 0.259 0.128 0.606 0.428 0.649 0.727 0.216 1.197-1.256 1.367-1.256 1.367zM29.148 12.241c-0.043 0.128-0.086 0.128-0.173 0.214-0.173 0.171-0.433 0.342-0.692 0.556-0.173 0.128-0.304 0.214-0.433 0.428-0.043 0.043-0.087 0.128-0.087 0.128-0.433-0.085-0.822-0.085-1.169-0.17v-0.342s0.39 0 0.433-0.257c0 0 0-0.086-0.043-0.128s-0.173-0.086-0.216-0.086c0.303 0.042 0.606 0.17 0.909 0.299 0-0.043-0.044-0.171-0.044-0.171-0.043-0.043-0.087-0.086-0.216-0.128-0.173-0.043-0.649-0.086-0.649-0.086h0.39c0.086 0 0.216-0.042 0.216-0.085 0.043-0.043 0-0.128-0.087-0.214l-0.129-0.128c-0.044-0.086-0.13-0.171-0.173-0.257-0.087-0.128-0.433-0.257-0.433-0.257s-0.044-0.214 0.043-0.3c0.044-0.086 0.216-0.086 0.26-0.042 0.216 0.128 0.52 0.256 0.822 0.342 0.087 0.042 0.087 0.042 0.087 0.171 0.043 0.214-0.044 0.513 0 0.641 0 0.042 0.086 0.042 0.086 0.042 0.303-0.17 0.477-0.427 0.78-0.556 0.216-0.086 0.606 0.086 0.519 0.385zM33.262 22.801c-0.52 0-0.953 0.428-0.953 0.941s0.433 0.941 0.952 0.941 0.952-0.428 0.952-0.941c0-0.513-0.433-0.94-0.952-0.94zM33.262 24.555c-0.477 0-0.823-0.342-0.823-0.813s0.346-0.812 0.822-0.812c0.477 0 0.823 0.342 0.823 0.812s-0.346 0.813-0.823 0.813z"
      />
<path
        fill="#008bcc"
        style="fill: var(--color3, #008bcc)"
        d="M33.78 23.486c0-0.214-0.087-0.3-0.39-0.3h-0.476v1.111h0.13v-0.47h0.216l0.303 0.471h0.173l-0.346-0.471c0.216-0.042 0.39-0.128 0.39-0.342zM33.261 23.7h-0.216v-0.342h0.303c0.13 0 0.26 0 0.26 0.171s-0.216 0.171-0.347 0.171zM26.248 11.942c0.087 0.086 0.087 0.171 0.216 0.171 0.087 0 0.13-0.042 0.173-0.086h0.087c-0.13-0.128-0.433-0.128-0.65-0.171 0.087 0.086 0.13 0.043 0.173 0.086z"
      />
</symbol>
<symbol id="burgerMenu" viewBox="0 0 32 32">
<path
        fill="#f3f3e7"
        style="fill: var(--color1, #f3f3e7)"
        d="M5.926 0h20.148c3.273 0 5.926 2.653 5.926 5.926v20.148c0 3.273-2.653 5.926-5.926 5.926h-20.148c-3.273 0-5.926-2.653-5.926-5.926v-20.148c0-3.273 2.653-5.926 5.926-5.926z"
      />
<path
        fill="#2d2a26"
        style="fill: var(--color2, #2d2a26); stroke: var(--color2, #2d2a26)"
        stroke="#2d2a26"
        stroke-linejoin="miter"
        stroke-linecap="butt"
        stroke-miterlimit="4"
        stroke-width="0.5926"
        d="M8.889 12.741h14.222c0.164 0 0.296-0.133 0.296-0.296s-0.133-0.296-0.296-0.296h-14.222c-0.164 0-0.296 0.133-0.296 0.296s0.133 0.296 0.296 0.296z"
      />
<path
        fill="#2d2a26"
        style="fill: var(--color2, #2d2a26); stroke: var(--color2, #2d2a26)"
        stroke="#2d2a26"
        stroke-linejoin="miter"
        stroke-linecap="butt"
        stroke-miterlimit="4"
        stroke-width="0.5926"
        d="M8.889 16.296h14.222c0.164 0 0.296-0.133 0.296-0.296s-0.133-0.296-0.296-0.296h-14.222c-0.164 0-0.296 0.133-0.296 0.296s0.133 0.296 0.296 0.296z"
      />
<path
        fill="#2d2a26"
        style="fill: var(--color2, #2d2a26); stroke: var(--color2, #2d2a26)"
        stroke="#2d2a26"
        stroke-linejoin="miter"
        stroke-linecap="butt"
        stroke-miterlimit="4"
        stroke-width="0.5926"
        d="M8.889 19.852h14.222c0.164 0 0.296-0.133 0.296-0.296s-0.133-0.296-0.296-0.296h-14.222c-0.164 0-0.296 0.133-0.296 0.296s0.133 0.296 0.296 0.296z"
      />
</symbol>
</defs>
</svg>
